<svg id="Group_320" data-name="Group 320" xmlns="http://www.w3.org/2000/svg" width="6.607" height="8.911" viewBox="0 0 6.607 8.911">
  <g id="Group_43" data-name="Group 43">
    <g id="Group_41" data-name="Group 41" transform="translate(1.642 0.076)">
      <path id="Path_118" data-name="Path 118" d="M137.738,296.347a1.889,1.889,0,0,1-1.933-1.887,1.5,1.5,0,0,1,1.535-1.539,1.314,1.314,0,0,1,1.262,1.358.2.2,0,0,1-.2.2.2.2,0,0,1-.2-.2.922.922,0,0,0-.867-.965,1.109,1.109,0,0,0-1.146,1.146,1.5,1.5,0,0,0,1.544,1.5,1.888,1.888,0,0,0,1.929-1.93c0-1.293-.971-2.129-2.477-2.129a.2.2,0,0,1-.193-.2.193.193,0,0,1,.193-.193,2.562,2.562,0,0,1,2.867,2.519A2.3,2.3,0,0,1,137.738,296.347Z" transform="translate(-135.805 -291.506)" fill="#802a8a"/>
    </g>
    <g id="Group_42" data-name="Group 42">
      <path id="Path_119" data-name="Path 119" d="M137.758,297.991a3.273,3.273,0,1,1,3.273-3.273A3.275,3.275,0,0,1,137.758,297.991Zm0-6.007a2.734,2.734,0,1,0,2.735,2.733A2.74,2.74,0,0,0,137.758,291.984Z" transform="translate(-134.488 -291.445)" fill="#802a8a"/>
    </g>
  </g>
  <g id="Group_44" data-name="Group 44" transform="translate(4.343 5.973)">
    <path id="Path_120" data-name="Path 120" d="M140.16,298.228a.642.642,0,0,1-.273.872h0a.647.647,0,0,1-.872-.274l-1.044-1.992a6.552,6.552,0,0,0,.632-.269,4.632,4.632,0,0,0,.514-.329Z" transform="translate(-137.971 -296.235)" fill="#802a8a"/>
  </g>
</svg>
