<svg xmlns="http://www.w3.org/2000/svg" xmlns:xlink="http://www.w3.org/1999/xlink" width="36" height="36" viewBox="0 0 36 36">
  <defs>
    <clipPath id="clip-path">
      <rect id="Rectangle_4130" data-name="Rectangle 4130" width="20" height="20"/>
    </clipPath>
  </defs>
  <g id="Group_4312" data-name="Group 4312" transform="translate(-504 -519)">
    <g id="a" transform="translate(512 527)" clip-path="url(#clip-path)">
      <circle id="Ellipse_340" data-name="Ellipse 340" cx="10" cy="10" r="10" fill="#f4900c"/>
      <path id="Path_9233" data-name="Path 9233" d="M20,9.444H15.011c.1-3.059,1.079-5.164,2.658-5.859a10.153,10.153,0,0,0-.793-.836c-1.576.878-2.859,2.93-2.976,6.7H10.556V0H9.444V9.444H6.1C5.984,5.68,4.7,3.627,3.126,2.751a9.967,9.967,0,0,0-.793.835c1.578.695,2.553,2.8,2.657,5.859H0v1.111H4.989c-.1,3.059-1.079,5.164-2.657,5.859a10.153,10.153,0,0,0,.793.836c1.575-.878,2.859-2.93,2.975-6.695H9.444V20h1.111V10.556H13.9c.116,3.764,1.4,5.817,2.974,6.694a9.973,9.973,0,0,0,.793-.836c-1.578-.7-2.553-2.8-2.658-5.859H20Z" fill="#231f20"/>
      <rect id="Rectangle_4129" data-name="Rectangle 4129" width="20" height="20" fill="rgba(0,0,0,0)"/>
    </g>
    <g id="Ellipse_341" data-name="Ellipse 341" transform="translate(504 519)" fill="none" stroke="#e7e8ed" stroke-width="1">
      <circle cx="18" cy="18" r="18" stroke="none"/>
      <circle cx="18" cy="18" r="17.5" fill="none"/>
    </g>
  </g>
</svg>
