<svg xmlns="http://www.w3.org/2000/svg" width="36" height="36" viewBox="0 0 36 36">
  <g id="Rent" transform="translate(-32 -1054)">
    <g id="Ellipse_297" data-name="Ellipse 297" transform="translate(32 1054)" fill="none" stroke="#e7e8ed" stroke-width="1">
      <circle cx="18" cy="18" r="18" stroke="none"/>
      <circle cx="18" cy="18" r="17.5" fill="none"/>
    </g>
    <g id="Rent-2" data-name="Rent" transform="translate(39.239 1042.895)">
      <path id="Path_8983" data-name="Path 8983" d="M78.334,39.41l-7.771-5.17-7.771,5.17V52.734H78.337V39.41Z" transform="translate(-60.152 -15.457)" fill="#e1effb"/>
      <path id="Path_8984" data-name="Path 8984" d="M219.089,39.41l-7.771-5.17L209.723,35.3l7.423,4.938h0v12.5h1.944V39.41Z" transform="translate(-200.907 -15.457)" fill="#ccdfed"/>
      <path id="Path_8985" data-name="Path 8985" d="M1.186,26.028l9.095-6.05a.237.237,0,0,1,.263,0l9.095,6.05a.763.763,0,0,0,.846,0h0a.763.763,0,0,0,0-1.271l-9.94-6.613a.237.237,0,0,0-.263,0L.34,24.757a.763.763,0,0,0,0,1.271h0A.763.763,0,0,0,1.186,26.028Z" transform="translate(0 0)" fill="#ff4c4c"/>
      <circle id="Ellipse_299" data-name="Ellipse 299" cx="1.68" cy="1.68" r="1.68" transform="translate(8.732 21.984)" fill="#ffb125"/>
      <path id="Path_8986" data-name="Path 8986" d="M211.1,112.07a1.686,1.686,0,0,0-.031-.318h-1.332V110.42a1.675,1.675,0,0,0-.634,0v1.331h-1.332a1.674,1.674,0,0,0,0,.634h1.333v1.334a1.675,1.675,0,0,0,.634,0v-1.334h1.333A1.694,1.694,0,0,0,211.1,112.07Z" transform="translate(-199.012 -88.406)" fill="#ff901d"/>
      <rect id="Rectangle_4095" data-name="Rectangle 4095" width="5.365" height="8.093" transform="translate(7.73 30.011)" fill="#ffb125"/>
      <rect id="Rectangle_4096" data-name="Rectangle 4096" width="2.683" height="8.093" transform="translate(10.412 30.011)" fill="#ff901d"/>
      <path id="Path_8987" data-name="Path 8987" d="M30.388,463.474H11.778a.639.639,0,0,0-.639.639h0a.639.639,0,0,0,.639.639h18.61a.639.639,0,0,0,.639-.639h0A.639.639,0,0,0,30.388,463.474Z" transform="translate(-10.671 -426.648)" fill="#2d5871"/>
      <path id="Path_8988" data-name="Path 8988" d="M20.785,48.928c0-.014.01-.028.014-.042s0-.016.006-.024.007-.029.01-.043,0-.016,0-.024.006-.037.007-.056,0-.037,0-.056,0-.016,0-.023,0-.031,0-.047,0-.015,0-.023,0-.032-.006-.047,0-.014,0-.022-.007-.032-.011-.048l-.006-.021c0-.016-.01-.032-.016-.047l-.008-.02c-.006-.016-.013-.031-.02-.046l-.009-.018q-.012-.023-.025-.045l-.005-.009h0a.758.758,0,0,0-.224-.23l-.993-.661-.111.171a.64.64,0,0,1-.891.184l-7.945-5.285a.237.237,0,0,0-.263,0L1.191,48.5a.763.763,0,0,1-.846,0h0a.761.761,0,0,1-.224-.23.764.764,0,0,0,.225,1.042.78.78,0,0,0,.861-.011l9.079-6.039a.237.237,0,0,1,.263,0l9.095,6.05a.763.763,0,0,0,.846,0c.02-.013.038-.027.056-.041l.018-.015.033-.03.019-.019q.019-.02.037-.041h0a.749.749,0,0,0,.1-.148l0,0,.008-.017c.006-.014.012-.027.018-.041Z" transform="translate(-0.005 -23.28)" fill="#f33939"/>
      <path id="Path_8989" data-name="Path 8989" d="M31.023,464.041s0-.009,0-.014-.006-.038-.01-.057l0-.01a.624.624,0,0,0-.018-.06v0a.642.642,0,0,0-.026-.063h0a.639.639,0,0,0-.575-.361h-1.3v.285a.437.437,0,0,1-.437.437H11.779a.639.639,0,0,1-.575-.361.635.635,0,0,0-.059.358.651.651,0,0,0,.652.56H30.388a.638.638,0,0,0,.635-.71Z" transform="translate(-10.671 -426.647)" fill="#1d4859"/>
      <path id="Path_8990" data-name="Path 8990" d="M306.859,202.248h-1.71V190.306a.855.855,0,0,1,.855-.855h0a.855.855,0,0,1,.855.855v11.942Z" transform="translate(-292.322 -164.143)" fill="#ff6d3a"/>
      <path id="Path_8991" data-name="Path 8991" d="M315.746,189.451h0a.85.85,0,0,0-.427.115.854.854,0,0,1,.427.74v11.942h.855V190.306A.855.855,0,0,0,315.746,189.451Z" transform="translate(-302.065 -164.143)" fill="#ed5729"/>
      <path id="Path_8992" data-name="Path 8992" d="M154.118,241.436H139.512a.537.537,0,0,1-.537-.537V235.32a.537.537,0,0,1,.537-.537h14.606a.537.537,0,0,1,.537.537V240.9A.537.537,0,0,1,154.118,241.436Z" transform="translate(-133.133 -207.57)" fill="#61aff6"/>
      <path id="Path_8993" data-name="Path 8993" d="M154.118,234.782h-1.407v5.3a.537.537,0,0,1-.537.537h-13.2v.28a.537.537,0,0,0,.537.537h14.606a.537.537,0,0,0,.537-.537v-5.579A.537.537,0,0,0,154.118,234.782Z" transform="translate(-133.133 -207.569)" fill="#55a2f0"/>
      <g id="Group_4270" data-name="Group 4270" transform="translate(8.507 28.859)">
        <path id="Path_8994" data-name="Path 8994" d="M203.964,275.824a.863.863,0,0,0,.6-.919c0-.73-.487-.96-1.089-.96h-.909a.186.186,0,0,0-.193.184v2.985c0,.124.152.188.3.188s.3-.064.3-.188v-1.2h.386l.652,1.268a.235.235,0,0,0,.207.142.386.386,0,0,0,.372-.312.124.124,0,0,0-.023-.074Zm-.487-.377h-.505v-.978h.505a.489.489,0,1,1,0,.978Z" transform="translate(-202.375 -273.945)" fill="#fff"/>
        <path id="Path_8995" data-name="Path 8995" d="M268.732,274.47c.119,0,.188-.124.188-.266,0-.124-.06-.257-.188-.257H267.1c-.133,0-.262.064-.262.188v2.981c0,.124.129.188.262.188h1.635c.129,0,.188-.133.188-.257,0-.142-.069-.266-.188-.266h-1.3v-.923h.7a.208.208,0,0,0,.188-.23c0-.124-.069-.239-.188-.239h-.7v-.919Z" transform="translate(-264.125 -273.946)" fill="#fff"/>
        <path id="Path_8996" data-name="Path 8996" d="M328.857,273.946c-.152,0-.3.055-.3.184v1.846l-.886-1.713c-.142-.271-.23-.317-.446-.317-.152,0-.3.06-.3.188v2.981c0,.124.147.188.3.188s.3-.064.3-.188v-1.846l.988,1.846a.359.359,0,0,0,.344.188c.147,0,.3-.064.3-.188V274.13C329.156,274,329,273.946,328.857,273.946Z" transform="translate(-321.692 -273.946)" fill="#fff"/>
        <path id="Path_8997" data-name="Path 8997" d="M392.1,273.946h-1.943c-.129,0-.188.138-.188.266,0,.147.069.271.188.271h.675v2.632c0,.124.147.188.3.188s.3-.064.3-.188v-2.632h.671c.119,0,.188-.129.188-.271S392.228,273.946,392.1,273.946Z" transform="translate(-382.082 -273.946)" fill="#fff"/>
      </g>
    </g>
  </g>
</svg>
