<svg xmlns="http://www.w3.org/2000/svg" width="36" height="36" viewBox="0 0 36 36">
  <g id="Saving" transform="translate(-32 -1342)">
    <g id="Ellipse_303" data-name="Ellipse 303" transform="translate(32 1342)" fill="none" stroke="#e7e8ed" stroke-width="1">
      <circle cx="18" cy="18" r="18" stroke="none"/>
      <circle cx="18" cy="18" r="17.5" fill="none"/>
    </g>
    <g id="Saving-2" data-name="Saving" transform="translate(41.986 1349.396)">
      <path id="Path_9036" data-name="Path 9036" d="M22.4,128.081l-1.955-1.955a.761.761,0,0,1,1.077-1.077L23.48,127Zm0,0" transform="translate(-19.428 -119.655)" fill="#f97473"/>
      <path id="Path_9037" data-name="Path 9037" d="M135.338,435.033a1.443,1.443,0,0,1-1.443-1.443v-1.883h2.885v1.883A1.443,1.443,0,0,1,135.338,435.033Zm0,0" transform="translate(-128.39 -413.824)" fill="#f97473"/>
      <path id="Path_9038" data-name="Path 9038" d="M286.162,382.056a1.443,1.443,0,0,1-1.443-1.442V378.73H287.6v1.883A1.442,1.442,0,0,1,286.162,382.056Zm0,0" transform="translate(-272.967 -363.042)" fill="#f97473"/>
      <path id="Path_9039" data-name="Path 9039" d="M21.669,343.106a1.443,1.443,0,0,1-1.442-1.443v-2.956h2.885v2.956A1.443,1.443,0,0,1,21.669,343.106Zm0,0" transform="translate(-19.43 -324.677)" fill="#f97473"/>
      <path id="Path_9040" data-name="Path 9040" d="M.795,116.244c-1.968,3.408-.35,8.026,3.612,10.314s8.77,1.38,10.738-2.028.35-8.026-3.612-10.314S2.762,112.836.795,116.244Zm0,0" transform="translate(0 -108.275)" fill="#f9a2a1"/>
      <path id="Path_9041" data-name="Path 9041" d="M152.494,207.727a8.669,8.669,0,0,1,1.658-1.495q.249-.173.5-.325l-.341-.48a1.211,1.211,0,0,0-1.79-.088,1.449,1.449,0,0,0-.381,1.892Zm0,0" transform="translate(-145.681 -196.499)" fill="#fab5b4"/>
      <path id="Path_9042" data-name="Path 9042" d="M295.542,165.794l.083-.672a.834.834,0,0,0-.964-1,1.537,1.537,0,0,0-1.245,1.284l-.026.213A5.235,5.235,0,0,1,295.542,165.794Zm0,0" transform="translate(-281.279 -157.318)" fill="#fab5b4"/>
      <path id="Path_9043" data-name="Path 9043" d="M304.978,179.239l.046-.371a.511.511,0,0,0-.59-.611.941.941,0,0,0-.762.786l-.012.095A5.262,5.262,0,0,1,304.978,179.239Zm0,0" transform="translate(-291.123 -170.868)" fill="#fbc7c6"/>
      <path id="Path_9044" data-name="Path 9044" d="M166.484,222.138a8.8,8.8,0,0,1,1.282-1.082l.043-.029-.217-.3a.741.741,0,0,0-1.1-.054.887.887,0,0,0-.233,1.159Zm0,0" transform="translate(-159.295 -211.323)" fill="#fbc7c6"/>
      <path id="Path_9045" data-name="Path 9045" d="M294.591,308.367a4.191,4.191,0,0,1-2.039,3.167c-1.126.65-2.039.287-2.039-.812a4.191,4.191,0,0,1,2.039-3.167C293.678,306.9,294.591,307.269,294.591,308.367Zm0,0" transform="translate(-278.52 -294.506)" fill="#f97473"/>
      <path id="Path_9046" data-name="Path 9046" d="M311.39,347.108l-.049.028c-.182.1-.329-.006-.329-.249v-1.5a.788.788,0,0,1,.329-.628l.049-.028c.182-.1.329.006.329.249v1.5A.788.788,0,0,1,311.39,347.108Zm0,0" transform="translate(-298.17 -330.41)" fill="#97463c"/>
      <path id="Path_9047" data-name="Path 9047" d="M351.788,323.784l-.049.028c-.182.1-.329-.006-.329-.249v-1.5a.787.787,0,0,1,.329-.628l.049-.028c.182-.1.329.007.329.249v1.5A.788.788,0,0,1,351.788,323.784Zm0,0" transform="translate(-336.895 -308.052)" fill="#97463c"/>
      <path id="Path_9048" data-name="Path 9048" d="M251.556,298.157a.6.6,0,1,1-.6-.6A.6.6,0,0,1,251.556,298.157Zm0,0" transform="translate(-240.03 -285.233)" fill="#97463c"/>
      <path id="Path_9049" data-name="Path 9049" d="M346.693,258.814a.6.6,0,1,1-.6-.6A.6.6,0,0,1,346.693,258.814Zm0,0" transform="translate(-331.226 -247.519)" fill="#97463c"/>
      <path id="Path_9050" data-name="Path 9050" d="M149.429,132.91a.588.588,0,0,1-.425-.181,9.733,9.733,0,0,0-3.366-2.044.59.59,0,0,1,.406-1.108,10.731,10.731,0,0,1,3.811,2.335.59.59,0,0,1-.426,1Zm0,0" transform="translate(-139.276 -124.174)" fill="#97463c"/>
      <path id="Path_9051" data-name="Path 9051" d="M148.669,4.371A5.155,5.155,0,0,0,146.516.258,1.422,1.422,0,0,0,145.2.1h0l-.96.559s-.8.321-.8,1.77a5.155,5.155,0,0,0,2.153,4.113,1.333,1.333,0,0,0,1.51.047h0l.821-.476A1.907,1.907,0,0,0,148.669,4.371Zm0,0" transform="translate(-137.541 0)" fill="#c3a600"/>
      <path id="Path_9052" data-name="Path 9052" d="M147.743,17.428c0,1.585-.964,2.314-2.153,1.627a5.155,5.155,0,0,1-2.153-4.113c0-1.585.964-2.314,2.153-1.627A5.156,5.156,0,0,1,147.743,17.428Zm0,0" transform="translate(-137.538 -12.516)" fill="#ffd800"/>
      <path id="Path_9053" data-name="Path 9053" d="M162.69,39.739c0,1.088-.662,1.588-1.478,1.117a3.539,3.539,0,0,1-1.478-2.823c0-1.088.662-1.588,1.478-1.117A3.539,3.539,0,0,1,162.69,39.739Zm0,0" transform="translate(-153.159 -35.217)" fill="#c3a600"/>
      <path id="Path_9054" data-name="Path 9054" d="M172.836,54.887c0,.751-.456,1.1-1.02.771a2.441,2.441,0,0,1-1.02-1.948c0-.751.456-1.1,1.02-.771A2.442,2.442,0,0,1,172.836,54.887Zm0,0" transform="translate(-163.763 -50.628)" fill="#ffd800"/>
    </g>
  </g>
</svg>
