<svg xmlns="http://www.w3.org/2000/svg" xmlns:xlink="http://www.w3.org/1999/xlink" width="36" height="36" viewBox="0 0 36 36">
  <defs>
    <clipPath id="clip-path">
      <rect id="Rectangle_4116" data-name="Rectangle 4116" width="20" height="20"/>
    </clipPath>
  </defs>
  <g id="Group_4303" data-name="Group 4303" transform="translate(-501 -72)">
    <g id="Ellipse_273" data-name="Ellipse 273" transform="translate(501 72)" fill="none" stroke="#e7e8ed" stroke-width="1">
      <circle cx="18" cy="18" r="18" stroke="none"/>
      <circle cx="18" cy="18" r="17.5" fill="none"/>
    </g>
    <g id="a" transform="translate(509 80)" clip-path="url(#clip-path)">
      <path id="Path_9189" data-name="Path 9189" d="M6.111,2C4.444,2,0,3.111,0,4.222a16.221,16.221,0,0,0,1.111,5c.556,1.111,4.444,0,5-.556S7.222,2,6.111,2Z" transform="translate(0 -0.889)" fill="#3b88c3"/>
      <path id="Path_9190" data-name="Path 9190" d="M.556,4.717A.928.928,0,0,0,0,5.43a16.221,16.221,0,0,0,1.111,5c.156.312.577.432,1.111.472C1.667,9.319,1.111,7.1.556,4.717Z" transform="translate(0 -2.096)" fill="#55acee"/>
      <path id="Path_9191" data-name="Path 9191" d="M24.487,2C26.153,2,30.6,3.111,30.6,4.222a16.222,16.222,0,0,1-1.111,5c-.556,1.111-4.444,0-5-.556S23.376,2,24.487,2Z" transform="translate(-10.598 -0.889)" fill="#3b88c3"/>
      <path id="Path_9192" data-name="Path 9192" d="M33.667,4.717a.927.927,0,0,1,.556.713,16.221,16.221,0,0,1-1.111,5c-.156.312-.577.432-1.111.472C32.556,9.319,33.111,7.1,33.667,4.717Z" transform="translate(-14.222 -2.096)" fill="#55acee"/>
      <path id="Path_9193" data-name="Path 9193" d="M16.018,2h-.593c-.232.942-1.617,1.667-3.3,1.667S9.065,2.942,8.834,2H8.24c-1.227,0-2.778.995-2.778,2.222,0,0,0,11.111-.556,13.333s.995,2.222,2.222,2.222h10c1.227,0,2.778,0,2.222-2.222S18.8,4.222,18.8,4.222C18.8,2.995,17.245,2,16.018,2Z" transform="translate(-2.129 -0.889)" fill="#3b88c3"/>
      <path id="Path_9194" data-name="Path 9194" d="M14.889,4.778c2.148,0,3.889-1.244,3.889-2.778h-.593c-.232.942-1.617,1.667-3.3,1.667S11.825,2.942,11.593,2H11C11,3.534,12.741,4.778,14.889,4.778Z" transform="translate(-4.889 -0.889)" fill="#55acee"/>
      <rect id="Rectangle_4115" data-name="Rectangle 4115" width="20" height="20" fill="rgba(0,0,0,0)"/>
    </g>
  </g>
</svg>
