<svg xmlns="http://www.w3.org/2000/svg" xmlns:xlink="http://www.w3.org/1999/xlink" width="36" height="36" viewBox="0 0 36 36">
  <defs>
    <clipPath id="clip-path">
      <rect id="Rectangle_4140" data-name="Rectangle 4140" width="20" height="20"/>
    </clipPath>
  </defs>
  <g id="Group_4316" data-name="Group 4316" transform="translate(-474 -282)">
    <g id="a" transform="translate(482 290)" clip-path="url(#clip-path)">
      <path id="Path_9254" data-name="Path 9254" d="M2.222,5A2.222,2.222,0,0,0,0,7.222v10a2.222,2.222,0,0,0,2.222,2.222H17.778A2.222,2.222,0,0,0,20,17.222v-10A2.176,2.176,0,0,0,17.778,5Z" transform="translate(0 -2.222)" fill="#ffac33"/>
      <path id="Path_9255" data-name="Path 9255" d="M0,10H20v2.778H0Z" transform="translate(0 -4.444)" fill="#292f33"/>
      <path id="Path_9256" data-name="Path 9256" d="M4,19H19.556v3.333H4Z" transform="translate(-1.778 -8.444)" fill="#f4f7f9"/>
      <path id="Path_9257" data-name="Path 9257" d="M12.778,22.222a1.328,1.328,0,0,1-1.372-1,2.24,2.24,0,0,0-1,.424,2.814,2.814,0,0,1-1.514.576,1.036,1.036,0,0,1-1.111-1.111c0-.031.021-.1.012-.1A2.572,2.572,0,0,0,6,22a.557.557,0,0,1-.9-.657A3.661,3.661,0,0,1,7.778,20a1,1,0,0,1,1.154,1.049v.061a2.093,2.093,0,0,0,.872-.4,2.532,2.532,0,0,1,2.083-.534.825.825,0,0,1,.588.742.789.789,0,0,0,.027.126.848.848,0,0,0,.321.072,3.5,3.5,0,0,0,1.486-.363,4.765,4.765,0,0,1,1.728-.438,3.39,3.39,0,0,1,2.729,1.012.556.556,0,1,1-.875.685,2.454,2.454,0,0,0-1.854-.586,3.929,3.929,0,0,0-1.323.361,6.018,6.018,0,0,1-1.942.438Z" transform="translate(-2.222 -8.889)" fill="#8899a6"/>
      <rect id="Rectangle_4139" data-name="Rectangle 4139" width="20" height="20" fill="rgba(0,0,0,0)"/>
    </g>
    <g id="Ellipse_346" data-name="Ellipse 346" transform="translate(474 282)" fill="none" stroke="#e7e8ed" stroke-width="1">
      <circle cx="18" cy="18" r="18" stroke="none"/>
      <circle cx="18" cy="18" r="17.5" fill="none"/>
    </g>
  </g>
</svg>
