<svg xmlns="http://www.w3.org/2000/svg" xmlns:xlink="http://www.w3.org/1999/xlink" width="36" height="36" viewBox="0 0 36 36">
  <defs>
    <clipPath id="clip-path">
      <rect id="Rectangle_4120" data-name="Rectangle 4120" width="20" height="20"/>
    </clipPath>
  </defs>
  <g id="Group_4306" data-name="Group 4306" transform="translate(-504 -192)">
    <g id="a" transform="translate(512 200)" clip-path="url(#clip-path)">
      <path id="Path_9197" data-name="Path 9197" d="M20,10A10,10,0,1,1,10,0,10,10,0,0,1,20,10Z" fill="#e1e8ed"/>
      <path id="Path_9198" data-name="Path 9198" d="M19.333,12.667A6.667,6.667,0,1,1,12.666,6a6.667,6.667,0,0,1,6.667,6.667Z" transform="translate(-2.667 -2.667)" fill="#ccd6dd"/>
      <path id="Path_9199" data-name="Path 9199" d="M19.222,13.111A6.111,6.111,0,1,1,13.111,7,6.111,6.111,0,0,1,19.222,13.111Z" transform="translate(-3.111 -3.111)" fill="#e1e8ed"/>
      <circle id="Ellipse_323" data-name="Ellipse 323" cx="0.556" cy="0.556" r="0.556" transform="translate(0 0)" fill="#99aab5"/>
      <path id="Path_9200" data-name="Path 9200" d="M0,1H1.111V4.889H0Z" transform="translate(0 -0.444)" fill="#99aab5"/>
      <circle id="Ellipse_324" data-name="Ellipse 324" cx="0.556" cy="0.556" r="0.556" transform="translate(2.222 0)" fill="#99aab5"/>
      <path id="Path_9201" data-name="Path 9201" d="M4,1H5.111V4.889H4Z" transform="translate(-1.778 -0.444)" fill="#99aab5"/>
      <circle id="Ellipse_325" data-name="Ellipse 325" cx="0.556" cy="0.556" r="0.556" transform="translate(4.444 0)" fill="#99aab5"/>
      <path id="Path_9202" data-name="Path 9202" d="M5.778,1H6.889V4.889H5.778ZM3,8.222H5.222V19.333H3Z" transform="translate(-1.333 -0.444)" fill="#99aab5"/>
      <circle id="Ellipse_326" data-name="Ellipse 326" cx="1.111" cy="1.111" r="1.111" transform="translate(1.667 17.778)" fill="#99aab5"/>
      <path id="Path_9203" data-name="Path 9203" d="M4.444,8A.556.556,0,0,1,3.333,8H2.222A.556.556,0,0,1,1.111,8H0c0,2.148.556,3.889,2.778,3.889S5.556,10.148,5.556,8Z" transform="translate(0 -3.556)" fill="#99aab5"/>
      <circle id="Ellipse_327" data-name="Ellipse 327" cx="0.556" cy="0.556" r="0.556" transform="translate(0 3.889)" fill="#99aab5"/>
      <circle id="Ellipse_328" data-name="Ellipse 328" cx="0.556" cy="0.556" r="0.556" transform="translate(2.222 3.889)" fill="#99aab5"/>
      <circle id="Ellipse_329" data-name="Ellipse 329" cx="0.556" cy="0.556" r="0.556" transform="translate(4.444 3.889)" fill="#99aab5"/>
      <g id="Group_4305" data-name="Group 4305" transform="translate(15)">
        <path id="Path_9204" data-name="Path 9204" d="M30,14h2.222V25.111H30Z" transform="translate(-28.333 -6.222)" fill="#99aab5"/>
        <circle id="Ellipse_330" data-name="Ellipse 330" cx="1.111" cy="1.111" r="1.111" transform="translate(1.667 17.778)" fill="#99aab5"/>
        <path id="Path_9205" data-name="Path 9205" d="M29.778,0c.556,0,1.111.556,1.111,1.667v8.889S27,11.667,27,6.111C27,2.778,28.667,0,29.778,0Z" transform="translate(-27)" fill="#99aab5"/>
      </g>
      <rect id="Rectangle_4119" data-name="Rectangle 4119" width="20" height="20" fill="rgba(0,0,0,0)"/>
    </g>
    <g id="Ellipse_331" data-name="Ellipse 331" transform="translate(504 192)" fill="none" stroke="#e7e8ed" stroke-width="1">
      <circle cx="18" cy="18" r="18" stroke="none"/>
      <circle cx="18" cy="18" r="17.5" fill="none"/>
    </g>
  </g>
</svg>
