<svg xmlns="http://www.w3.org/2000/svg" width="36" height="36" viewBox="0 0 36 36">
  <g id="tax" transform="translate(-32 -1630)">
    <g id="Ellipse_309" data-name="Ellipse 309" transform="translate(32 1630)" fill="none" stroke="#e7e8ed" stroke-width="1">
      <circle cx="18" cy="18" r="18" stroke="none"/>
      <circle cx="18" cy="18" r="17.5" fill="none"/>
    </g>
    <g id="tax-2" data-name="tax" transform="translate(29.432 1638)">
      <path id="Path_9080" data-name="Path 9080" d="M28.829,36.4a9.57,9.57,0,1,0-16.521,0Z" transform="translate(0 -21.137)" fill="#2a428c"/>
      <path id="Path_9081" data-name="Path 9081" d="M56.93,0H48.86c-.045,0-.09,0-.135,0a1.882,1.882,0,0,0-.994,1.931V2.992a.8.8,0,0,1-.8.8H45.751a1.739,1.739,0,0,0-1.8.979c0,.05,0,.1,0,.15V15.225a9.618,9.618,0,0,0,2.8,3.051V7.659A2.58,2.58,0,0,1,47.5,5.847l2.292-2.292A2.546,2.546,0,0,1,51.6,2.8h6.167V.838A.838.838,0,0,0,56.93,0Z" transform="translate(-31.657)" fill="#d3dcfb"/>
      <path id="Path_9082" data-name="Path 9082" d="M48.86,0c-.045,0-.09,0-.135,0a1.882,1.882,0,0,0-.994,1.931V2.992a.8.8,0,0,1-.8.8H45.751a1.739,1.739,0,0,0-1.8.979c0,.05,0,.1,0,.15V15.225a9.618,9.618,0,0,0,2.8,3.051V7.659A2.58,2.58,0,0,1,47.5,5.847l2.191-2.191a2.707,2.707,0,0,1-.142-1.039V.859c0-.7.9-.859.9-.859H48.86Z" transform="translate(-31.657)" fill="#bec8f7"/>
      <path id="Path_9083" data-name="Path 9083" d="M47,.769A2.625,2.625,0,0,1,48.861,0s-1.087.236-1.087,1.935V2.992a.838.838,0,0,1-.838.838H45.752c-1.608,0-1.809,1.087-1.809,1.087a2.625,2.625,0,0,1,.769-1.856Z" transform="translate(-31.658 0)" fill="#d3dcfb"/>
      <path id="Path_9084" data-name="Path 9084" d="M322.744,36.9a.167.167,0,0,0-.167.167v1.028a.167.167,0,0,0,.167.167h2.774V36.9Z" transform="translate(-299.408 -35.455)" fill="#73c3f9"/>
      <path id="Path_9085" data-name="Path 9085" d="M323.947,37.577a.681.681,0,0,1,.681-.681h-1.885a.167.167,0,0,0-.167.167v1.028a.167.167,0,0,0,.167.167h1.885A.681.681,0,0,1,323.947,37.577Z" transform="translate(-299.407 -35.455)" fill="#4fabf7"/>
      <path id="Path_9086" data-name="Path 9086" d="M127.944,71.014a.838.838,0,0,0-.838-.838h-8.07c-.045,0-.09,0-.135,0a1.882,1.882,0,0,0-.994,1.931v1.058a.8.8,0,0,1-.8.8h-1.184a1.739,1.739,0,0,0-1.8.979c0,.05,0,.1,0,.15V85.668a9.573,9.573,0,0,0,13.826-3.007Z" transform="translate(-99.092 -67.435)" fill="#e8f4fc"/>
      <path id="Path_9087" data-name="Path 9087" d="M119.552,71.617a1.55,1.55,0,0,1,.924-1.441h-1.441c-.045,0-.09,0-.135,0a1.882,1.882,0,0,0-.994,1.931v1.058a.8.8,0,0,1-.8.8h-1.184a1.739,1.739,0,0,0-1.8.979c0,.05,0,.1,0,.15V85.668a9.527,9.527,0,0,0,5.542,1.767q.261,0,.518-.014a1.393,1.393,0,0,1-.53-1V84.9c0-.742.9-.9.9-.9V79.461a1.185,1.185,0,0,1-1-1.257Z" transform="translate(-99.092 -67.435)" fill="#d3dcfb"/>
      <path id="Path_9088" data-name="Path 9088" d="M171.649,307.327v2.688a1.021,1.021,0,0,0,1.021,1.021h7.288a1.021,1.021,0,0,0,1.021-1.021v-2.688a1.021,1.021,0,0,0-1.021-1.021H172.67A1.021,1.021,0,0,0,171.649,307.327Z" transform="translate(-154.376 -294.341)" fill="#ff4155"/>
      <path id="Path_9089" data-name="Path 9089" d="M175.165,310.016v-2.688a1.021,1.021,0,0,1,1.021-1.021H172.67a1.021,1.021,0,0,0-1.021,1.021v2.688a1.021,1.021,0,0,0,1.021,1.021h3.516A1.021,1.021,0,0,1,175.165,310.016Z" transform="translate(-154.376 -294.341)" fill="#e80054"/>
      <path id="Path_9090" data-name="Path 9090" d="M254.748,331.323l0-.009a.361.361,0,0,0-.335-.224h0a.361.361,0,0,0-.335.225l0,.007-.814,2.138a.313.313,0,1,0,.585.223l.126-.331h.876l.124.33a.313.313,0,1,0,.586-.221Zm-.541,1.4.2-.529.2.529Z" transform="translate(-232.776 -318.157)" fill="#e8f4fc"/>
      <path id="Path_9091" data-name="Path 9091" d="M317.842,333.751a.313.313,0,1,0,.512-.36l-.69-.981.583-.827a.313.313,0,1,0-.512-.361l-.453.643-.453-.643a.313.313,0,0,0-.512.36l.582.827-.691.981a.313.313,0,0,0,.512.361l.562-.8Z" transform="translate(-293.232 -318.156)" fill="#e8f4fc"/>
      <path id="Path_9092" data-name="Path 9092" d="M210.823,331.4a.313.313,0,0,0-.313-.313h-1.2a.313.313,0,1,0,0,.626h.283v1.855a.313.313,0,0,0,.626,0v-1.855h.288A.313.313,0,0,0,210.823,331.4Z" transform="translate(-190.267 -318.157)" fill="#e8f4fc"/>
      <g id="Group_4282" data-name="Group 4282" transform="translate(17.38 7.734)">
        <path id="Path_9093" data-name="Path 9093" d="M213.891,198.611h5.429a.313.313,0,0,0,0-.626h-5.429a.313.313,0,0,0,0,.626Z" transform="translate(-212.046 -197.985)" fill="#bec8f7"/>
        <path id="Path_9094" data-name="Path 9094" d="M174.684,229.454h8.492a.313.313,0,0,0,0-.626h-8.492a.313.313,0,0,0,0,.626Z" transform="translate(-174.371 -227.623)" fill="#bec8f7"/>
        <path id="Path_9095" data-name="Path 9095" d="M183.176,259.672h-8.492a.313.313,0,0,0,0,.626h8.492a.313.313,0,0,0,0-.626Z" transform="translate(-174.371 -257.262)" fill="#bec8f7"/>
      </g>
      <path id="Path_9096" data-name="Path 9096" d="M356.97,455.118h-1.1a.313.313,0,0,0,0,.626h1.1a.313.313,0,0,0,0-.626Z" transform="translate(-331.096 -437.34)" fill="#d3dcfb"/>
      <g id="Group_4283" data-name="Group 4283" transform="translate(25.91 4.182)">
        <path id="Path_9097" data-name="Path 9097" d="M392.92,107.072a.167.167,0,0,0-.167.167v1.028a.167.167,0,0,0,.167.167h2.774v-1.363Z" transform="translate(-392.753 -107.072)" fill="#73c3f9"/>
      </g>
      <path id="Path_9098" data-name="Path 9098" d="M394.124,107.753a.681.681,0,0,1,.681-.681H392.92a.167.167,0,0,0-.167.167v1.028a.167.167,0,0,0,.167.167H394.8A.681.681,0,0,1,394.124,107.753Z" transform="translate(-366.843 -102.89)" fill="#4fabf7"/>
      <path id="Path_9099" data-name="Path 9099" d="M117.179,70.945a2.625,2.625,0,0,1,1.856-.769s-1.087.236-1.087,1.935v1.058a.838.838,0,0,1-.838.838h-1.184c-1.608,0-1.809,1.087-1.809,1.087a2.625,2.625,0,0,1,.769-1.856Z" transform="translate(-99.092 -67.435)" fill="#e8f4fc"/>
    </g>
  </g>
</svg>
