<svg xmlns="http://www.w3.org/2000/svg" width="36" height="36" viewBox="0 0 36 36">
  <g id="Government_payments_" data-name="Government payments " transform="translate(-32 -1846)">
    <g id="Ellipse_312" data-name="Ellipse 312" transform="translate(32 1846)" fill="none" stroke="#e7e8ed" stroke-width="1">
      <circle cx="18" cy="18" r="18" stroke="none"/>
      <circle cx="18" cy="18" r="17.5" fill="none"/>
    </g>
    <g id="Government_payments_2" data-name="Government payments " transform="translate(625.18 1767.138)">
      <g id="_073---Government-Advice" data-name="073---Government-Advice" transform="translate(-587.52 83.862)">
        <path id="Shape" d="M-390.34,101.517l-2.828,1.06a.231.231,0,0,0-.151.217.231.231,0,0,0,.151.217l2.828,1.06" transform="translate(402.68 -100.666)" fill="#e54c3c"/>
        <path id="Shape-2" data-name="Shape" d="M-339.922,88.968a.426.426,0,0,1-.426-.426V84.288a.426.426,0,0,1,.426-.426.426.426,0,0,1,.426.426v4.255A.426.426,0,0,1-339.922,88.968Z" transform="translate(352.263 -83.862)" fill="#7f6e5d"/>
        <path id="Shape-3" data-name="Shape" d="M-419.261,185.647l-4.681.851-4.681-.851a4.681,4.681,0,0,1,4.681-4.681A4.681,4.681,0,0,1-419.261,185.647Z" transform="translate(436.283 -176.285)" fill="#cab191"/>
        <path id="Shape-4" data-name="Shape" d="M-451.168,278.92v1.7h-12.766v-1.7a.854.854,0,0,1,.851-.851h11.064A.854.854,0,0,1-451.168,278.92Z" transform="translate(469.891 -268.707)" fill="#a48f78"/>
        <path id="Shape-5" data-name="Shape" d="M-554.862,313.8v7.66h-23.83V313.8a.426.426,0,0,1,.426-.426h22.979A.426.426,0,0,1-554.862,313.8Z" transform="translate(579.118 -302.315)" fill="#cab191"/>
        <path id="Shape-6" data-name="Shape" d="M-459.144,270.206v-4.664a.851.851,0,0,0-.363-.7l-6.2-4.351a.421.421,0,0,0-.483,0l-6.2,4.349a.851.851,0,0,0-.363.7v4.664" transform="translate(478.293 -251.908)" fill="#f4eec9"/>
        <path id="Shape-7" data-name="Shape" d="M-427.772,366.345a.851.851,0,0,1,.851.851v3.83h-1.7V367.2A.851.851,0,0,1-427.772,366.345Z" transform="translate(436.283 -352.728)" fill="#5f5346"/>
        <path id="Shape-8" data-name="Shape" d="M-268.876,366.345a.851.851,0,0,1,.851.851v3.83h-1.7V367.2A.851.851,0,0,1-268.876,366.345Z" transform="translate(285.046 -352.728)" fill="#5f5346"/>
        <path id="Shape-9" data-name="Shape" d="M-348.324,348.69a.851.851,0,0,1,.851.851v4.681h-1.7v-4.681A.851.851,0,0,1-348.324,348.69Z" transform="translate(360.664 -335.924)" fill="#5f5346"/>
        <g id="Group_4287" data-name="Group 4287" transform="translate(1.702 12.766)">
          <path id="Shape-10" data-name="Shape" d="M-551.784,350.392a.426.426,0,0,1-.426-.426v-.851a.426.426,0,0,1,.426-.426.426.426,0,0,1,.426.426v.851A.426.426,0,0,1-551.784,350.392Z" transform="translate(552.21 -348.69)" fill="#464f5d"/>
          <path id="Shape-11" data-name="Shape" d="M-516.474,350.392a.425.425,0,0,1-.425-.426v-.851a.425.425,0,0,1,.425-.426.426.426,0,0,1,.426.426v.851A.426.426,0,0,1-516.474,350.392Z" transform="translate(518.601 -348.69)" fill="#464f5d"/>
          <path id="Shape-12" data-name="Shape" d="M-551.784,403.357a.426.426,0,0,1-.426-.426v-.851a.426.426,0,0,1,.426-.426.426.426,0,0,1,.426.426v.851A.426.426,0,0,1-551.784,403.357Z" transform="translate(552.21 -399.102)" fill="#464f5d"/>
          <path id="Shape-13" data-name="Shape" d="M-516.474,403.357a.426.426,0,0,1-.425-.426v-.851a.425.425,0,0,1,.425-.426.426.426,0,0,1,.426.426v.851A.426.426,0,0,1-516.474,403.357Z" transform="translate(518.601 -399.102)" fill="#464f5d"/>
          <path id="Shape-14" data-name="Shape" d="M-163.37,350.392a.426.426,0,0,1-.426-.426v-.851a.426.426,0,0,1,.426-.426.425.425,0,0,1,.426.426v.851A.426.426,0,0,1-163.37,350.392Z" transform="translate(182.519 -348.69)" fill="#464f5d"/>
          <path id="Shape-15" data-name="Shape" d="M-128.06,350.392a.426.426,0,0,1-.426-.426v-.851a.426.426,0,0,1,.426-.426.426.426,0,0,1,.426.426v.851A.426.426,0,0,1-128.06,350.392Z" transform="translate(148.912 -348.69)" fill="#464f5d"/>
          <path id="Shape-16" data-name="Shape" d="M-163.37,403.357a.426.426,0,0,1-.426-.426v-.851a.426.426,0,0,1,.426-.426.426.426,0,0,1,.426.426v.851A.426.426,0,0,1-163.37,403.357Z" transform="translate(182.519 -399.102)" fill="#464f5d"/>
          <path id="Shape-17" data-name="Shape" d="M-128.06,403.357a.426.426,0,0,1-.426-.426v-.851a.426.426,0,0,1,.426-.426.426.426,0,0,1,.426.426v.851A.426.426,0,0,1-128.06,403.357Z" transform="translate(148.912 -399.102)" fill="#464f5d"/>
        </g>
        <rect id="Rectangle-path" width="24.681" height="1.702" rx="0.851" transform="translate(0 18.298)" fill="#7ecf9d"/>
      </g>
    </g>
  </g>
</svg>
