<svg xmlns="http://www.w3.org/2000/svg" width="36" height="36" viewBox="0 0 36 36">
  <g id="Group_4288" data-name="Group 4288" transform="translate(-32 -910)">
    <g id="Ellipse_294" data-name="Ellipse 294" transform="translate(32 910)" fill="none" stroke="#e7e8ed" stroke-width="1">
      <circle cx="18" cy="18" r="18" stroke="none"/>
      <circle cx="18" cy="18" r="17.5" fill="none"/>
    </g>
    <g id="Group_4255" data-name="Group 4255" transform="translate(449.5 376)">
      <g id="Group_4249" data-name="Group 4249" transform="translate(-410.285 551.289)">
        <path id="Path_8947" data-name="Path 8947" d="M-406,639.19v6.754a2,2,0,0,0,1.962,2.043h16.723a1.76,1.76,0,0,0,.24-.016h0a2.015,2.015,0,0,0,1.72-2.027V639.19" transform="translate(406.269 -638.921)" fill="#9d6b6b"/>
        <path id="Path_8948" data-name="Path 8948" d="M-389.547,646.024h-16.723a2.275,2.275,0,0,1-2.231-2.312v-6.754a.269.269,0,0,1,.269-.269.269.269,0,0,1,.269.269v6.754a1.737,1.737,0,0,0,1.693,1.774h16.723a1.483,1.483,0,0,0,.2-.014l.02,0a1.748,1.748,0,0,0,1.469-1.758v-6.754a.269.269,0,0,1,.269-.269.269.269,0,0,1,.269.269v6.754a2.285,2.285,0,0,1-1.955,2.293l-.017,0A2.053,2.053,0,0,1-389.547,646.024Z" transform="translate(408.5 -636.69)"/>
      </g>
      <path id="Path_8949" data-name="Path 8949" d="M-227.23,629.568h0a.269.269,0,0,1-.269-.269.269.269,0,0,1,.269-.269.269.269,0,0,1,.269.269A.268.268,0,0,1-227.23,629.568Z" transform="translate(-163.323 -78.564)"/>
      <g id="Group_4250" data-name="Group 4250" transform="translate(-404.495 541)">
        <path id="Path_8950" data-name="Path 8950" d="M-343.964,546.586h-.587v-1.935a2.338,2.338,0,0,0-1.97-1.505h-4.3s-1.72.323-1.72,1.72c0,.9.015,1.449.026,1.72h-.633V544.6a2.4,2.4,0,0,1,2.328-2.1h4.877s1.837.645,1.974,2.151C-343.95,545.663-343.958,546.286-343.964,546.586Z" transform="translate(353.311 -542.339)" fill="#9d6b6b"/>
        <path id="Path_8951" data-name="Path 8951" d="M-345.145,545.409h-.906v-2.065a2.161,2.161,0,0,0-1.809-1.376h-4.285c-.167.035-1.575.362-1.575,1.559,0,.928.016,1.472.026,1.714l.007.168h-.962v-2.168A2.58,2.58,0,0,1-352.161,541h4.9l.026.009c.079.028,1.936.7,2.081,2.288v.012c.019.954.014,1.583.007,1.942Zm-.584-.323h.267c.006-.371.007-.947-.009-1.765-.122-1.289-1.631-1.917-1.842-2h-4.848a2.218,2.218,0,0,0-2.167,1.951v1.812h.305c-.009-.293-.02-.8-.02-1.559,0-1.514,1.833-1.875,1.852-1.879l.03,0h4.3a2.473,2.473,0,0,1,2.121,1.609l.011.028Z" transform="translate(354.65 -541)"/>
      </g>
      <g id="Group_4251" data-name="Group 4251" transform="translate(-410.5 545.247)">
        <path id="Path_8952" data-name="Path 8952" d="M-388.995,582.9v2.628a2.373,2.373,0,0,1-.376,1.287,2.391,2.391,0,0,1-2.019,1.109H-408.1a2.391,2.391,0,0,1-2.019-1.109,2.373,2.373,0,0,1-.376-1.287V582.9a2.4,2.4,0,0,1,2.4-2.4h16.714A2.4,2.4,0,0,1-388.995,582.9Z" transform="translate(410.5 -580.5)" fill="#9d6b6b"/>
        <path id="Path_8953" data-name="Path 8953" d="M-391.39,581.038a1.86,1.86,0,0,1,1.858,1.858v2.628a1.843,1.843,0,0,1-.292,1,1.848,1.848,0,0,1-1.566.86H-408.1a1.849,1.849,0,0,1-1.567-.861,1.842,1.842,0,0,1-.291-1V582.9a1.86,1.86,0,0,1,1.858-1.858h16.714m0-.538H-408.1a2.4,2.4,0,0,0-2.4,2.4v2.628a2.373,2.373,0,0,0,.376,1.287,2.391,2.391,0,0,0,2.019,1.109h16.714a2.391,2.391,0,0,0,2.019-1.109,2.373,2.373,0,0,0,.376-1.287V582.9a2.4,2.4,0,0,0-2.4-2.4Z" transform="translate(410.5 -580.5)"/>
      </g>
      <path id="Path_8954" data-name="Path 8954" d="M-384.5,624.005v-.854s.215-.652.753-.652h2a.731.731,0,0,1,.619.753c-.037.645,0,2.867,0,2.867a1.528,1.528,0,0,1-1.684,1.342,1.549,1.549,0,0,1-1.686-1.342Z" transform="translate(-23.204 -72.737)"/>
      <rect id="Rectangle_4090" data-name="Rectangle 4090" width="1.817" height="0.647" transform="translate(-406.952 550.516)" fill="#fceeac"/>
      <path id="Path_8955" data-name="Path 8955" d="M-378.5,641.5h1.925v1.576a.844.844,0,0,1-.884.619,1.333,1.333,0,0,1-1.041-.645Z" transform="translate(-28.559 -89.694)" fill="#ffd064"/>
      <g id="Business" transform="translate(-398.134 549.347)">
        <g id="Group_4252" data-name="Group 4252" transform="translate(0 0)">
          <circle id="Ellipse_293" data-name="Ellipse 293" cx="5.699" cy="5.699" r="5.699" transform="translate(0.108 0.108)" fill="#a8e4ff"/>
          <path id="Path_8956" data-name="Path 8956" d="M-289.694,630.238a5.813,5.813,0,0,1-5.806-5.806,5.813,5.813,0,0,1,5.806-5.806,5.813,5.813,0,0,1,5.806,5.806A5.813,5.813,0,0,1-289.694,630.238Zm0-11.4a5.6,5.6,0,0,0-5.591,5.591,5.6,5.6,0,0,0,5.591,5.591,5.6,5.6,0,0,0,5.591-5.591A5.6,5.6,0,0,0-289.694,618.84Z" transform="translate(295.5 -618.625)"/>
        </g>
        <path id="Path_8957" data-name="Path 8957" d="M-282.795,644.686h-.054a13.881,13.881,0,0,1-2.55-.226,6.757,6.757,0,0,1-2.492-.9l.121-.178a6.647,6.647,0,0,0,2.411.866,13.669,13.669,0,0,0,2.51.222h.054a13.542,13.542,0,0,0,2.661-.262,6.911,6.911,0,0,0,1.979-.685l.106.187a7.126,7.126,0,0,1-2.042.709A13.768,13.768,0,0,1-282.795,644.686Z" transform="translate(288.709 -640.721)"/>
        <path id="Path_8958" data-name="Path 8958" d="M-287.77,690.8l-.121-.178a6.759,6.759,0,0,1,2.492-.9,13.89,13.89,0,0,1,2.55-.225h.054a13.774,13.774,0,0,1,2.7.267,7.127,7.127,0,0,1,2.042.709l-.106.187a6.91,6.91,0,0,0-1.979-.685,13.542,13.542,0,0,0-2.661-.262h-.053a13.665,13.665,0,0,0-2.51.222A6.648,6.648,0,0,0-287.77,690.8Z" transform="translate(288.709 -681.879)"/>
        <path id="Path_8959" data-name="Path 8959" d="M-266.043,630.613c-1.631,0-2.957-2.6-2.957-5.806s1.326-5.806,2.957-5.806,2.957,2.6,2.957,5.806S-264.412,630.613-266.043,630.613Zm0-11.4c-1.512,0-2.742,2.508-2.742,5.591s1.23,5.591,2.742,5.591,2.742-2.508,2.742-5.591S-264.531,619.215-266.043,619.215Z" transform="translate(271.849 -618.96)"/>
        <rect id="Rectangle_4091" data-name="Rectangle 4091" width="0.215" height="11.398" transform="translate(5.699 0.108)"/>
      </g>
    </g>
  </g>
</svg>
