<svg xmlns="http://www.w3.org/2000/svg" width="36" height="36" viewBox="0 0 36 36">
  <g id="salary" transform="translate(-32 -1270)">
    <g id="Ellipse_302" data-name="Ellipse 302" transform="translate(32 1270)" fill="none" stroke="#e7e8ed" stroke-width="1">
      <circle cx="18" cy="18" r="18" stroke="none"/>
      <circle cx="18" cy="18" r="17.5" fill="none"/>
    </g>
    <g id="money" transform="translate(39.497 1265.248)">
      <path id="Path_9029" data-name="Path 9029" d="M20.688,17.6l-6.8-4.951a4.694,4.694,0,0,0-5.524,0L1.555,17.6a2.312,2.312,0,0,0-.9,1.461.457.457,0,0,0,.2.457l7.708,5.142a4.622,4.622,0,0,0,5.127,0l7.707-5.142a.457.457,0,0,0,.2-.457A2.315,2.315,0,0,0,20.688,17.6Z" transform="translate(-0.618 0)" fill="#ffa000"/>
      <path id="Path_9030" data-name="Path 9030" d="M64.464,52.371H79.076a.457.457,0,0,1,.457.457V61.96a.457.457,0,0,1-.457.457H64.464a.457.457,0,0,1-.457-.457V52.828A.457.457,0,0,1,64.464,52.371Z" transform="translate(-61.266 -38.881)" fill="#4caf50"/>
      <g id="Group_4280" data-name="Group 4280" transform="translate(4.567 15.317)">
        <path id="Path_9031" data-name="Path 9031" d="M194.25,120.814c-1.227,0-2.185-.528-2.278-1.255a.457.457,0,1,1,.905-.122v.007c.017.132.518.457,1.37.457.931,0,1.37-.365,1.37-.457,0,0-.016-.287-1.333-.449l-.1-.013c-.667-.081-2.223-.274-2.223-1.37,0-.781.982-1.37,2.283-1.37,1.227,0,2.185.528,2.278,1.254a.457.457,0,0,1-.4.511.463.463,0,0,1-.511-.4c-.017-.132-.518-.457-1.37-.457-.886,0-1.37.342-1.37.457,0,0,.016.287,1.338.448l.091.012c.669.083,2.22.274,2.22,1.37C196.533,120.225,195.551,120.814,194.25,120.814Z" transform="translate(-188.314 -115.334)" fill="#fafafa"/>
        <path id="Path_9032" data-name="Path 9032" d="M235.131,101.43a.457.457,0,0,1-.457-.457v-5.48a.457.457,0,1,1,.913,0v5.48A.457.457,0,0,1,235.131,101.43Z" transform="translate(-229.194 -95.037)" fill="#fafafa"/>
        <path id="Path_9033" data-name="Path 9033" d="M322.29,95.95h-1.827a.457.457,0,1,1,0-.913h1.827a.457.457,0,1,1,0,.913Z" transform="translate(-310.874 -95.037)" fill="#fafafa"/>
        <path id="Path_9034" data-name="Path 9034" d="M108.957,223.95h-1.827a.457.457,0,0,1,0-.913h1.827a.457.457,0,0,1,0,.913Z" transform="translate(-106.674 -217.557)" fill="#fafafa"/>
      </g>
      <path id="Path_9035" data-name="Path 9035" d="M20.971,174.02a.457.457,0,0,0-.7-.3l-7.706,5.141a3.665,3.665,0,0,1-4.116,0L.739,173.724a.457.457,0,0,0-.7.3,2.289,2.289,0,0,0-.036.413v10a2.246,2.246,0,0,0,2.2,2.283h16.6a2.246,2.246,0,0,0,2.2-2.283v-10A2.289,2.289,0,0,0,20.971,174.02Z" transform="translate(0 -154.965)" fill="#ffc107"/>
    </g>
  </g>
</svg>
