<svg xmlns="http://www.w3.org/2000/svg" xmlns:xlink="http://www.w3.org/1999/xlink" width="36" height="36" viewBox="0 0 36 36">
  <defs>
    <clipPath id="clip-path">
      <rect id="Rectangle_4138" data-name="Rectangle 4138" width="20" height="20"/>
    </clipPath>
  </defs>
  <g id="Group_4315" data-name="Group 4315" transform="translate(-474 -212)">
    <g id="a" transform="translate(482 221)" clip-path="url(#clip-path)">
      <path id="Path_9253" data-name="Path 9253" d="M12.841,8.312a9.72,9.72,0,0,0-1.6,1.346C11.17,7.3,10.6,4.25,7.479,2.758,6.861-.608-.35,1.1.3,1.427c1.286.65,1.969,2.3,2.8,3.175,1.466,1.551,3.1,1.647,3.92.433,1.927,1.252,2.054,3.627,2,6.165-.007.281-.013.542-.013.779v7.778c0,.613,2.222.613,2.222,0V13.374a10.472,10.472,0,0,1,2.461-2.941c.881.774,2.3.527,3.591-.831.827-.871,1.274-2.524,2.559-3.175.678-.343-7.112-2.219-6.994,1.884Z" transform="translate(-0.113 -0.313)" fill="#77b255"/>
      <rect id="Rectangle_4137" data-name="Rectangle 4137" width="20" height="20" fill="rgba(0,0,0,0)"/>
    </g>
    <g id="Ellipse_345" data-name="Ellipse 345" transform="translate(474 212)" fill="none" stroke="#e7e8ed" stroke-width="1">
      <circle cx="18" cy="18" r="18" stroke="none"/>
      <circle cx="18" cy="18" r="17.5" fill="none"/>
    </g>
  </g>
</svg>
