<svg xmlns="http://www.w3.org/2000/svg" width="36" height="36" viewBox="0 0 36 36">
  <g id="Payment" transform="translate(-32 -1558)">
    <g id="Ellipse_308" data-name="Ellipse 308" transform="translate(32 1558)" fill="none" stroke="#e7e8ed" stroke-width="1">
      <circle cx="18" cy="18" r="18" stroke="none"/>
      <circle cx="18" cy="18" r="17.5" fill="none"/>
    </g>
    <g id="cash-payment" transform="translate(25.834 1534)">
      <g id="Group_4257" data-name="Group 4257" transform="translate(18.571 33.071)">
        <path id="Path_8971" data-name="Path 8971" d="M135.544,56a1.429,1.429,0,0,0-1.01.418l-3.867,3.867v3.571h10.714a2.143,2.143,0,0,0,2.143-2.143h1.429V56Z" transform="translate(-130.667 -56)" fill="#f0915a"/>
      </g>
      <g id="Group_4258" data-name="Group 4258" transform="translate(32.857 32)">
        <path id="Path_8972" data-name="Path 8972" d="M452.81,39.857V32h-1.071a1.071,1.071,0,0,0-1.071,1.071v5.714a1.071,1.071,0,0,0,1.071,1.071Z" transform="translate(-450.667 -32)" fill="#555a6e"/>
      </g>
      <g id="Group_4259" data-name="Group 4259" transform="translate(33.928 35.929)">
        <path id="Path_8973" data-name="Path 8973" d="M474.667,120.714v3.214h1.071V120h-.357A.714.714,0,0,0,474.667,120.714Z" transform="translate(-474.667 -120)" fill="#463c4b"/>
      </g>
      <g id="Group_4260" data-name="Group 4260" transform="translate(16.428 34.857)">
        <path id="Path_8974" data-name="Path 8974" d="M98.381,104.214v-7.5A.714.714,0,0,0,97.667,96H83.381a.714.714,0,0,0-.714.714v7.5a.714.714,0,0,0,.714.714H97.667A.714.714,0,0,0,98.381,104.214Z" transform="translate(-82.667 -96)" fill="#78af41"/>
      </g>
      <g id="Group_4261" data-name="Group 4261" transform="translate(17.5 35.929)">
        <path id="Path_8975" data-name="Path 8975" d="M106.667,125.357v-3.929a.357.357,0,0,1,.357-.357.714.714,0,0,0,.714-.714A.357.357,0,0,1,108.1,120H118.81a.357.357,0,0,1,.357.357.714.714,0,0,0,.714.714.357.357,0,0,1,.357.357v3.929a.357.357,0,0,1-.357.357.714.714,0,0,0-.714.714.357.357,0,0,1-.357.357H108.1a.357.357,0,0,1-.357-.357.714.714,0,0,0-.714-.714A.357.357,0,0,1,106.667,125.357Z" transform="translate(-106.667 -120)" fill="#466932"/>
      </g>
      <g id="Group_4262" data-name="Group 4262" transform="translate(21.607 36.643)">
        <circle id="Ellipse_298" data-name="Ellipse 298" cx="2.679" cy="2.679" r="2.679" transform="translate(0 0)" fill="#78af41"/>
      </g>
      <g id="Group_4263" data-name="Group 4263" transform="translate(21.724 33.071)">
        <path id="Path_8976" data-name="Path 8976" d="M204.865,56.418,201.5,59.781a.714.714,0,0,0,0,1.01l.123.123a2.143,2.143,0,0,0,3.03,0L206,59.571h2.857A2.143,2.143,0,0,0,211,57.429V56h-5.123A1.429,1.429,0,0,0,204.865,56.418Z" transform="translate(-201.294 -56)" fill="#fab991"/>
      </g>
      <g id="Group_4264" data-name="Group 4264" transform="translate(22.023 35.81)">
        <path id="Path_8977" data-name="Path 8977" d="M208,118.286a1.094,1.094,0,0,0,1.548,0,.253.253,0,0,0,0-.357l-.6-.6Z" transform="translate(-208 -117.334)" fill="#f0915a"/>
      </g>
      <g id="Group_4265" data-name="Group 4265" transform="translate(18.452 45.571)">
        <path id="Path_8978" data-name="Path 8978" d="M133.833,336h-3.218a1.428,1.428,0,0,0-1.01.418L128,338.024l2.024,2.024.981-.981a.714.714,0,0,1,.505-.209h2.323a1.429,1.429,0,1,0,0-2.857Z" transform="translate(-128 -336)" fill="#fab991"/>
      </g>
      <g id="Group_4266" data-name="Group 4266" transform="translate(20.476 45.214)">
        <path id="Path_8979" data-name="Path 8979" d="M183.614,328.314a1.071,1.071,0,0,0-1.515,0l-2.9,2.9h-4.379a.714.714,0,0,0-.505.209l-.981.981,1.548,1.548.6-.6h4.167a1.072,1.072,0,0,0,.758-.314l3.214-3.214A1.072,1.072,0,0,0,183.614,328.314Z" transform="translate(-173.333 -328)" fill="#f0915a"/>
      </g>
      <g id="Group_4267" data-name="Group 4267" transform="translate(13.333 47.386)">
        <path id="Path_8980" data-name="Path 8980" d="M21.9,381.261H13.333l4.509-4.509a.357.357,0,0,1,.505,0l3.781,3.781a.357.357,0,0,1,0,.505Z" transform="translate(-13.333 -376.647)" fill="#555a6e"/>
      </g>
      <g id="Group_4268" data-name="Group 4268" transform="translate(18.095 49.619)">
        <path id="Path_8981" data-name="Path 8981" d="M122.381,426.667,120,429.048h3.81l.224-.224a.357.357,0,0,0,0-.505Z" transform="translate(-120 -426.667)" fill="#463c4b"/>
      </g>
      <g id="Group_4269" data-name="Group 4269" transform="translate(23.571 46.286)">
        <path id="Path_8982" data-name="Path 8982" d="M243.381,353.429h-.357a.357.357,0,0,1-.357-.357v-.714a.357.357,0,0,1,.357-.357h.357a.714.714,0,1,1,0,1.429Z" transform="translate(-242.667 -352)" fill="#f0915a"/>
      </g>
    </g>
  </g>
</svg>
