<svg xmlns="http://www.w3.org/2000/svg" xmlns:xlink="http://www.w3.org/1999/xlink" width="36" height="36" viewBox="0 0 36 36">
  <defs>
    <clipPath id="clip-path">
      <rect id="Rectangle_4128" data-name="Rectangle 4128" width="20" height="20"/>
    </clipPath>
  </defs>
  <g id="Group_4310" data-name="Group 4310" transform="translate(-504 -442)">
    <g id="Ellipse_339" data-name="Ellipse 339" transform="translate(504 442)" fill="none" stroke="#e7e8ed" stroke-width="1">
      <circle cx="18" cy="18" r="18" stroke="none"/>
      <circle cx="18" cy="18" r="17.5" fill="none"/>
    </g>
    <g id="a" transform="translate(512 450)" clip-path="url(#clip-path)">
      <path id="Path_9228" data-name="Path 9228" d="M19.667,21.667a2.229,2.229,0,0,1-2.222,2.222H5.222A2.229,2.229,0,0,1,3,21.667V12.222A2.229,2.229,0,0,1,5.222,10H17.444a2.229,2.229,0,0,1,2.222,2.222Z" transform="translate(-1.333 -4.444)" fill="#fdd888"/>
      <path id="Path_9229" data-name="Path 9229" d="M20,9.222a2.229,2.229,0,0,1-2.222,2.222H2.222A2.222,2.222,0,1,1,2.222,7H17.778A2.229,2.229,0,0,1,20,9.222Z" transform="translate(0 -3.111)" fill="#fdd888"/>
      <path id="Path_9230" data-name="Path 9230" d="M3,15H19.667v1.111H3Z" transform="translate(-1.333 -6.667)" fill="#fcab40"/>
      <path id="Path_9231" data-name="Path 9231" d="M16.778,3H15.667A1.667,1.667,0,0,0,14,4.667V20.778h4.444V4.667A1.667,1.667,0,0,0,16.778,3Z" transform="translate(-6.222 -1.333)" fill="#da2f47"/>
      <path id="Path_9232" data-name="Path 9232" d="M11,4.246c.611,0,.7-.287.2-.637L7.471.994a1,1,0,0,0-1.462.327l-1.12,1.96c-.3.531-.051.964.56.964Zm2.222,0c-.611,0-.7-.287-.2-.637L16.761.994a1,1,0,0,1,1.462.327l1.12,1.959c.3.531.051.965-.561.965Z" transform="translate(-2.116 -0.357)" fill="#da2f47"/>
      <rect id="Rectangle_4127" data-name="Rectangle 4127" width="20" height="20" fill="rgba(0,0,0,0)"/>
    </g>
  </g>
</svg>
