<svg xmlns="http://www.w3.org/2000/svg" xmlns:xlink="http://www.w3.org/1999/xlink" width="36" height="36" viewBox="0 0 36 36">
  <defs>
    <clipPath id="clip-path">
      <rect id="Rectangle_4122" data-name="Rectangle 4122" width="20" height="20"/>
    </clipPath>
  </defs>
  <g id="Group_4309" data-name="Group 4309" transform="translate(-501 -250)">
    <g id="a" transform="translate(509 258)" clip-path="url(#clip-path)">
      <path id="Path_9206" data-name="Path 9206" d="M9.222,26.556c0,1.227-.439,2.222-1.667,2.222H3.667c-2.222,0-2.222-7.778,0-7.778H7.556c1.227,0,1.667,1,1.667,2.222Z" transform="translate(-0.889 -9.333)" fill="#553788"/>
      <path id="Path_9207" data-name="Path 9207" d="M22,27.667h-.556V22.111H22A.556.556,0,1,0,22,21H8.667c-2.222,0-2.222,7.778,0,7.778H22a.556.556,0,1,0,0-1.111Z" transform="translate(-3.111 -9.333)" fill="#9266cc"/>
      <path id="Path_9208" data-name="Path 9208" d="M23.207,28.556H10.333c-1.111,0-1.111-5.556,0-5.556H23.207C23.82,23,23.82,28.556,23.207,28.556Z" transform="translate(-4.222 -10.222)" fill="#ccd6dd"/>
      <path id="Path_9209" data-name="Path 9209" d="M10.611,24.111H23.584c-.075-.653-.2-1.111-.377-1.111H10.334c-.917,0-1.077,3.782-.479,5.1C9.636,26.461,9.889,24.111,10.611,24.111Z" transform="translate(-4.223 -10.222)" fill="#99aab5"/>
      <path id="Path_9210" data-name="Path 9210" d="M7.111,4.889A2.222,2.222,0,0,1,4.889,7.111H2.667C.444,7.111.444,1,2.667,1H4.889A2.222,2.222,0,0,1,7.111,3.222Z" transform="translate(-0.444 -0.444)" fill="#269"/>
      <path id="Path_9211" data-name="Path 9211" d="M19,6h-.556V2.111H19A.556.556,0,0,0,19,1H5.667c-2.222,0-2.222,6.111,0,6.111H19A.556.556,0,0,0,19,6Z" transform="translate(-1.778 -0.444)" fill="#55acee"/>
      <path id="Path_9212" data-name="Path 9212" d="M20.207,6.889H7.333C6.222,6.889,6.222,3,7.333,3H20.207C20.82,3,20.82,6.889,20.207,6.889Z" transform="translate(-2.889 -1.333)" fill="#ccd6dd"/>
      <path id="Path_9213" data-name="Path 9213" d="M7.336,4.111H20.627C20.564,3.486,20.425,3,20.209,3H7.336c-.663,0-.927,1.383-.8,2.5C6.624,4.746,6.887,4.111,7.336,4.111Z" transform="translate(-2.891 -1.333)" fill="#99aab5"/>
      <path id="Path_9214" data-name="Path 9214" d="M12.444,14.778A2.222,2.222,0,0,1,10.222,17H4.667c-2.222,0-2.222-5,0-5h5.556a2.222,2.222,0,0,1,2.222,2.222Z" transform="translate(-1.333 -5.333)" fill="#f4900c"/>
      <path id="Path_9215" data-name="Path 9215" d="M24.778,15.889h-.556V13.111h.556a.556.556,0,0,0,0-1.111H13.667c-2.222,0-2.222,5,0,5H24.778a.556.556,0,0,0,0-1.111Z" transform="translate(-5.333 -5.333)" fill="#ffac33"/>
      <path id="Path_9216" data-name="Path 9216" d="M25.984,16.778H15.333c-1.111,0-1.111-2.778,0-2.778H25.984C26.6,14,26.6,16.778,25.984,16.778Z" transform="translate(-6.444 -6.222)" fill="#ccd6dd"/>
      <path id="Path_9217" data-name="Path 9217" d="M15.335,15.111h11.1C26.4,14.521,26.252,14,25.986,14H15.335c-.708,0-.963,1.126-.768,1.944C14.677,15.478,14.932,15.111,15.335,15.111Z" transform="translate(-6.446 -6.222)" fill="#99aab5"/>
      <rect id="Rectangle_4121" data-name="Rectangle 4121" width="20" height="20" fill="rgba(0,0,0,0)"/>
    </g>
    <g id="Ellipse_332" data-name="Ellipse 332" transform="translate(501 250)" fill="none" stroke="#e7e8ed" stroke-width="1">
      <circle cx="18" cy="18" r="18" stroke="none"/>
      <circle cx="18" cy="18" r="17.5" fill="none"/>
    </g>
  </g>
</svg>
