<svg xmlns="http://www.w3.org/2000/svg" xmlns:xlink="http://www.w3.org/1999/xlink" width="36" height="36" viewBox="0 0 36 36">
  <defs>
    <clipPath id="clip-path">
      <rect id="Rectangle_4144" data-name="Rectangle 4144" width="20" height="20"/>
    </clipPath>
  </defs>
  <g id="Group_4318" data-name="Group 4318" transform="translate(-471 -416)">
    <g id="Ellipse_351" data-name="Ellipse 351" transform="translate(471 416)" fill="none" stroke="#e7e8ed" stroke-width="1">
      <circle cx="18" cy="18" r="18" stroke="none"/>
      <circle cx="18" cy="18" r="17.5" fill="none"/>
    </g>
    <g id="a" transform="translate(479 423)" clip-path="url(#clip-path)">
      <path id="Path_9260" data-name="Path 9260" d="M19.778,28.556a1.111,1.111,0,0,1-1.111,1.111H17a1.111,1.111,0,0,1-1.111-1.111V24.111A1.111,1.111,0,0,1,17,23h1.667a1.111,1.111,0,0,1,1.111,1.111Zm-13.889,0a1.111,1.111,0,0,1-1.111,1.111H3.111A1.111,1.111,0,0,1,2,28.556V24.111A1.111,1.111,0,0,1,3.111,23H4.778a1.111,1.111,0,0,1,1.111,1.111Z" transform="translate(-0.889 -10.222)" fill="#292f33"/>
      <path id="Path_9261" data-name="Path 9261" d="M5.889,4.667a30.208,30.208,0,0,1,10,0c2.156.539,2.778,6.111,2.778,6.111s1.111,0,1.111,2.222v4.444a2.6,2.6,0,0,1-2.222,2.222,24.9,24.9,0,0,1-6.667.556,24.9,24.9,0,0,1-6.667-.556A2.6,2.6,0,0,1,2,17.444V13s0-2.222,1.111-2.222C3.111,10.778,3.733,5.206,5.889,4.667Z" transform="translate(-0.889 -1.889)" fill="#3b88c3"/>
      <path id="Path_9262" data-name="Path 9262" d="M12.667,11.444c2.169,0,4.791.111,6.667.312l-.556-3.089C18.222,7,14.889,7,12.667,7S7.111,7,6.556,8.667L6,11.756C7.876,11.556,10.5,11.444,12.667,11.444Z" transform="translate(-2.667 -3.111)" fill="#bbddf5"/>
      <path id="Path_9263" data-name="Path 9263" d="M2.778,14.833a.833.833,0,0,1-.833.833H.833A.833.833,0,1,1,.833,14H1.944a.833.833,0,0,1,.834.833Zm14.444,0a.833.833,0,0,0,.833.833h1.111a.833.833,0,1,0,0-1.667h-1.11a.833.833,0,0,0-.834.834Z" transform="translate(0 -6.222)" fill="#3b88c3"/>
      <path id="Path_9264" data-name="Path 9264" d="M7.889,21.667a1.667,1.667,0,0,1-1.667,1.667H5.667a1.667,1.667,0,0,1,0-3.333h.556A1.667,1.667,0,0,1,7.889,21.667Zm11.667,0a1.667,1.667,0,0,1-1.667,1.667h-.556a1.667,1.667,0,1,1,0-3.333h.556a1.667,1.667,0,0,1,1.667,1.666Z" transform="translate(-1.778 -8.889)" fill="#ffcc4d"/>
      <path id="Path_9265" data-name="Path 9265" d="M8.445,19.333a.556.556,0,0,1-.463-.247C7.014,17.634,4.471,17.1,4.446,17.1a.556.556,0,1,1,.218-1.089c.123.024,3.017.622,4.242,2.459a.556.556,0,0,1-.462.863Zm6.666,0a.556.556,0,0,1-.462-.864c1.224-1.837,4.119-2.434,4.242-2.459a.556.556,0,1,1,.219,1.09c-.026,0-2.568.533-3.536,1.986a.556.556,0,0,1-.463.248Z" transform="translate(-1.777 -7.111)" fill="#269"/>
      <path id="Path_9266" data-name="Path 9266" d="M11.774,27.663c-3.146,0-7.022-.125-7.615-.718a.555.555,0,0,1,.7-.853c.129.056,1.269.461,6.911.461s6.782-.4,6.911-.461a.555.555,0,0,1,.7.853C18.8,27.538,14.92,27.663,11.774,27.663Z" transform="translate(-1.774 -11.552)" fill="#55acee"/>
      <path id="Path_9267" data-name="Path 9267" d="M18.778,29.249c0,.833-1.741,1.389-3.889,1.389S11,30.083,11,29.249c0-.46,1.741-.278,3.889-.278S18.778,28.789,18.778,29.249Z" transform="translate(-4.889 -12.86)" fill="#269"/>
      <rect id="Rectangle_4143" data-name="Rectangle 4143" width="20" height="20" fill="rgba(0,0,0,0)"/>
    </g>
  </g>
</svg>
