<?xml version="1.0" encoding="utf-8"?>
<!-- Generator: Adobe Illustrator 24.1.1, SVG Export Plug-In . SVG Version: 6.00 Build 0)  -->
<svg version="1.1" id="Layer_1" xmlns="http://www.w3.org/2000/svg" xmlns:xlink="http://www.w3.org/1999/xlink" x="0px" y="0px"
	 viewBox="0 0 12.8 20.3" style="enable-background:new 0 0 12.8 20.3;" xml:space="preserve">
<g id="saving" transform="translate(-870.842 -553.85)">
	<g id="Group_3931">
		<g id="Layer_2_1_" transform="translate(870.875 553.87)">
			<g id="Layer_1_1_">
				<g id="conical-flask">
					<g id="Path_7968">
						<path d="M10.1,20.3H2.6c-0.3,0-0.5,0-0.8-0.1l0,0c-0.6-0.2-1.2-0.7-1.5-1.3s-0.4-1.3-0.1-2L3.6,6.5v-4c-0.5-0.1-1-0.6-1-1.2
							C2.6,0.6,3.2,0,3.9,0h5c0.6,0,1.1,0.5,1.2,1.1c0,0.3,0,0.7-0.2,0.9C9.7,2.2,9.4,2.4,9.2,2.5v4l3.5,10.4
							c0.1,0.3,0.1,0.5,0.1,0.8C12.7,19.1,11.6,20.3,10.1,20.3z M1.8,19.8L1.8,19.8C2.1,19.9,2.3,20,2.6,20h7.6c1.3,0,2.3-1,2.3-2.3
							c0-0.2,0-0.5-0.1-0.7L8.8,6.5V2.2l0.1,0c0.3,0,0.5-0.2,0.6-0.4s0.2-0.5,0.2-0.7C9.7,0.6,9.3,0.3,8.9,0.3h-5
							c-0.5,0-1,0.4-0.9,1c0,0.5,0.4,0.9,0.8,0.9l0.1,0l0,4.3L0.4,17c-0.2,0.6-0.1,1.2,0.1,1.7C0.8,19.2,1.2,19.7,1.8,19.8z
							 M3.8,1.6c-0.2,0-0.4-0.2-0.4-0.4v0c0-0.2,0.2-0.4,0.4-0.4h5C9,0.9,9.2,1,9.2,1.2l0,0c0,0.2-0.2,0.4-0.4,0.4H3.8z M3.7,1.2
							C3.8,1.3,3.8,1.3,3.7,1.2l5.1,0.1c0,0,0.1,0,0.1-0.1l0,0c0,0,0,0-0.1,0L3.7,1.2C3.8,1.1,3.8,1.2,3.7,1.2z"/>
					</g>
					<g id="Path_7969">
						<path d="M8.8,16.9L8.8,16.9c-0.1-0.1-0.1-0.1-0.2-0.1H4c-0.1,0-0.2,0-0.2-0.1c-0.1-0.1-0.1-0.2,0-0.3l1-3.2l0.1,0
							c0.5,0.2,1,0.1,1.4-0.2c0.2-0.2,0.5-0.2,0.8-0.2c0.2,0,0.5,0.1,0.7,0.2l0,0l0,0l1.1,3.4c0,0.1,0,0.2,0,0.2L8.8,16.9z
							 M4.9,13.6l-1,3l-0.1,0.1L4,16.6c0,0,0,0,0,0h4.7l0,0l-1.1-3.3c-0.1-0.1-0.3-0.2-0.5-0.2c-0.2,0-0.4,0-0.6,0.2
							C6.1,13.6,5.5,13.7,4.9,13.6z"/>
					</g>
				</g>
			</g>
		</g>
	</g>
</g>
</svg>
