<?xml version="1.0" encoding="utf-8"?>
<!-- Generator: Adobe Illustrator 24.3.0, SVG Export Plug-In . SVG Version: 6.00 Build 0)  -->
<svg version="1.1" id="Layer_1" xmlns="http://www.w3.org/2000/svg" xmlns:xlink="http://www.w3.org/1999/xlink" x="0px" y="0px"
	 viewBox="0 0 24 19.4" style="enable-background:new 0 0 24 19.4;" xml:space="preserve">
<g id="wallet_1_" transform="translate(-2 -53)">
	<path id="Xac_gradient_3x" class="st0" d="M19.8,59.2c-1,0-1.7,0.8-1.8,1.7V62c0,1,0.8,1.7,1.8,1.7h4.1v-4.6L19.8,59.2z M20.9,62.3
		c-0.5,0-0.9-0.4-0.8-0.9c0-0.5,0.4-0.9,0.9-0.8c0.5,0,0.8,0.4,0.8,0.9C21.8,61.9,21.4,62.3,20.9,62.3
		C20.9,62.3,20.9,62.3,20.9,62.3z M22.6,53H5c-1.6,0-3,1.3-3,3v14.3c0,1.2,1,2.1,2.1,2.1h17.6c1.2,0,2.1-0.9,2.1-2.1v-5.7h-4.1
		c-1.4,0-2.6-1.1-2.6-2.6v-1.2c0-1.4,1.2-2.6,2.6-2.6h4.1v-1.5c0-0.9-0.8-1.7-1.7-1.7c0,0,0,0,0,0H4.6c-0.2,0-0.4-0.2-0.4-0.4
		c0-0.2,0.2-0.4,0.4-0.4h17.6c1.4,0,2.6,1.1,2.6,2.5v13c0.8-0.5,1.3-1.5,1.3-2.4v-11C26,54.5,24.4,53,22.6,53
		C22.6,53,22.6,53,22.6,53z M19.8,59.2c-1,0-1.7,0.8-1.8,1.7V62c0,1,0.8,1.7,1.8,1.7h4.1v-4.6L19.8,59.2z M20.9,62.3
		c-0.5,0-0.9-0.4-0.8-0.9c0-0.5,0.4-0.9,0.9-0.8c0.5,0,0.8,0.4,0.8,0.9C21.8,61.9,21.4,62.3,20.9,62.3
		C20.9,62.3,20.9,62.3,20.9,62.3z M19.8,59.2c-1,0-1.7,0.8-1.8,1.7V62c0,1,0.8,1.7,1.8,1.7h4.1v-4.6L19.8,59.2z M20.9,62.3
		c-0.5,0-0.9-0.4-0.8-0.9c0-0.5,0.4-0.9,0.9-0.8c0.5,0,0.8,0.4,0.8,0.9C21.8,61.9,21.4,62.3,20.9,62.3
		C20.9,62.3,20.9,62.3,20.9,62.3z" fill="#E17000"/>
</g>
</svg>
