<?xml version="1.0" encoding="utf-8"?>
<!-- Generator: Adobe Illustrator 24.3.0, SVG Export Plug-In . SVG Version: 6.00 Build 0)  -->
<svg version="1.1" id="Layer_1" xmlns="http://www.w3.org/2000/svg" xmlns:xlink="http://www.w3.org/1999/xlink" x="0px" y="0px"
	 viewBox="0 0 28.8 31.1" style="enable-background:new 0 0 28.8 31.1;" xml:space="preserve">
<style type="text/css">
	.st0{fill:#E17000;}
</style>
<g id="Group_1548" transform="translate(-1030.657 -457.102)">
	<path id="Subtraction_53" class="st0" d="M1051.7,488.2c-4.3,0-7.8-3.5-7.8-7.8c0-4.3,3.5-7.8,7.8-7.8c4.3,0,7.8,3.5,7.8,7.8
		c0,0,0,0,0,0C1059.5,484.7,1056,488.2,1051.7,488.2z M1050.4,483.7v1.9h2v-3.4l1.1-0.8v-0.9l-1.1,0.8v-0.6l1.1-0.8v-1l-1.1,0.8
		v-1.5h2.6v-1.7h-7.2v1.7h2.6v2.9l-1.1,0.8v0.9l1.1-0.8v0.6l-1.1,0.8v1L1050.4,483.7L1050.4,483.7z"/>
	<g id="Group_1547">
		<path id="Path_8903" class="st0" d="M1041.7,466.9C1041.7,466.9,1041.8,467,1041.7,466.9l5.7,0.1c0,0,0.1-0.1,0.1-0.1
			c2.4-1.6,3.1-4.9,1.4-7.4c-1.6-2.4-4.9-3.1-7.4-1.4c-1.5,1-2.4,2.6-2.3,4.4c0,0.1,0,0.2,0,0.4
			C1039.4,464.5,1040.3,466,1041.7,466.9z"/>
		<path id="Path_8904" class="st0" d="M1044.6,457.1L1044.6,457.1z"/>
		<path id="Path_8905" class="st0" d="M1051.7,470.5c0.8,0,1.7,0.1,2.5,0.3c-0.1-0.2-0.1-0.3-0.2-0.5l-0.4-0.8
			c-0.9-1.4-2-2.5-3.4-3.4c-0.2,0.3-0.4,0.6-0.7,0.9h0.6c0.3,0,0.6,0.3,0.6,0.6c0,0.3-0.3,0.6-0.6,0.6h-10.7c-0.3,0-0.6-0.3-0.6-0.6
			c0-0.3,0.3-0.6,0.6-0.6c0,0,0,0,0,0h0.6c-1-1-1.6-2.3-1.8-3.6c-0.5-0.2-1.1-0.3-1.6-0.3h0c0,0.2,0.1,1.1,0.1,1.6l0.2,1.5
			c0,0,0,0,0,0.1c0,0.2-0.1,0.4-0.2,0.5c0,0,0,0-0.1,0c-1.2,0.9-2.1,2-2.8,3.3c0,0.1-0.1,0.1-0.1,0.2c-0.1,0.1-0.3,0.2-0.4,0.2
			l-2,0.4c-0.3,0.1-0.5,0.3-0.5,0.7v4c0,0.3,0.2,0.6,0.5,0.7l2,0.4c0.2,0,0.3,0.1,0.4,0.2c0,0,0.1,0.1,0.1,0.2
			c0.4,0.8,0.9,1.5,1.4,2.1c0.1,0.1,0.1,0.2,0.1,0.3c0,0.2,0,0.4-0.1,0.5c-0.6,1.2-0.3,2.6,0.8,3.5c0.6,0.5,1.5,0.8,2.3,0.7
			c0.8,0,1.6-0.4,2.3-0.9l0.6-0.6c0.1-0.1,0.3-0.2,0.5-0.2c0,0,0.1,0,0.1,0c0.1,0,0.1,0,0.2,0c-1.1-5.3,2.3-10.6,7.6-11.7
			C1050.3,470.5,1051,470.5,1051.7,470.5L1051.7,470.5z M1039.5,471.9c0,0.9-0.7,1.6-1.6,1.6l0,0c-0.9,0-1.6-0.7-1.6-1.6
			c0-0.9,0.7-1.6,1.6-1.6C1038.8,470.3,1039.5,471.1,1039.5,471.9L1039.5,471.9L1039.5,471.9z"/>
	</g>
</g>
</svg>
