<?xml version="1.0" encoding="utf-8"?>
<!-- Generator: Adobe Illustrator 24.3.0, SVG Export Plug-In . SVG Version: 6.00 Build 0)  -->
<svg version="1.1" id="Layer_1" xmlns="http://www.w3.org/2000/svg" xmlns:xlink="http://www.w3.org/1999/xlink" x="0px" y="0px"
	 viewBox="0 0 24 27" style="enable-background:new 0 0 24 27;" xml:space="preserve">
<g id="piggy-bank" transform="translate(0 -17.614)">
	<g id="Group_1058" transform="translate(8.617 17.614)">
		<g id="Group_1057" transform="translate(0 0)">
			<path id="Path_5874" class="st0" d="M5.3,0C2.4,0,0,2.4,0,5.3c0,0.1,0,0.2,0,0.4c0.1,1.7,1,3.2,2.4,4.1c0,0,0.1,0.1,0.1,0.1h5.6
				c0,0,0.1-0.1,0.1-0.1c2.4-1.6,3.1-4.9,1.4-7.4C8.7,0.9,7.1,0,5.3,0L5.3,0z" fill="#E17000"/>
		</g>
	</g>
	<g id="Group_1060" transform="translate(0 23.496)">
		<g id="Group_1059" transform="translate(0 0)">
			<path id="Path_5875" class="st0" d="M24,10.5V10c-0.1-1-0.3-1.9-0.8-2.7l-0.4-0.8c-0.9-1.4-2-2.5-3.4-3.4
				c-0.2,0.3-0.4,0.6-0.7,0.9h0.6c0.3,0,0.6,0.3,0.6,0.6c0,0.3-0.3,0.6-0.6,0.6l0,0H8.6C8.3,5.2,8,4.9,8,4.6C8,4.3,8.3,4,8.6,4h0.6
				c-1-1-1.6-2.3-1.8-3.6C6.9,0.1,6.4,0,5.8,0h0c0,0.2,0.1,1.1,0.1,1.6l0.2,1.5c0,0,0,0,0,0.1c0,0.2-0.1,0.4-0.2,0.5c0,0,0,0-0.1,0
				C4.7,4.6,3.7,5.7,3.1,7C3,7.1,3,7.1,3,7.2C2.8,7.3,2.7,7.4,2.5,7.4l-2,0.4C0.2,7.9,0,8.2,0,8.5v4c0,0.3,0.2,0.6,0.5,0.7l2,0.4
				c0.2,0,0.3,0.1,0.4,0.2c0,0,0.1,0.1,0.1,0.2c0.4,0.8,0.9,1.5,1.4,2.1c0.1,0.1,0.1,0.2,0.1,0.3c0,0.2,0,0.4-0.1,0.5
				c-0.6,1.2-0.3,2.6,0.8,3.5c0.6,0.5,1.5,0.8,2.3,0.7c0.8,0,1.6-0.4,2.3-0.9l0.6-0.6c0.1-0.1,0.3-0.2,0.5-0.2c0,0,0.1,0,0.1,0
				c1.6,0.3,3.3,0.2,4.8-0.2c0,0,0.1,0,0.1,0c0.2,0,0.4,0.1,0.5,0.2l0.8,0.8c0.6,0.6,1.4,0.9,2.3,0.9h0.1c0.9,0,1.7-0.4,2.3-1
				c1-1.1,1-2.7,0.1-3.8c0,0,0-0.1-0.1-0.1c-0.1-0.3-0.1-0.6,0.1-0.8C23.4,14,24,12.3,24,10.5z M7.3,10.5c-0.9,0-1.6-0.7-1.6-1.6
				c0-0.9,0.7-1.6,1.6-1.6c0.9,0,1.6,0.7,1.6,1.6c0,0,0,0,0,0C8.9,9.8,8.2,10.5,7.3,10.5C7.3,10.5,7.3,10.5,7.3,10.5z" fill="#E17000"/>
		</g>
	</g>
</g>
</svg>
