<svg xmlns="http://www.w3.org/2000/svg" width="40" height="40" viewBox="0 0 40 40">
  <g id="Group_4274" data-name="Group 4274" transform="translate(-980 -278.808)">
    <path id="Path_8927" data-name="Path 8927" d="M1000,278.808a20,20,0,1,0,20,20A20,20,0,0,0,1000,278.808Zm5.5,8.265h2.751a.687.687,0,0,1,.687.687v2.75a.688.688,0,0,1-1.375,0v-2.059H1005.5l0,0h-.053a.688.688,0,1,1,.053-1.375Zm-14.437.687a.688.688,0,0,1,.684-.687H994.5a.688.688,0,0,1,0,1.375h-2.063v2.062a.686.686,0,1,1-1.372,0Zm3.435,22.785h-2.75a.688.688,0,0,1-.688-.688v-2.75a.688.688,0,0,1,1.375,0v2.065H994.5v0h.053a.688.688,0,1,1-.053,1.375Zm14.441-.686a.688.688,0,0,1-.688.688H1005.5a.465.465,0,0,1-.053,0,.688.688,0,0,1,.053-1.375h2.061V307.11a.689.689,0,0,1,.688-.688l0,0a.689.689,0,0,1,.688.689Zm2.109-14.533h-6.271a6.929,6.929,0,0,1-2.714,4.914v.677h.685a3.443,3.443,0,0,1,3.438,3.438v1.374a.689.689,0,0,1-.688.688h-11a.689.689,0,0,1-.688-.688v-1.375a3.443,3.443,0,0,1,3.438-3.439h.688v-.677a6.929,6.929,0,0,1-2.714-4.915h-6.271a.448.448,0,0,1-.052,0,.688.688,0,1,1,.052-1.375h6.273a4.827,4.827,0,0,1,9.55.005h6.275v0h.052a.688.688,0,1,1-.052,1.375Z" fill="#fff"/>
    <path id="Path_8928" data-name="Path 8928" d="M998.946,299.242a.69.69,0,0,1,.366.608V301.6a.688.688,0,0,1-.688.688h-1.375a2.066,2.066,0,0,0-2.063,2.063v.688h9.628v-.688a2.066,2.066,0,0,0-2.063-2.063h-1.375a.688.688,0,0,1-.688-.688V299.85a.69.69,0,0,1,.366-.608,5.343,5.343,0,0,0,2.339-3.919h-6.786A5.343,5.343,0,0,0,998.946,299.242Z" fill="#fff"/>
    <path id="Path_8929" data-name="Path 8929" d="M1000,291.2a3.177,3.177,0,0,0-3.385,2.751h6.77A3.177,3.177,0,0,0,1000,291.2Z" fill="#fff"/>
  </g>
</svg>
