<svg xmlns="http://www.w3.org/2000/svg" width="79.12" height="73.417" viewBox="0 0 79.12 73.417">
  <g id="facial-recognition" transform="translate(0 -16.146)">
    <g id="Group_1537" data-name="Group 1537" transform="translate(11.425 16.146)">
      <g id="Group_1536" data-name="Group 1536" transform="translate(0 0)">
        <path id="Path_1707" data-name="Path 1707" d="M94.02,16.146c-5.991,0-10.6,1.513-10.6,3.323,0,0-18.729,3.772-18.729,20.991,0,1.431.072,2.716.185,3.908h2.537c-1.693-14.524,8.947-20.89,18.832-22.582V20.247a19.263,19.263,0,0,1,7.774-1.271c13.753,0,25.019,7.063,24.132,22.562H106.944c-21.539,0-26.275-6.05-26.719-6.7-.97-1.428-2.218-2.16-3.6-1.422-4.173,2.223-6.3,6.346-7.285,10.949h2.744c.006-.036.012-.07.02-.117a14.276,14.276,0,0,1,5.337-8.086,10.713,10.713,0,0,0,1.241,1.227c3.253,2.664,9.193,6.976,28.261,6.976h13.776C123.189,25.666,110.566,16.146,94.02,16.146Z" transform="translate(-64.691 -16.146)" fill="#08182e"/>
      </g>
    </g>
    <g id="Group_1539" data-name="Group 1539" transform="translate(25.406 52.242)">
      <g id="Group_1538" data-name="Group 1538">
        <ellipse id="Ellipse_114" data-name="Ellipse 114" cx="3.507" cy="4.083" rx="3.507" ry="4.083" fill="#08182e"/>
      </g>
    </g>
    <g id="Group_1541" data-name="Group 1541" transform="translate(46.692 52.16)">
      <g id="Group_1540" data-name="Group 1540" transform="translate(0 0)">
        <ellipse id="Ellipse_115" data-name="Ellipse 115" cx="3.505" cy="4.083" rx="3.505" ry="4.083" fill="#08182e"/>
      </g>
    </g>
    <g id="Group_1543" data-name="Group 1543" transform="translate(32.914 73.218)">
      <g id="Group_1542" data-name="Group 1542">
        <path id="Path_1708" data-name="Path 1708" d="M199.573,340.052a1.162,1.162,0,0,0-1.491-.676c-4.366,1.636-5.79,1.636-10.153,0a1.154,1.154,0,0,0-.809,2.162,13.273,13.273,0,0,0,11.778,0A1.154,1.154,0,0,0,199.573,340.052Z" transform="translate(-186.37 -339.302)" fill="#08182e"/>
      </g>
    </g>
    <g id="Group_1545" data-name="Group 1545" transform="translate(0 47.198)">
      <g id="Group_1544" data-name="Group 1544">
        <path id="Path_1709" data-name="Path 1709" d="M0,191.969v22.638H14.9c2.3,13.655,18.726,19.728,24.647,19.728S61.9,228.262,64.2,214.607H79.12V191.969Zm2.826,19.812V194.795H9.94a4.953,4.953,0,0,0-.715.465c-1.948,1.609-2.633,4.556-1.878,8.084a13.253,13.253,0,0,0,5.508,8.437Zm36.726,19.728c-4.541,0-19.381-5.107-21.746-16.9H61.3C58.934,226.4,44.091,231.509,39.551,231.509Zm22.306-20.378c-.027.19-.058.412-.092.65H17.335l-.093-.651c-3.7-1.955-6.191-3.969-7.133-8.376-.517-2.427-.177-4.414.916-5.315,1.478-1.225,3.612-.008,5.227.676.058-1.093.11-2.154.194-3.32H62.657c.083,1.164.136,2.228.195,3.32,1.741-.737,3.775-1.88,5.227-.676,1.093.9,1.434,2.888.916,5.315C68.049,207.172,65.552,209.184,61.858,211.131Zm14.437.65H66.249a13.259,13.259,0,0,0,5.507-8.437c.755-3.528.07-6.475-1.878-8.084a4.927,4.927,0,0,0-.716-.465h7.132Z" transform="translate(0 -191.969)" fill="#08182e"/>
      </g>
    </g>
  </g>
</svg>
