<svg xmlns="http://www.w3.org/2000/svg" width="80" height="80" viewBox="0 0 80 80">
  <g id="Group_1471" data-name="Group 1471" transform="translate(-148 -294)">
    <g id="Group_1300" data-name="Group 1300" transform="translate(-171 248)">
      <circle id="Ellipse_105" data-name="Ellipse 105" cx="40" cy="40" r="40" transform="translate(319 46)" fill="rgba(237,28,72,0.1)"/>
      <path id="Path_8894" data-name="Path 8894" d="M30,2A28,28,0,1,0,58,30,27.974,27.974,0,0,0,30,2ZM42.04,42.04a2.788,2.788,0,0,1-3.948,0L30,33.948,21.908,42.04a2.792,2.792,0,0,1-3.948-3.948L26.052,30,17.96,21.908a2.792,2.792,0,0,1,3.948-3.948L30,26.052l8.092-8.092a2.792,2.792,0,0,1,3.948,3.948L33.948,30l8.092,8.092a2.84,2.84,0,0,1,0,3.948Z" transform="translate(329 56)" fill="#ed1c48"/>
    </g>
  </g>
</svg>
