<svg id="_565512" data-name="565512" xmlns="http://www.w3.org/2000/svg" width="51.832" height="57.574" viewBox="0 0 51.832 57.574">
  <g id="Group_437" data-name="Group 437" transform="translate(0)">
    <g id="Group_436" data-name="Group 436" transform="translate(0)">
      <path id="Path_167" data-name="Path 167" d="M98,181.6a22.8,22.8,0,0,1-2.663-11.1c0-6.966,6.031-12.637,13.429-12.637S122.2,163.536,122.2,170.5a1.439,1.439,0,1,0,2.879,0c0-8.564-7.312-15.516-16.308-15.516S92.462,161.952,92.462,170.5A25.616,25.616,0,0,0,95.5,183.01a30.163,30.163,0,0,0,5.786,7.585,1.429,1.429,0,0,0,1.022.432,1.291,1.291,0,0,0,.993-.432,1.421,1.421,0,0,0,.014-2.029A27.283,27.283,0,0,1,98,181.6Z" transform="translate(-82.856 -134.072)" fill="#272c48"/>
      <path id="Path_168" data-name="Path 168" d="M81.035,6.938a33.648,33.648,0,0,1,32.069.014,1.543,1.543,0,0,0,.662.158h0a1.44,1.44,0,0,0,.662-2.72A36.575,36.575,0,0,0,79.653,4.4a1.443,1.443,0,1,0,1.382,2.533Z" transform="translate(-71.127)" fill="#272c48"/>
      <path id="Path_169" data-name="Path 169" d="M61.334,103.04a23.909,23.909,0,0,0-21.619,13.228,21.313,21.313,0,0,0-1.972,9.313,32.052,32.052,0,0,0,2.1,11.385,1.444,1.444,0,0,0,2.706-1.008,28.718,28.718,0,0,1-1.914-10.378,18.491,18.491,0,0,1,1.684-8.075,21,21,0,0,1,19.028-11.6c11.5,0,20.856,8.823,20.856,19.676a6,6,0,0,1-11.975,0,8.875,8.875,0,0,0-17.733,0,21.075,21.075,0,0,0,6.232,15.027,21.985,21.985,0,0,0,10.694,6.045,1.073,1.073,0,0,0,.374.058,1.436,1.436,0,0,0,.374-2.821,19.42,19.42,0,0,1-9.428-5.311,18.212,18.212,0,0,1-5.383-12.983,6,6,0,0,1,11.975,0,8.875,8.875,0,0,0,17.733,0C85.069,113.159,74.417,103.04,61.334,103.04Z" transform="translate(-35.521 -89.136)" fill="#272c48"/>
      <path id="Path_170" data-name="Path 170" d="M72.84,64.858a30.115,30.115,0,0,0-10.8-9.356,33.215,33.215,0,0,0-29.694.029,29.981,29.981,0,0,0-10.81,9.428,1.433,1.433,0,0,0,.345,2,1.5,1.5,0,0,0,.835.259,1.465,1.465,0,0,0,1.18-.59,27.031,27.031,0,0,1,9.773-8.535,30.288,30.288,0,0,1,27.06-.029,27.025,27.025,0,0,1,9.759,8.463,1.447,1.447,0,0,0,2.015.331A1.43,1.43,0,0,0,72.84,64.858Z" transform="translate(-21.277 -44.995)" fill="#272c48"/>
      <path id="Path_171" data-name="Path 171" d="M220.244,272.885a18.9,18.9,0,0,1-3.008.273,12.455,12.455,0,0,1-12.882-12.306,1.439,1.439,0,1,0-2.879,0,15.349,15.349,0,0,0,6.837,12.637,15.635,15.635,0,0,0,8.924,2.548,20.619,20.619,0,0,0,3.512-.317,1.44,1.44,0,1,0-.5-2.835Z" transform="translate(-177.159 -224.408)" fill="#272c48"/>
    </g>
  </g>
</svg>
