<svg xmlns="http://www.w3.org/2000/svg" width="40.002" height="40.002" viewBox="0 0 40.002 40.002">
  <path id="Subtraction_42" data-name="Subtraction 42" d="M14539-5602a19.873,19.873,0,0,1-7.784-1.572,19.932,19.932,0,0,1-6.358-4.287,19.92,19.92,0,0,1-4.286-6.357A19.882,19.882,0,0,1,14519-5622a19.882,19.882,0,0,1,1.572-7.785,19.92,19.92,0,0,1,4.286-6.357,19.932,19.932,0,0,1,6.358-4.287A19.873,19.873,0,0,1,14539-5642a19.875,19.875,0,0,1,7.785,1.572,19.928,19.928,0,0,1,6.357,4.287,19.928,19.928,0,0,1,4.287,6.357A19.888,19.888,0,0,1,14559-5622a19.888,19.888,0,0,1-1.571,7.785,19.928,19.928,0,0,1-4.287,6.357,19.928,19.928,0,0,1-6.357,4.287A19.875,19.875,0,0,1,14539-5602Zm-.036-20.352a3.771,3.771,0,0,0-3.852,3.676,9.134,9.134,0,0,0,2.715,6.525,9.71,9.71,0,0,0,4.648,2.624l.01,0a.754.754,0,0,0,.154.024.611.611,0,0,0,.585-.475.635.635,0,0,0-.065-.482.6.6,0,0,0-.37-.282,8.482,8.482,0,0,1-4.088-2.313,7.872,7.872,0,0,1-2.339-5.638,2.52,2.52,0,0,1,2.6-2.423,2.518,2.518,0,0,1,2.6,2.423,3.771,3.771,0,0,0,3.852,3.676,3.771,3.771,0,0,0,3.851-3.676,10.069,10.069,0,0,0-10.311-9.785,10.369,10.369,0,0,0-9.391,5.748,9.382,9.382,0,0,0-.852,4.052,13.972,13.972,0,0,0,.914,4.951.619.619,0,0,0,.582.4.6.6,0,0,0,.218-.04.6.6,0,0,0,.349-.317.61.61,0,0,0,.013-.483,12.438,12.438,0,0,1-.836-4.512,8.033,8.033,0,0,1,.737-3.5,9.122,9.122,0,0,1,8.266-5.039,8.822,8.822,0,0,1,9.062,8.539,2.521,2.521,0,0,1-2.6,2.426,2.519,2.519,0,0,1-2.6-2.426A3.771,3.771,0,0,0,14538.963-5622.35Zm.036-3.062a6.919,6.919,0,0,0-7.073,6.738,11.1,11.1,0,0,0,1.312,5.426,12.623,12.623,0,0,0,2.514,3.3.582.582,0,0,0,.435.187.694.694,0,0,0,.465-.187.644.644,0,0,0,0-.888,11.979,11.979,0,0,1-2.313-3.025,9.777,9.777,0,0,1-1.162-4.812,5.67,5.67,0,0,1,5.824-5.488,5.67,5.67,0,0,1,5.824,5.488.618.618,0,0,0,.625.625.62.62,0,0,0,.629-.625A6.922,6.922,0,0,0,14539-5625.412Zm-.072,6.113a.618.618,0,0,0-.625.625,6.659,6.659,0,0,0,2.974,5.488,6.724,6.724,0,0,0,3.873,1.111,8.367,8.367,0,0,0,1.513-.15.634.634,0,0,0,.417-.266.6.6,0,0,0,.095-.458.627.627,0,0,0-.612-.526.613.613,0,0,0-.111.01,8.3,8.3,0,0,1-1.3.128,5.5,5.5,0,0,1-3.175-.888,5.39,5.39,0,0,1-2.423-4.45A.618.618,0,0,0,14538.927-5619.3Zm.086-12.151a14.141,14.141,0,0,0-6.462,1.525,12.936,12.936,0,0,0-4.688,4.089.626.626,0,0,0-.107.473.612.612,0,0,0,.258.4.642.642,0,0,0,.361.113.544.544,0,0,0,.489-.263,11.878,11.878,0,0,1,4.25-3.7,12.839,12.839,0,0,1,5.879-1.388,12.931,12.931,0,0,1,5.872,1.377,11.745,11.745,0,0,1,4.234,3.676.628.628,0,0,0,.511.266.644.644,0,0,0,.366-.116.623.623,0,0,0,.258-.408.619.619,0,0,0-.108-.469,13.031,13.031,0,0,0-4.687-4.063A14.109,14.109,0,0,0,14539.013-5631.45Zm0-1.8a14.35,14.35,0,0,1,6.961,1.761.574.574,0,0,0,.289.077.607.607,0,0,0,.548-.351.6.6,0,0,0,.048-.468.612.612,0,0,0-.312-.368,15.705,15.705,0,0,0-7.534-1.9,15.694,15.694,0,0,0-7.563,1.911.643.643,0,0,0-.252.852.65.65,0,0,0,.558.324.612.612,0,0,0,.294-.075A14.316,14.316,0,0,1,14539.014-5633.25Z" transform="translate(-14518.998 5642)" fill="#fff"/>
</svg>
