<?xml version="1.0" encoding="utf-8"?>
<!-- Generator: Adobe Illustrator 24.1.1, SVG Export Plug-In . SVG Version: 6.00 Build 0)  -->
<svg version="1.1" id="Layer_1" xmlns="http://www.w3.org/2000/svg" xmlns:xlink="http://www.w3.org/1999/xlink" x="0px" y="0px"
	 viewBox="0 0 16.5 20.5" style="enable-background:new 0 0 16.5 20.5;" xml:space="preserve">
<style type="text/css">
	.st0{fill:#E07517;}
</style>
<g id="Goal" transform="translate(-587.75 -425.75)">
	<g id="flag" transform="translate(584 424)">
		<g id="Path_7967">
			<path class="st0" d="M16,16.3c-1.5,0-2.8-0.5-4.1-1c-1.3-0.5-2.5-1-3.9-1c-2.8,0-3.8,0.9-3.8,0.9c-0.1,0.1-0.2,0.1-0.3,0.1
				c-0.1,0-0.2-0.1-0.2-0.2V3c0-0.1,0-0.1,0.1-0.2c0,0,1.1-1.1,4.2-1.1c1.5,0,2.8,0.5,4.1,1c1.3,0.5,2.5,1,3.9,1
				c2.8,0,3.8-0.9,3.8-0.9c0.1-0.1,0.2-0.1,0.3-0.1c0.1,0,0.2,0.1,0.2,0.2v12c0,0.1,0,0.1-0.1,0.2C20.1,15.2,19.1,16.3,16,16.3z
				 M8,13.8c1.5,0,2.8,0.5,4.1,1c1.3,0.5,2.5,1,3.9,1c2.4,0,3.5-0.7,3.8-0.9V3.5C19.2,3.8,18,4.3,16,4.3c-1.5,0-2.8-0.5-4.1-1
				c-1.3-0.5-2.5-1-3.9-1c-2.4,0-3.5,0.7-3.8,0.9v11.4C4.8,14.2,6,13.8,8,13.8z"/>
		</g>
		<g id="Line_130">
			<path class="st0" d="M4,22.3c-0.1,0-0.3-0.1-0.3-0.3v-7c0-0.1,0.1-0.3,0.3-0.3s0.3,0.1,0.3,0.3v7C4.3,22.1,4.1,22.3,4,22.3z"/>
		</g>
	</g>
</g>
</svg>
