<svg xmlns="http://www.w3.org/2000/svg" width="83.992" height="81.204" viewBox="0 0 83.992 81.204">
  <g id="surprise" transform="translate(0 -8.5)">
    <g id="Group_4401" data-name="Group 4401" transform="translate(65.677 8.5)">
      <path id="Path_8956" data-name="Path 8956" d="M405.349,18.482a4.991,4.991,0,1,0-5-4.989A4.994,4.994,0,0,0,405.349,18.482Z" transform="translate(-400.351 -8.5)" fill="#f5993d" fill-rule="evenodd"/>
    </g>
    <g id="Group_4402" data-name="Group 4402" transform="translate(0.002 39.207)">
      <path id="Path_8957" data-name="Path 8957" d="M24.618,209.212,18.806,200.3c-19.827-15.523-27.852,13.311-4.6,10.553Z" transform="translate(-0.012 -195.683)" fill="#fece85" fill-rule="evenodd"/>
    </g>
    <g id="Group_4403" data-name="Group 4403" transform="translate(21.544 26.551)">
      <path id="Path_8958" data-name="Path 8958" d="M142.918,135.809c14.573-18.31-14.19-26.652-11.4-1.64l4.848,8.347Z" transform="translate(-131.325 -118.533)" fill="#fece85" fill-rule="evenodd"/>
    </g>
    <g id="Group_4404" data-name="Group 4404" transform="translate(17.532 57.294)">
      <path id="Path_8959" data-name="Path 8959" d="M124.972,338.347l3.589-16.248-3.589-15.387H117.64l-8.974-.774-1.8,6.774v22.452a3.194,3.194,0,0,0,3.187,3.184Z" transform="translate(-106.869 -305.937)" fill="#4583d6" fill-rule="evenodd"/>
    </g>
    <g id="Group_4405" data-name="Group 4405" transform="translate(43.292 58.068)">
      <path id="Path_8960" data-name="Path 8960" d="M286.269,339.108V312.437a1.789,1.789,0,0,0-1.782-1.781H268.166L263.9,326.479l4.267,15.813h14.917A3.194,3.194,0,0,0,286.269,339.108Z" transform="translate(-263.899 -310.656)" fill="#4583d6" fill-rule="evenodd"/>
    </g>
    <g id="Group_4406" data-name="Group 4406" transform="translate(26.114 26.549)">
      <path id="Path_8961" data-name="Path 8961" d="M166.206,135.8c10-12.566-.412-20.439-7.022-16.055,5.448.3,10.166,6.827,3.41,16.2l.794,1.418Z" transform="translate(-159.184 -118.525)" fill="#fcc62f" fill-rule="evenodd"/>
    </g>
    <g id="Group_4407" data-name="Group 4407" transform="translate(0 39.207)">
      <path id="Path_8962" data-name="Path 8962" d="M18.8,200.3C7.483,191.445.015,197.023,0,202.941c2.354-3.406,7.846-5.027,15.29-.218a3.435,3.435,0,0,1,1.23-1.152Z" transform="translate(0 -195.684)" fill="#fcc62f" fill-rule="evenodd"/>
    </g>
    <g id="Group_4408" data-name="Group 4408" transform="translate(35.635 58.068)">
      <path id="Path_8963" data-name="Path 8963" d="M217.224,310.656h11.924v31.636H217.224Z" transform="translate(-217.224 -310.656)" fill="#fcc62f" fill-rule="evenodd"/>
    </g>
    <g id="Group_4409" data-name="Group 4409" transform="translate(55.279 58.068)">
      <path id="Path_8964" data-name="Path 8964" d="M347.35,318.388v-5.952a1.789,1.789,0,0,0-1.782-1.781h-7.192a1.789,1.789,0,0,1,1.782,1.781v26.671a3.2,3.2,0,0,1-3.191,3.184h7.2a3.194,3.194,0,0,0,3.187-3.184V318.388Z" transform="translate(-336.967 -310.656)" fill="#22589f" fill-rule="evenodd"/>
    </g>
    <g id="Group_4410" data-name="Group 4410" transform="translate(7.241 45.207)">
      <path id="Path_8965" data-name="Path 8965" d="M51.641,236.162a1.248,1.248,0,0,1-.427-.075,22.368,22.368,0,0,0-5.961-1.34,1.248,1.248,0,1,1,.272-2.481,25.009,25.009,0,0,1,6.543,1.476,1.248,1.248,0,0,1-.427,2.421Z" transform="translate(-44.14 -232.258)" fill="#22589f"/>
    </g>
    <g id="Group_4411" data-name="Group 4411" transform="translate(26.056 33.56)">
      <path id="Path_8966" data-name="Path 8966" d="M160.084,169.975q-.05,0-.1,0a1.248,1.248,0,0,1-1.146-1.343,17.432,17.432,0,0,1,2.266-6.768,1.248,1.248,0,0,1,2.133,1.3,15.093,15.093,0,0,0-1.909,5.667A1.249,1.249,0,0,1,160.084,169.975Z" transform="translate(-158.834 -161.26)" fill="#22589f"/>
    </g>
    <g id="Group_4412" data-name="Group 4412" transform="translate(55.226 27.478)">
      <path id="Path_8967" data-name="Path 8967" d="M337.9,148.867a1.248,1.248,0,0,1-.918-2.094c5.346-5.792,3.761-21.051,3.745-21.2a1.249,1.249,0,0,1,2.483-.269c.073.673,1.715,16.55-4.392,23.166A1.246,1.246,0,0,1,337.9,148.867Z" transform="translate(-336.647 -124.185)" fill="#e15833"/>
    </g>
    <g id="Group_4413" data-name="Group 4413" transform="translate(67.881 18.618)">
      <path id="Path_8968" data-name="Path 8968" d="M415.037,86.328a1.249,1.249,0,0,1-1.219-1.523,21.126,21.126,0,0,1,2.811-6.239,19.135,19.135,0,0,1,11.73-8.353,1.248,1.248,0,1,1,.58,2.428,16.457,16.457,0,0,0-10.171,7.216,19.017,19.017,0,0,0-2.516,5.5A1.251,1.251,0,0,1,415.037,86.328Z" transform="translate(-413.788 -70.178)" fill="#e15833"/>
    </g>
    <g id="Group_4414" data-name="Group 4414" transform="translate(43.295 10.284)">
      <path id="Path_8969" data-name="Path 8969" d="M276.155,28.464l2.451-2.952c.5-.571.47-.74-.271-.924l-3.807-.944c-.431-.106-.455-.223-.668-.571l-1.923-3.208c-.387-.653-.625-.653-1.017,0L269,23.074c-.208.348-.237.465-.668.571l-3.807.944c-.736.184-.775.353-.271.924l2.455,2.952a1.467,1.467,0,0,1,.266,1.127l-.3,3.648c-.082.755.078.847.785.561l3.347-1.394a1.819,1.819,0,0,1,1.24,0L275.4,33.8c.707.285.862.194.78-.561l-.29-3.648A1.445,1.445,0,0,1,276.155,28.464Z" transform="translate(-263.915 -19.376)" fill="#fece85" fill-rule="evenodd"/>
    </g>
    <g id="Group_4415" data-name="Group 4415" transform="translate(48.106 10.513)">
      <path id="Path_8970" data-name="Path 8970" d="M296.088,26.584a19.689,19.689,0,0,1-2.843,7.853l2.083-.866a1.819,1.819,0,0,1,1.24,0l3.351,1.394c.707.285.862.194.78-.561l-.29-3.648a1.446,1.446,0,0,1,.266-1.128l2.451-2.952c.5-.571.47-.74-.271-.924l-3.807-.944c-.431-.106-.455-.223-.668-.571l-1.923-3.208a2.431,2.431,0,0,0-.174-.261,22.582,22.582,0,0,1-.194,5.816Z" transform="translate(-293.245 -20.768)" fill="#f5993d" fill-rule="evenodd"/>
    </g>
    <g id="Group_4416" data-name="Group 4416" transform="translate(67.714 38.973)">
      <path id="Path_8971" data-name="Path 8971" d="M425.011,203.346l2.451-2.952c.509-.571.47-.74-.271-.924l-3.807-.944c-.426-.106-.455-.223-.664-.571l-1.923-3.208c-.392-.653-.63-.653-1.017,0l-1.928,3.208c-.208.348-.237.465-.664.571l-3.807.944c-.741.184-.78.353-.271.924l2.451,2.952a1.447,1.447,0,0,1,.266,1.127l-.3,3.643c-.078.76.077.852.785.566l3.347-1.394a1.833,1.833,0,0,1,1.245,0l3.347,1.394c.707.285.862.194.785-.566l-.3-3.643A1.446,1.446,0,0,1,425.011,203.346Z" transform="translate(-412.772 -194.258)" fill="#fece85" fill-rule="evenodd"/>
    </g>
    <g id="Group_4417" data-name="Group 4417" transform="translate(72.525 39.197)">
      <path id="Path_8972" data-name="Path 8972" d="M444.943,201.443a19.686,19.686,0,0,1-2.848,7.853l2.083-.866a1.833,1.833,0,0,1,1.245,0l3.347,1.394c.707.285.862.194.785-.566l-.3-3.643a1.447,1.447,0,0,1,.266-1.128l2.451-2.952c.509-.571.47-.74-.271-.924l-3.807-.944c-.426-.106-.455-.223-.664-.571l-1.923-3.208a2.3,2.3,0,0,0-.179-.266A22.575,22.575,0,0,1,444.943,201.443Z" transform="translate(-442.095 -195.622)" fill="#f5993d" fill-rule="evenodd"/>
    </g>
    <g id="Group_4418" data-name="Group 4418" transform="translate(68.175 8.5)">
      <path id="Path_8973" data-name="Path 8973" d="M423.081,13.494a5,5,0,0,0-7.5-4.326,4.989,4.989,0,0,1,0,8.647,5,5,0,0,0,7.5-4.321Z" transform="translate(-415.584 -8.5)" fill="#fcc62f" fill-rule="evenodd"/>
    </g>
    <g id="Group_4419" data-name="Group 4419" transform="translate(14.729 40.563)">
      <path id="Path_8974" data-name="Path 8974" d="M91.925,216.274l8.156-1.548,5.293-5.942-1.7-3.044a3.453,3.453,0,0,0-1.313-1.326,3.507,3.507,0,0,0-3.439-.024l-2.131,1.186-2.94,1.636-2.276,1.273a3.481,3.481,0,0,0-1.777,2.768,3.425,3.425,0,0,0,.426,1.974Z" transform="translate(-89.786 -203.952)" fill="#fece85" fill-rule="evenodd"/>
    </g>
    <g id="Group_4420" data-name="Group 4420" transform="translate(30.317 37.14)">
      <path id="Path_8975" data-name="Path 8975" d="M189.725,200.152l14.268-7.945a2.456,2.456,0,0,0,.949-3.329l-2.533-4.539a2.455,2.455,0,0,0-3.332-.944l-11.449,6.378-2.819,1.568v5.942Z" transform="translate(-184.809 -183.086)" fill="#4583d6" fill-rule="evenodd"/>
    </g>
    <g id="Group_4421" data-name="Group 4421" transform="translate(1.345 52.886)">
      <path id="Path_8976" data-name="Path 8976" d="M14.368,295.827l14.268-7.95.407-5.942-5.323-2.869-2.669,1.49-11.6,6.46A2.452,2.452,0,0,0,8.5,290.34l2.533,4.544A2.463,2.463,0,0,0,14.368,295.827Z" transform="translate(-8.196 -279.066)" fill="#4583d6" fill-rule="evenodd"/>
    </g>
    <g id="Group_4422" data-name="Group 4422" transform="translate(19.711 40.563)">
      <path id="Path_8977" data-name="Path 8977" d="M129.966,207.366l-.906-1.626a3.454,3.454,0,0,0-1.313-1.326,3.508,3.508,0,0,0-3.439-.024l-2.131,1.186-2.024,1.127a3.5,3.5,0,0,1,4.751,1.35l1.7,3.048,4.155-2.318Z" transform="translate(-120.154 -203.952)" fill="#fdb440" fill-rule="evenodd"/>
    </g>
    <g id="Group_4423" data-name="Group 4423" transform="translate(38.861 37.14)">
      <path id="Path_8978" data-name="Path 8978" d="M247.526,192.207a2.456,2.456,0,0,0,.949-3.329l-2.533-4.539a2.455,2.455,0,0,0-3.332-.944l-5.724,3.189a2.448,2.448,0,0,1,3.327.944l2.533,4.539a2.454,2.454,0,0,1-.935,3.324Z" transform="translate(-236.886 -183.086)" fill="#22589f" fill-rule="evenodd"/>
    </g>
    <g id="Group_4424" data-name="Group 4424" transform="translate(16.868 45.395)">
      <path id="Path_8979" data-name="Path 8979" d="M121.191,242.217l-4.916-8.811-13.449,7.49,4.916,8.811C112.231,247.206,116.7,244.719,121.191,242.217Z" transform="translate(-102.826 -233.406)" fill="#fcc62f" fill-rule="evenodd"/>
    </g>
  </g>
</svg>
