<svg xmlns="http://www.w3.org/2000/svg" xmlns:xlink="http://www.w3.org/1999/xlink" width="201.367" height="188.471" viewBox="0 0 201.367 188.471">
  <defs>
    <linearGradient id="linear-gradient" x1="0.5" y1="1" x2="0.5" gradientUnits="objectBoundingBox">
      <stop offset="0" stop-color="gray" stop-opacity="0.251"/>
      <stop offset="0.54" stop-color="gray" stop-opacity="0.122"/>
      <stop offset="1" stop-color="gray" stop-opacity="0.102"/>
    </linearGradient>
    <linearGradient id="linear-gradient-3" x1="0.159" y1="0.911" x2="0.8" y2="0.138" gradientUnits="objectBoundingBox">
      <stop offset="0" stop-color="#ed1c48"/>
      <stop offset="1" stop-color="#fecb37"/>
    </linearGradient>
  </defs>
  <g id="Group_3961" data-name="Group 3961" transform="translate(-48.121 -163.342)">
    <g id="Group_3939" data-name="Group 3939" transform="translate(48.121 163.342)">
      <g id="Group_3932" data-name="Group 3932" transform="translate(24.537 11.204)" opacity="0.5">
        <rect id="Rectangle_1257" data-name="Rectangle 1257" width="1.333" height="7.555" transform="translate(3.111)" fill="#47e6b1"/>
        <rect id="Rectangle_1258" data-name="Rectangle 1258" width="1.333" height="7.555" transform="translate(7.555 3.111) rotate(90)" fill="#47e6b1"/>
      </g>
      <g id="Group_3933" data-name="Group 3933" transform="translate(185.895 178.878)" opacity="0.5">
        <rect id="Rectangle_1259" data-name="Rectangle 1259" width="1.294" height="7.33" transform="translate(3.018)" fill="#47e6b1"/>
        <rect id="Rectangle_1260" data-name="Rectangle 1260" width="1.294" height="7.33" transform="translate(7.33 3.018) rotate(90)" fill="#47e6b1"/>
      </g>
      <g id="Group_3934" data-name="Group 3934" transform="translate(184.083 52.87) rotate(-30)" opacity="0.5">
        <rect id="Rectangle_1261" data-name="Rectangle 1261" width="1.494" height="8.466" transform="translate(3.486 0)" fill="#47e6b1"/>
        <rect id="Rectangle_1262" data-name="Rectangle 1262" width="1.494" height="8.466" transform="translate(8.466 3.486) rotate(90)" fill="#47e6b1"/>
      </g>
      <g id="Group_3935" data-name="Group 3935" transform="translate(194.084 11.475)" opacity="0.5">
        <rect id="Rectangle_1263" data-name="Rectangle 1263" width="1.285" height="7.284" transform="translate(2.999)" fill="#47e6b1"/>
        <rect id="Rectangle_1264" data-name="Rectangle 1264" width="1.285" height="7.284" transform="translate(7.284 2.999) rotate(90)" fill="#47e6b1"/>
      </g>
      <g id="Group_3936" data-name="Group 3936" transform="translate(62.734 6.013) rotate(30)" opacity="0.5">
        <rect id="Rectangle_1265" data-name="Rectangle 1265" width="1.749" height="9.909" transform="translate(4.085 0)" fill="#47e6b1"/>
        <rect id="Rectangle_1266" data-name="Rectangle 1266" width="1.749" height="9.909" transform="translate(9.909 4.08) rotate(90)" fill="#47e6b1"/>
      </g>
      <path id="Path_8000" data-name="Path 8000" d="M226.47,355.665a2.9,2.9,0,0,1-1.615-3.507,1.42,1.42,0,0,0,.064-.32h0a1.423,1.423,0,0,0-2.611-.967h0a1.419,1.419,0,0,0-.164.284,2.9,2.9,0,0,1-3.507,1.615,1.432,1.432,0,0,0-.32-.064h0a1.423,1.423,0,0,0-.967,2.611h0a1.423,1.423,0,0,0,.285.164,2.9,2.9,0,0,1,1.615,3.507,1.415,1.415,0,0,0-.064.32h0a1.423,1.423,0,0,0,2.611.967h0a1.423,1.423,0,0,0,.164-.285,2.9,2.9,0,0,1,3.507-1.615,1.424,1.424,0,0,0,.32.064h0a1.423,1.423,0,0,0,.967-2.61h0A1.413,1.413,0,0,0,226.47,355.665Z" transform="translate(-207.81 -279.584)" fill="#4d8af0" opacity="0.5"/>
      <path id="Path_8001" data-name="Path 8001" d="M283.145,731.324a1.477,1.477,0,0,1-.822-1.784.723.723,0,0,0,.033-.163h0a.724.724,0,0,0-1.328-.492h0a.728.728,0,0,0-.083.145,1.477,1.477,0,0,1-1.785.822.72.72,0,0,0-.163-.033h0a.724.724,0,0,0-.492,1.328h0a.726.726,0,0,0,.145.083,1.477,1.477,0,0,1,.822,1.785.719.719,0,0,0-.033.163h0a.724.724,0,0,0,1.328.492h0a.729.729,0,0,0,.083-.145,1.477,1.477,0,0,1,1.785-.822.726.726,0,0,0,.163.033h0a.724.724,0,0,0,.492-1.328h0A.727.727,0,0,0,283.145,731.324Z" transform="translate(-252.441 -567.82)" fill="#4d8af0" opacity="0.5"/>
      <path id="Path_8010" data-name="Path 8010" d="M283.145,731.324a1.477,1.477,0,0,1-.822-1.784.723.723,0,0,0,.033-.163h0a.724.724,0,0,0-1.328-.492h0a.728.728,0,0,0-.083.145,1.477,1.477,0,0,1-1.785.822.72.72,0,0,0-.163-.033h0a.724.724,0,0,0-.492,1.328h0a.726.726,0,0,0,.145.083,1.477,1.477,0,0,1,.822,1.785.719.719,0,0,0-.033.163h0a.724.724,0,0,0,1.328.492h0a.729.729,0,0,0,.083-.145,1.477,1.477,0,0,1,1.785-.822.726.726,0,0,0,.163.033h0a.724.724,0,0,0,.492-1.328h0A.727.727,0,0,0,283.145,731.324Z" transform="translate(-274.582 -549.497)" fill="#4d8af0" opacity="0.5"/>
      <path id="Path_8002" data-name="Path 8002" d="M841.828,230.147a1.383,1.383,0,0,1-.769-1.671.684.684,0,0,0,.031-.153h0a.678.678,0,0,0-1.244-.461h0a.677.677,0,0,0-.078.136,1.383,1.383,0,0,1-1.671.769.682.682,0,0,0-.153-.031h0a.678.678,0,0,0-.461,1.244h0a.684.684,0,0,0,.135.078,1.382,1.382,0,0,1,.769,1.671.678.678,0,0,0-.031.153h0a.678.678,0,0,0,1.244.461h0a.676.676,0,0,0,.078-.136,1.383,1.383,0,0,1,1.671-.769.673.673,0,0,0,.152.031h0a.678.678,0,0,0,.461-1.244h0A.676.676,0,0,0,841.828,230.147Z" transform="translate(-682.032 -182.473)" fill="#4d8af0" opacity="0.5"/>
      <path id="Path_8003" data-name="Path 8003" d="M834.136,320.4a1.311,1.311,0,0,1-.729-1.584.636.636,0,0,0,.029-.145h0a.643.643,0,0,0-1.179-.437h0a.659.659,0,0,0-.074.129,1.311,1.311,0,0,1-1.584.729.639.639,0,0,0-.144-.029h0a.643.643,0,0,0-.437,1.179h0a.632.632,0,0,0,.129.074,1.311,1.311,0,0,1,.729,1.584.657.657,0,0,0-.029.145h0a.643.643,0,0,0,1.179.437h0a.642.642,0,0,0,.074-.129,1.311,1.311,0,0,1,1.584-.729.639.639,0,0,0,.145.029h0a.643.643,0,0,0,.437-1.179h0a.647.647,0,0,0-.129-.074Z" transform="translate(-676.172 -251.833)" fill="#4d8af0" opacity="0.5"/>
      <path id="Path_8004" data-name="Path 8004" d="M837.854,43.808a2.255,2.255,0,0,1-1.255-2.725,1.1,1.1,0,0,0,.05-.249h0a1.106,1.106,0,0,0-2.029-.752h0a1.091,1.091,0,0,0-.127.221,2.256,2.256,0,0,1-2.72,1.26,1.1,1.1,0,0,0-.249-.05h0a1.106,1.106,0,0,0-.752,2.029h0a1.1,1.1,0,0,0,.221.127,2.255,2.255,0,0,1,1.255,2.725,1.1,1.1,0,0,0-.05.249h0a1.106,1.106,0,0,0,2.029.752h0a1.1,1.1,0,0,0,.127-.221,2.255,2.255,0,0,1,2.7-1.288,1.1,1.1,0,0,0,.248.05h0a1.106,1.106,0,0,0,.752-2.029h0A1.125,1.125,0,0,0,837.854,43.808Z" transform="translate(-678.326 -39.567)" fill="#4d8af0" opacity="0.5"/>
      <path id="Path_8005" data-name="Path 8005" d="M1001.586,498.381a.943.943,0,0,1-.525-1.14.455.455,0,0,0,.021-.1h0a.462.462,0,0,0-.848-.314h0a.458.458,0,0,0-.053.093.943.943,0,0,1-1.14.525.465.465,0,0,0-.1-.021h0a.462.462,0,0,0-.315.848h0a.46.46,0,0,0,.093.053.943.943,0,0,1,.522,1.151.47.47,0,0,0-.021.1h0a.462.462,0,0,0,.849.314h0a.462.462,0,0,0,.053-.092.943.943,0,0,1,1.14-.525.461.461,0,0,0,.1.021h0a.462.462,0,0,0,.314-.849h0A.467.467,0,0,0,1001.586,498.381Z" transform="translate(-805.182 -388.516)" fill="#4d8af0" opacity="0.5"/>
      <circle id="Ellipse_802" data-name="Ellipse 802" cx="1.54" cy="1.54" r="1.54" transform="translate(14.268 39.319)" fill="#f55f44" opacity="0.5"/>
      <circle id="Ellipse_803" data-name="Ellipse 803" cx="2.303" cy="2.303" r="2.303" transform="translate(2.215 149.136)" fill="#f55f44" opacity="0.5"/>
      <circle id="Ellipse_804" data-name="Ellipse 804" cx="3.067" cy="3.067" r="3.067" transform="translate(99.342 9.184)" fill="#f55f44" opacity="0.5"/>
      <circle id="Ellipse_805" data-name="Ellipse 805" cx="1.54" cy="1.54" r="1.54" transform="translate(117.122 40.836)" fill="#f55f44" opacity="0.5"/>
      <circle id="Ellipse_806" data-name="Ellipse 806" cx="3.067" cy="3.067" r="3.067" transform="translate(0 110.053)" fill="#f55f44" opacity="0.5"/>
      <circle id="Ellipse_807" data-name="Ellipse 807" cx="3.067" cy="3.067" r="3.067" transform="translate(61.831 33.773)" fill="#47e6b1" opacity="0.5"/>
      <circle id="Ellipse_808" data-name="Ellipse 808" cx="3.067" cy="3.067" r="3.067" transform="translate(166.212 137.581)" fill="#f55f44" opacity="0.5"/>
      <g id="Group_3937" data-name="Group 3937" transform="translate(67.95 47.92)" opacity="0.5">
        <path id="Path_8006" data-name="Path 8006" d="M516.007,240.368c-2.982-2.992-7.331-4.182-12.253-3.352a24.5,24.5,0,0,0-12.947,7.012,15.14,15.14,0,0,0-2.71,3.718,15.174,15.174,0,0,0-2.686-3.852h0a24.606,24.606,0,0,0-12.831-7.234c-4.9-.925-9.266.2-12.3,3.14s-4.289,7.271-3.526,12.186a24.482,24.482,0,0,0,6.825,13.06c7.763,8.009,23.255,4.88,23.912,4.742l.194-.039.6.136c.654.148,16.089,3.542,23.986-4.33a24.565,24.565,0,0,0,7.054-12.933C520.166,247.713,518.989,243.36,516.007,240.368Zm-31.139,24.8c-3.743.5-13.074,1.188-17.707-3.59a19.559,19.559,0,0,1-5.482-10.346c-.509-3.283.231-6.073,2.067-7.86a6.92,6.92,0,0,1,2.525-1.547,10.4,10.4,0,0,1,5.391-.273,19.589,19.589,0,0,1,10.172,5.8C486.468,252.14,485.488,261.446,484.868,265.163Zm29.542-13.393a19.557,19.557,0,0,1-5.659,10.249c-4.716,4.7-14.033,3.854-17.765,3.285-.557-3.736-1.373-13.055,3.341-17.755a19.569,19.569,0,0,1,10.267-5.627,10.441,10.441,0,0,1,5.387.365,6.919,6.919,0,0,1,2.5,1.591c1.81,1.824,2.5,4.626,1.933,7.9Z" transform="translate(-456.537 -236.344)" fill="url(#linear-gradient)"/>
      </g>
      <path id="Path_8007" data-name="Path 8007" d="M493.472,271.287,492,271.6c-.626.132-15.45,3.123-22.888-4.538a23.506,23.506,0,0,1-6.533-12.484c-.728-4.712.462-8.857,3.371-11.671s7.084-3.879,11.77-3.005A23.49,23.49,0,0,1,490,246.822h0c7.426,7.664,3.972,22.386,3.819,23.008Zm-21.78-26.446a6.621,6.621,0,0,0-2.416,1.48c-1.762,1.706-2.465,4.376-1.979,7.518a18.715,18.715,0,0,0,5.246,9.9c4.432,4.573,13.36,3.93,16.942,3.436.594-3.563,1.528-12.468-2.9-17.041h0a18.689,18.689,0,0,0-9.731-5.549A9.924,9.924,0,0,0,471.692,244.841Z" transform="translate(-393.07 -190.929)" fill="#e07517"/>
      <path id="Path_8008" data-name="Path 8008" d="M583.7,272.642l-.335-1.47c-.141-.627-3.341-15.407,4.217-22.939h0a23.463,23.463,0,0,1,12.4-6.7c4.7-.8,8.862.344,11.717,3.207s3.979,7.028,3.17,11.726a23.569,23.569,0,0,1-6.748,12.376c-7.553,7.521-22.321,4.284-22.948,4.141Zm22.234-26.067a9.972,9.972,0,0,0-5.153-.351,18.674,18.674,0,0,0-9.826,5.384h0c-4.51,4.5-3.731,13.409-3.2,16.99,3.572.543,12.484,1.355,17-3.144a18.72,18.72,0,0,0,5.417-9.807c.541-3.133-.116-5.814-1.85-7.551a6.621,6.621,0,0,0-2.393-1.521Z" transform="translate(-485.487 -192.22)" fill="#e07517"/>
      <g id="Group_3938" data-name="Group 3938" transform="translate(26.775 76.483)" opacity="0.5">
        <path id="Path_8009" data-name="Path 8009" d="M252.932,320.21H109.21v28.758h7.467V432.2H245.464V348.968h7.467Z" transform="translate(-109.21 -320.21)" fill="url(#linear-gradient)"/>
      </g>
      <rect id="Rectangle_1267" data-name="Rectangle 1267" width="125.527" height="101.879" transform="translate(35.873 85.178)" fill="#f5f5f5"/>
      <rect id="Rectangle_1268" data-name="Rectangle 1268" width="23.651" height="83.686" transform="translate(86.811 103.37)" fill="#e07517"/>
      <rect id="Rectangle_1269" data-name="Rectangle 1269" width="125.527" height="25.47" transform="translate(35.873 79.72)" opacity="0.1"/>
      <rect id="Rectangle_1270" data-name="Rectangle 1270" width="140.08" height="25.47" transform="translate(28.595 77.9)" fill="#f5f5f5"/>
      <rect id="Rectangle_1271" data-name="Rectangle 1271" width="23.651" height="25.47" transform="translate(86.811 77.9)" fill="#e07517"/>
    </g>
    <g id="Group_3941" data-name="Group 3941" transform="translate(170.283 328.177)">
      <g id="Component_11_4" data-name="Component 11 – 4" transform="translate(0 11.039)">
        <path id="Path_1365" data-name="Path 1365" d="M0,310.424l1.843-2.52L.126,305.52H1.607l.9,1.371.977-1.371H4.9L3.229,307.9l1.8,2.52H3.607l-1.1-1.567-1.04,1.567Z" transform="translate(0 -305.479)" fill="#08182e"/>
        <g id="Group_1148" data-name="Group 1148" transform="translate(10.193)">
          <path id="Path_1366" data-name="Path 1366" d="M283.667,304.38a4.082,4.082,0,0,1,.758.072,2.524,2.524,0,0,1,.656.209l-.174.873a3.184,3.184,0,0,0-.5-.149,2.573,2.573,0,0,0-.555-.062,1.678,1.678,0,0,0-1.168.386,1.822,1.822,0,0,0,0,2.346,1.679,1.679,0,0,0,1.168.386,2.577,2.577,0,0,0,.555-.062,3.19,3.19,0,0,0,.5-.149l.174.873a2.538,2.538,0,0,1-.656.209,4.085,4.085,0,0,1-.758.072,3.091,3.091,0,0,1-1.124-.189,2.267,2.267,0,0,1-.812-.522,2.189,2.189,0,0,1-.493-.791,3.086,3.086,0,0,1,0-2,2.189,2.189,0,0,1,.493-.791,2.266,2.266,0,0,1,.812-.522A3.092,3.092,0,0,1,283.667,304.38Z" transform="translate(-281.07 -304.38)" fill="#08182e"/>
        </g>
        <g id="Group_1149" data-name="Group 1149" transform="translate(15.02 0.087)">
          <path id="Path_1367" data-name="Path 1367" d="M418.031,310.24a1.075,1.075,0,0,1-.157.579,1.286,1.286,0,0,1-.452.427,2.414,2.414,0,0,1-.708.264,4.3,4.3,0,0,1-.916.09H414.17V306.77h1.879a3,3,0,0,1,.759.087,1.843,1.843,0,0,1,.562.24,1.134,1.134,0,0,1,.35.356.847.847,0,0,1,.122.443,1.044,1.044,0,0,1-.271.741,1.671,1.671,0,0,1-.79.436,2.234,2.234,0,0,1,.5.137,1.466,1.466,0,0,1,.4.239,1.035,1.035,0,0,1,.263.34A1.024,1.024,0,0,1,418.031,310.24Zm-2.225-1.54a.967.967,0,0,0,.55-.143.464.464,0,0,0,.212-.408.419.419,0,0,0-.185-.364.89.89,0,0,0-.515-.129h-.44V308.7Zm.951,1.447a.46.46,0,0,0-.24-.42,1.3,1.3,0,0,0-.664-.142h-.425v1.132h.456a1.053,1.053,0,0,0,.672-.168A.508.508,0,0,0,416.757,310.147Z" transform="translate(-414.17 -306.77)" fill="#08182e"/>
        </g>
        <g id="Group_1150" data-name="Group 1150" transform="translate(24.433 0.087)">
          <path id="Path_1368" data-name="Path 1368" d="M677.009,311.611l-2.1-2.88v2.88h-1.2V306.78h1.2l2.1,2.88v-2.88h1.2v4.831Z" transform="translate(-673.71 -306.78)" fill="#08182e"/>
        </g>
        <g id="Group_1151" data-name="Group 1151" transform="translate(29.271 0.087)">
          <path id="Path_1369" data-name="Path 1369" d="M807.12,311.611V306.78h1.208v2.314l1.547-2.314h1.363l-1.658,2.386,1.776,2.444h-1.451l-1.577-2.365v2.365Z" transform="translate(-807.12 -306.78)" fill="#08182e"/>
        </g>
        <g id="Group_1152" data-name="Group 1152" transform="translate(5.12 0.087)">
          <path id="Path_1370" data-name="Path 1370" d="M144.836,310.675h-2.005l-.322.936H141.18l1.95-4.831h1.415l1.95,4.831h-1.329Zm-1.675-.943h1.345l-.668-2.038Z" transform="translate(-141.18 -306.78)" fill="#08182e"/>
        </g>
        <g id="Group_1153" data-name="Group 1153" transform="translate(18.873 0.087)">
          <path id="Path_1371" data-name="Path 1371" d="M524.056,310.675h-2.005l-.322.936H520.4l1.95-4.831h1.415l1.95,4.831h-1.329Zm-1.675-.943h1.345l-.668-2.038Z" transform="translate(-520.4 -306.78)" fill="#08182e"/>
        </g>
      </g>
      <g id="Component_12_495" data-name="Component 12 – 495" transform="translate(18.96 0)">
        <path id="Path_1372" data-name="Path 1372" d="M530.7,4.827a4.185,4.185,0,0,0,1.785-3.013h-1.552a2.7,2.7,0,0,1-2.458,2.21,2.7,2.7,0,0,1,2.25-2.472V0a4.281,4.281,0,0,0-3.066,1.785A3.889,3.889,0,0,0,524.614,0V1.593a2.571,2.571,0,0,1,2.257,2.432h0a2.68,2.68,0,0,1-2.516-2.211H522.8a4.185,4.185,0,0,0,1.785,3.013A3.821,3.821,0,0,0,522.8,7.821h1.593A2.548,2.548,0,0,1,526.864,5.6a2.7,2.7,0,0,1-2.25,2.483V9.635A4.281,4.281,0,0,0,527.68,7.85a3.889,3.889,0,0,0,3.047,1.785V8.042A2.571,2.571,0,0,1,528.469,5.6a2.543,2.543,0,0,1,2.425,2.217h1.593A3.82,3.82,0,0,0,530.7,4.827Z" transform="translate(-522.8)" fill="url(#linear-gradient-3)"/>
      </g>
    </g>
  </g>
</svg>
