<?xml version="1.0" encoding="utf-8"?>
<!-- Generator: Adobe Illustrator 24.1.1, SVG Export Plug-In . SVG Version: 6.00 Build 0)  -->
<svg version="1.1" id="Layer_1" xmlns="http://www.w3.org/2000/svg" xmlns:xlink="http://www.w3.org/1999/xlink" x="0px" y="0px"
	 viewBox="0 0 20.5 20.5" style="enable-background:new 0 0 20.5 20.5;" xml:space="preserve">
<g id="world_tour" transform="translate(-1083.75 -287.75)">
	<g id="globe" transform="translate(1082 286)">
		<g id="Ellipse_775">
			<path d="M12,22.3C6.3,22.3,1.8,17.7,1.8,12C1.8,6.3,6.3,1.8,12,1.8c5.7,0,10.3,4.6,10.3,10.3C22.3,17.7,17.7,22.3,12,22.3z
				 M12,2.3c-5.4,0-9.8,4.4-9.8,9.8s4.4,9.8,9.8,9.8s9.8-4.4,9.8-9.8S17.4,2.3,12,2.3z"/>
		</g>
		<g id="Line_119">
			<path d="M22,12.3H2c-0.1,0-0.3-0.1-0.3-0.3s0.1-0.3,0.3-0.3h20c0.1,0,0.3,0.1,0.3,0.3S22.1,12.3,22,12.3z"/>
		</g>
		<g id="Path_7947">
			<path d="M12,22.3c-0.1,0-0.1,0-0.2-0.1c-2.5-2.8-4-6.4-4.1-10.2c0.1-3.8,1.5-7.4,4.1-10.2c0.1-0.1,0.3-0.1,0.4,0
				c2.5,2.8,4,6.4,4.1,10.2c-0.1,3.8-1.5,7.4-4.1,10.2C12.1,22.2,12.1,22.3,12,22.3z M12,2.4C9.7,5,8.3,8.4,8.3,12
				c0.1,3.5,1.4,7,3.8,9.6c2.3-2.7,3.7-6.1,3.8-9.6C15.7,8.4,14.3,5,12,2.4z"/>
		</g>
	</g>
</g>
</svg>
