<svg xmlns="http://www.w3.org/2000/svg" width="44" height="44" viewBox="0 0 44 44">
  <g id="Group_4255" data-name="Group 4255" transform="translate(19133 12275)">
    <g id="Group_4254" data-name="Group 4254" transform="translate(14 208)">
      <circle id="Ellipse_295" data-name="Ellipse 295" cx="22" cy="22" r="22" transform="translate(-19147 -12483)" fill="#fff"/>
    </g>
    <g id="Group_4013" transform="translate(-17072 -17474.938)">
      <rect id="Rectangle_534" width="27" height="27" transform="translate(-2052 5209)" fill="none" opacity="0"/>
      <path id="Path_1592" d="M-2039,5221l-1.5,1.5-1.6,1.5-.4.4-1.2,1.1-1.6,1.6a3.652,3.652,0,0,0-.1,5.2l.1.1a3.654,3.654,0,0,0,4.5.6l1.4,1.4c.1.1.1.2.2.2a5.931,5.931,0,0,1-7.7-.6,5.885,5.885,0,0,1-.1-8.4l.1-.1,1.6-1.6,1.5-1.5,1.6-1.6.4-.4,1-1Zm.6,3.5,1.5,1.6,1.6,1.5,1.5,1.6-1.5,1.5-1.4,1.4c-.1-.1-.2-.2-.3-.2l-1.3-1.3,1.4-1.4-1.5-1.6-1.6-1.5-1.7-1.7,1.6-1.6Zm.2-.6,1.4-1.4,1.6-1.6.4-.4,1.2-1.2,1.6-1.6a3.652,3.652,0,0,0,.1-5.2l-.1-.1a3.654,3.654,0,0,0-4.5-.6l-1.4-1.4-.2-.2a5.959,5.959,0,0,1,8.4,1.3,5.948,5.948,0,0,1-.6,7.8l-1.6,1.5-1.2,1.2-.4.4-1.5,1.5-1.5,1.5Zm5-1.1,1.2,1.2,1.6,1.6a6.1,6.1,0,0,1,0,8.5,6.1,6.1,0,0,1-8.5,0h0l-1.6-1.7-1.6-1.6-1.6-1.5,1.6-1.6,1.4-1.4,1.6,1.5-1.5,1.5,1.6,1.5,1.6,1.6a3.773,3.773,0,0,0,5.3,0,3.869,3.869,0,0,0,0-5.3l-1.6-1.6-1.2-1.1Zm-5.7-2.5-1.6-1.6-1.6-1.6-1.6-1.5,1.6-1.6,1.4-1.4c.1.1.2.2.3.2l1.3,1.4-1.5,1.5,1.6,1.5,1.6,1.6,1.7,1.7-1.5,1.5Zm-5.2,1.7-1.2-1.2-1.6-1.6a6.1,6.1,0,0,1,0-8.5,6.005,6.005,0,0,1,8.5,0l1.5,1.6,1.6,1.5,1.5,1.6-1.5,1.5-1.5,1.5-1.5-1.6,1.4-1.4-1.5-1.6-1.6-1.5a3.652,3.652,0,0,0-5.2-.1l-.1.1a3.652,3.652,0,0,0-.1,5.2l.1.1,1.5,1.6,1.2,1.2Z" fill="#feb600" fill-rule="evenodd"/>
    </g>
  </g>
</svg>
