<svg xmlns="http://www.w3.org/2000/svg" xmlns:xlink="http://www.w3.org/1999/xlink" width="36" height="36" viewBox="0 0 36 36">
  <defs>
    <clipPath id="clip-path">
      <rect id="Rectangle_4146" data-name="Rectangle 4146" width="20" height="20"/>
    </clipPath>
  </defs>
  <g id="Group_4319" data-name="Group 4319" transform="translate(-477 -474)">
    <g id="a" transform="translate(485 482)" clip-path="url(#clip-path)">
      <path id="Path_9268" data-name="Path 9268" d="M21.946,14.517a.554.554,0,0,1-.786,0l-.786-.786a.554.554,0,0,1,0-.786l1.571-1.571a.555.555,0,0,1,.786,0l.786.786a.554.554,0,0,1,0,.786ZM13.612,6.184a.554.554,0,0,1-.786,0L12.041,5.4a.554.554,0,0,1,0-.786l1.571-1.571a.555.555,0,0,1,.786,0l.786.786a.554.554,0,0,1,0,.786Z" transform="translate(-5.279 -1.279)" fill="#66757f"/>
      <path id="Path_9269" data-name="Path 9269" d="M1.264,14.906c1.111,0,6.111.556,6.111.556s.556,5,.556,6.111-1.111,1.111-1.667.556A34.029,34.029,0,0,1,4.042,18.8,34.027,34.027,0,0,1,.708,16.572C.153,16.017.153,14.906,1.264,14.906ZM2.375,6.039c1.667-.022,13.889.534,13.889.534s.513,12.222.534,13.889-1.535,2.223-2.146,0-2.833-9.445-2.833-9.445S4.066,8.563,2.372,8.182C.153,7.684.708,6.06,2.375,6.039Z" transform="translate(-0.153 -2.684)" fill="#55acee"/>
      <path id="Path_9270" data-name="Path 9270" d="M17.531,1.937C18.642.826,21.42.27,21.975.826s0,3.333-1.111,4.444-10.556,10-10.556,10S6.7,17.77,5.864,16.937s1.667-4.444,1.667-4.444S16.42,3.048,17.531,1.937Z" transform="translate(-2.531 -0.27)" fill="#ccd6dd"/>
      <path id="Path_9271" data-name="Path 9271" d="M9.993,13.556s.278.278-2.222,2.778-2.778,2.222-2.778,2.222-.278-.278,2.222-2.778S9.993,13.556,9.993,13.556Zm8.333-10a1.667,1.667,0,0,1,1.667,1.667h.447a1.62,1.62,0,0,0,.108-.556A1.667,1.667,0,0,0,18.882,3a1.62,1.62,0,0,0-.556.108Z" transform="translate(-2.215 -1.333)" fill="#66757f"/>
      <rect id="Rectangle_4145" data-name="Rectangle 4145" width="20" height="20" fill="rgba(0,0,0,0)"/>
    </g>
    <g id="Ellipse_352" data-name="Ellipse 352" transform="translate(477 474)" fill="none" stroke="#e7e8ed" stroke-width="1">
      <circle cx="18" cy="18" r="18" stroke="none"/>
      <circle cx="18" cy="18" r="17.5" fill="none"/>
    </g>
  </g>
</svg>
