<svg xmlns="http://www.w3.org/2000/svg" width="36" height="36" viewBox="0 0 36 36">
  <g id="Group_4300" data-name="Group 4300" transform="translate(-32 -2062)">
    <g id="Ellipse_318" data-name="Ellipse 318" transform="translate(32 2062)" fill="none" stroke="#e7e8ed" stroke-width="1">
      <circle cx="18" cy="18" r="18" stroke="none"/>
      <circle cx="18" cy="18" r="17.5" fill="none"/>
    </g>
    <g id="Candy" transform="translate(41.584 2070)">
      <g id="Group_43" data-name="Group 43" transform="translate(-0.003)">
        <g id="Group_41" data-name="Group 41" transform="translate(3.691 0.134)">
          <path id="Path_118" data-name="Path 118" d="M140.144,302.391a4.239,4.239,0,0,1-4.338-4.235,3.367,3.367,0,0,1,3.445-3.454,2.949,2.949,0,0,1,2.832,3.048.449.449,0,1,1-.9,0,2.069,2.069,0,0,0-1.946-2.166,2.489,2.489,0,0,0-2.572,2.572,3.367,3.367,0,0,0,3.465,3.367,4.237,4.237,0,0,0,4.329-4.332c0-2.9-2.179-4.778-5.559-4.778a.449.449,0,0,1-.433-.449.433.433,0,0,1,.433-.433,5.75,5.75,0,0,1,6.435,5.654,5.162,5.162,0,0,1-5.193,5.207Z" transform="translate(-135.805 -291.49)" fill="#802a8a"/>
        </g>
        <g id="Group_42" data-name="Group 42">
          <path id="Path_119" data-name="Path 119" d="M141.831,306.137a7.346,7.346,0,1,1,7.346-7.346,7.346,7.346,0,0,1-7.346,7.346Zm0-13.482a6.136,6.136,0,1,0,6.138,6.134A6.136,6.136,0,0,0,141.831,292.655Z" transform="translate(-134.485 -291.445)" fill="#802a8a"/>
        </g>
      </g>
      <g id="Group_44" data-name="Group 44" transform="translate(9.751 13.408)">
        <path id="Path_120" data-name="Path 120" d="M142.884,300.707a1.441,1.441,0,0,1-.613,1.957h0a1.452,1.452,0,0,1-1.957-.615l-2.343-4.471a14.7,14.7,0,0,0,1.418-.6,10.4,10.4,0,0,0,1.154-.738Z" transform="translate(-137.971 -296.236)" fill="#802a8a"/>
      </g>
    </g>
  </g>
</svg>
