<svg xmlns="http://www.w3.org/2000/svg" xmlns:xlink="http://www.w3.org/1999/xlink" width="36" height="36" viewBox="0 0 36 36">
  <defs>
    <clipPath id="clip-path">
      <rect id="Rectangle_4134" data-name="Rectangle 4134" width="20" height="20"/>
    </clipPath>
  </defs>
  <g id="Group_4313" data-name="Group 4313" transform="translate(-474 -84)">
    <g id="Ellipse_343" data-name="Ellipse 343" transform="translate(474 84)" fill="none" stroke="#e7e8ed" stroke-width="1">
      <circle cx="18" cy="18" r="18" stroke="none"/>
      <circle cx="18" cy="18" r="17.5" fill="none"/>
    </g>
    <g id="a" transform="translate(482 93)" clip-path="url(#clip-path)">
      <path id="Path_9242" data-name="Path 9242" d="M19.2,1.667A24.146,24.146,0,0,0,10.869,0,24.146,24.146,0,0,0,2.535,1.667C.869,10,2.535,17.222,10.869,20,19.2,17.222,20.869,10,19.2,1.667Z" transform="translate(-0.869)" fill="#ccd6dd"/>
      <path id="Path_9243" data-name="Path 9243" d="M11.755,19.713C5.317,17.405,2.844,11.906,4.4,3.358A23.548,23.548,0,0,1,11.755,2a23.706,23.706,0,0,1,7.356,1.358c1.555,8.548-.918,14.047-7.356,16.356Z" transform="translate(-1.755 -0.889)" fill="#55acee"/>
      <path id="Path_9244" data-name="Path 9244" d="M25.356,3.358A23.706,23.706,0,0,0,18,2V19.713c6.438-2.308,8.911-7.807,7.356-16.356Z" transform="translate(-8 -0.889)" fill="#269"/>
      <rect id="Rectangle_4133" data-name="Rectangle 4133" width="20" height="20" fill="rgba(0,0,0,0)"/>
    </g>
  </g>
</svg>
