<svg xmlns="http://www.w3.org/2000/svg" width="36" height="36" viewBox="0 0 36 36">
  <g id="Group_4302" data-name="Group 4302" transform="translate(-32 -2206)">
    <g id="Ellipse_320" data-name="Ellipse 320" transform="translate(32 2206)" fill="none" stroke="#e7e8ed" stroke-width="1">
      <circle cx="18" cy="18" r="18" stroke="none"/>
      <circle cx="18" cy="18" r="17.5" fill="none"/>
    </g>
    <g id="Group_4297" data-name="Group 4297" transform="translate(543 1728)">
      <g id="Group_4292" data-name="Group 4292" transform="translate(-503 486)">
        <circle id="Ellipse_321" data-name="Ellipse 321" cx="9.907" cy="9.907" r="9.907" transform="translate(0.093 0.093)" fill="#a8e4ff"/>
        <path id="Path_9185" data-name="Path 9185" d="M-493,506a10.011,10.011,0,0,1-10-10,10.011,10.011,0,0,1,10-10,10.011,10.011,0,0,1,10,10A10.011,10.011,0,0,1-493,506Zm0-19.813A9.824,9.824,0,0,0-502.813,496,9.824,9.824,0,0,0-493,505.813,9.824,9.824,0,0,0-483.187,496,9.824,9.824,0,0,0-493,486.187Z" transform="translate(503 -486)"/>
      </g>
      <g id="Group_4293" data-name="Group 4293" transform="translate(-501.432 490.635)">
        <path id="Path_9186" data-name="Path 9186" d="M-485.9,512.89a24.042,24.042,0,0,1-4.415-.39,11.658,11.658,0,0,1-4.3-1.549l.105-.155a11.479,11.479,0,0,0,4.226,1.52,23.862,23.862,0,0,0,4.381.387h.093a23.638,23.638,0,0,0,4.645-.458,12.112,12.112,0,0,0,3.468-1.2l.093.162a12.288,12.288,0,0,1-3.523,1.222,23.831,23.831,0,0,1-4.682.462Z" transform="translate(494.611 -510.796)"/>
      </g>
      <g id="Group_4294" data-name="Group 4294" transform="translate(-501.432 499.271)">
        <path id="Path_9187" data-name="Path 9187" d="M-494.506,559.094l-.105-.155a11.658,11.658,0,0,1,4.3-1.549A24.038,24.038,0,0,1-485.9,557h.093a23.821,23.821,0,0,1,4.683.462,12.283,12.283,0,0,1,3.522,1.221l-.093.162a12.106,12.106,0,0,0-3.468-1.2,23.632,23.632,0,0,0-4.645-.458h-.093a23.862,23.862,0,0,0-4.381.387A11.479,11.479,0,0,0-494.506,559.094Z" transform="translate(494.611 -557)"/>
      </g>
      <g id="Group_4295" data-name="Group 4295" transform="translate(-497.579 486)">
        <path id="Path_9188" data-name="Path 9188" d="M-468.953,506c-2.783,0-5.047-4.486-5.047-10s2.264-10,5.047-10,5.047,4.486,5.047,10S-466.17,506-468.953,506Zm0-19.813c-2.68,0-4.86,4.4-4.86,9.813s2.18,9.813,4.86,9.813,4.86-4.4,4.86-9.813S-466.274,486.187-468.953,486.187Z" transform="translate(474 -486)"/>
      </g>
      <g id="Group_4296" data-name="Group 4296" transform="translate(-492.72 486.093)">
        <rect id="Rectangle_4114" data-name="Rectangle 4114" width="0.187" height="19.813" transform="translate(0)"/>
      </g>
    </g>
  </g>
</svg>
