<svg xmlns="http://www.w3.org/2000/svg" width="36" height="36" viewBox="0 0 36 36">
  <g id="Group_4301" data-name="Group 4301" transform="translate(-32 -2134)">
    <g id="Ellipse_319" data-name="Ellipse 319" transform="translate(32 2134)" fill="none" stroke="#e7e8ed" stroke-width="1">
      <circle cx="18" cy="18" r="18" stroke="none"/>
      <circle cx="18" cy="18" r="17.5" fill="none"/>
    </g>
    <g id="Page-1" transform="translate(41 2142)">
      <g id="_078---Watch-Touchscreen" data-name="078---Watch-Touchscreen" transform="translate(0 0)">
        <path id="Shape" d="M32.37,4.483h-.69a1.014,1.014,0,0,1,.769.345.993.993,0,0,1,.2.345.956.956,0,0,1,.062.345,1.034,1.034,0,0,1-1.034,1.034h-.345A1.014,1.014,0,0,1,32.1,6.9a.993.993,0,0,1,.2.345.956.956,0,0,1,.062.345,1.034,1.034,0,0,1-1.034,1.034h-.345a1.014,1.014,0,0,1,.769.345.993.993,0,0,1,.2.345.956.956,0,0,1,.062.345,1.034,1.034,0,0,1-1.034,1.034H25.819a3.437,3.437,0,0,1-2.328-.907A5.672,5.672,0,0,0,20.46,8.331l.49-1.979a2.559,2.559,0,0,0,0-2.7l-.39-1.579H21.3A4.244,4.244,0,0,0,24.174.91,3.435,3.435,0,0,1,26.508,0h1.724A2.069,2.069,0,0,1,30.3,2.069v.345H32.37a1.014,1.014,0,0,1,.769.345.993.993,0,0,1,.2.345.956.956,0,0,1,.062.345A1.034,1.034,0,0,1,32.37,4.483Z" transform="translate(-13.405 0)" fill="#fdd7ad"/>
        <g id="Group_4291" data-name="Group 4291" transform="translate(12.759 2.414)">
          <path id="Shape-2" data-name="Shape" d="M44.179,7.69H37.345a.345.345,0,0,1,0-.69h5.862a1.014,1.014,0,0,1,.769.345A.993.993,0,0,1,44.179,7.69Z" transform="translate(-37 -7)" fill="#cbb292"/>
          <path id="Shape-3" data-name="Shape" d="M47.421,13.69H43.345a.345.345,0,1,1,0-.69h3.1a1.014,1.014,0,0,1,.769.345A.993.993,0,0,1,47.421,13.69Z" transform="translate(-40.931 -10.931)" fill="#cbb292"/>
          <path id="Shape-4" data-name="Shape" d="M47.076,19.69H43.345a.345.345,0,1,1,0-.69H46.1a1.014,1.014,0,0,1,.769.345A.993.993,0,0,1,47.076,19.69Z" transform="translate(-40.931 -14.862)" fill="#cbb292"/>
          <path id="Shape-5" data-name="Shape" d="M46.731,25.69H43.345a.345.345,0,1,1,0-.69h2.414a1.014,1.014,0,0,1,.769.345A.993.993,0,0,1,46.731,25.69Z" transform="translate(-40.931 -18.793)" fill="#cbb292"/>
        </g>
        <path id="Shape-6" data-name="Shape" d="M31.694,27.724H29.422a3.437,3.437,0,0,1-2.328-.907A6.066,6.066,0,0,0,25.96,26h.014a1.705,1.705,0,0,1,.593.107,1.651,1.651,0,0,1,.669.438,1.724,1.724,0,0,1,.807-.2,1.706,1.706,0,0,1,.593.107,1.651,1.651,0,0,1,.669.438,1.728,1.728,0,0,1,2.39.834Z" transform="translate(-17.008 -17.034)" fill="#f9c795"/>
        <path id="Shape-7" data-name="Shape" d="M3.621,12.207H.69a.692.692,0,0,1-.69-.69V6.69A.692.692,0,0,1,.69,6H3.534l-.39,1.579a2.559,2.559,0,0,0,0,2.7Z" transform="translate(0 -3.931)" fill="#fdd7ad"/>
        <path id="Shape-8" data-name="Shape" d="M13.52,5.614a2.578,2.578,0,0,0-4.4,0l.39-1.579.128-.51A.693.693,0,0,1,10.306,3h2.028A.693.693,0,0,1,13,3.524l.128.51Z" transform="translate(-5.975 -1.966)" fill="#3b97d3"/>
        <path id="Shape-9" data-name="Shape" d="M13.52,18.42,13.03,20.4,13,20.51a.693.693,0,0,1-.669.524H10.306a.693.693,0,0,1-.669-.524L9.6,20.344,9.12,18.42a2.578,2.578,0,0,0,4.4,0Z" transform="translate(-5.975 -12.068)" fill="#3b97d3"/>
        <path id="Shape-10" data-name="Shape" d="M13.172,9.586a2.546,2.546,0,0,1-.386,1.352,2.585,2.585,0,1,1-.052-2.786l.052.083A2.546,2.546,0,0,1,13.172,9.586Z" transform="translate(-5.241 -4.586)" fill="#7ed09e"/>
        <path id="Shape-11" data-name="Shape" d="M15.793,11.551a2.546,2.546,0,0,1-.386,1.352,2.578,2.578,0,0,1-2.969,1.117l-.052-.083a2.585,2.585,0,0,1,2.969-3.821l.052.083A2.546,2.546,0,0,1,15.793,11.551Z" transform="translate(-7.862 -6.551)" fill="#71c285"/>
        <path id="Shape-12" data-name="Shape" d="M9.931,11.871a2.93,2.93,0,1,1,2.493-1.4,2.925,2.925,0,0,1-2.493,1.4Zm0-5.172a2.237,2.237,0,1,0,2.2,1.829A2.236,2.236,0,0,0,9.931,6.7Z" transform="translate(-4.586 -3.94)" fill="#ecf0f1"/>
        <path id="Shape-13" data-name="Shape" d="M20.689,21.862v5.172a3.448,3.448,0,0,1-3.448,3.448H13.448A3.448,3.448,0,0,1,10,27.034V22.793a1.261,1.261,0,0,1,1.252-1.276,1.215,1.215,0,0,1,1.162,1.207v-5.69A1.034,1.034,0,0,1,13.448,16a.956.956,0,0,1,.345.062.979.979,0,0,1,.386.241,1.032,1.032,0,0,1,.3.731v4.138a1.034,1.034,0,0,1,1.034-1.034.956.956,0,0,1,.345.062,1.023,1.023,0,0,1,.69.972v.345a1.034,1.034,0,0,1,1.034-1.034.956.956,0,0,1,.345.062,1.023,1.023,0,0,1,.69.972v.345a1.034,1.034,0,0,1,2.069,0Z" transform="translate(-6.552 -10.483)" fill="#fdd7ad"/>
        <path id="Shape-14" data-name="Shape" d="M15.69,33.43V37.05a.345.345,0,1,1-.69,0V32.34a1.207,1.207,0,0,1,.334.238A1.193,1.193,0,0,1,15.69,33.43Z" transform="translate(-9.828 -21.188)" fill="#cbb292"/>
        <path id="Shape-15" data-name="Shape" d="M21.69,17.152v7.241a.345.345,0,0,1-.69,0V16.18a.979.979,0,0,1,.386.241A1.032,1.032,0,0,1,21.69,17.152Z" transform="translate(-13.759 -10.601)" fill="#cbb292"/>
        <path id="Shape-16" data-name="Shape" d="M27.69,29.152v3.1a.345.345,0,1,1-.69,0V28.18A1.023,1.023,0,0,1,27.69,29.152Z" transform="translate(-17.69 -18.463)" fill="#cbb292"/>
        <path id="Shape-17" data-name="Shape" d="M33.69,30.152v2.759a.345.345,0,0,1-.69,0V29.18A1.023,1.023,0,0,1,33.69,30.152Z" transform="translate(-21.621 -19.118)" fill="#cbb292"/>
      </g>
    </g>
  </g>
</svg>
