<svg xmlns="http://www.w3.org/2000/svg" width="36" height="36" viewBox="0 0 36 36">
  <g id="Group_4299" data-name="Group 4299" transform="translate(-32 -1990)">
    <g id="Ellipse_317" data-name="Ellipse 317" transform="translate(32 1990)" fill="none" stroke="#e7e8ed" stroke-width="1">
      <circle cx="18" cy="18" r="18" stroke="none"/>
      <circle cx="18" cy="18" r="17.5" fill="none"/>
    </g>
    <g id="laptop" transform="translate(38.516 1963.933)">
      <path id="Path_9147" data-name="Path 9147" d="M22.967,306.527H0l3.254-6.794H19.713Z" transform="translate(0 -254.704)" fill="#f3f3f3"/>
      <path id="Path_9148" data-name="Path 9148" d="M22.967,451.2H0a1.267,1.267,0,0,0,1.244,1.244H21.723A1.267,1.267,0,0,0,22.967,451.2Z" transform="translate(0 -399.377)" fill="#ced6e0"/>
      <g id="Group_4290" data-name="Group 4290" transform="translate(3.206 45.507)">
        <path id="Path_9149" data-name="Path 9149" d="M128.034,310.879l.1-.478h-1.053l-.144.478Z" transform="translate(-124.445 -310.4)" fill="#415a6b"/>
        <path id="Path_9150" data-name="Path 9150" d="M390.591,310.879h1.1l-.191-.478h-1.1Z" transform="translate(-376.094 -310.4)" fill="#415a6b"/>
        <path id="Path_9151" data-name="Path 9151" d="M395.924,325.859h1.148l-.239-.526h-1.1Z" transform="translate(-381.188 -324.663)" fill="#415a6b"/>
        <path id="Path_9152" data-name="Path 9152" d="M194.167,310.879l.048-.478h-1.053l-.1.478Z" transform="translate(-187.612 -310.4)" fill="#415a6b"/>
        <path id="Path_9153" data-name="Path 9153" d="M228.3,310.879V310.4h-1.053l-.048.478Z" transform="translate(-220.214 -310.4)" fill="#415a6b"/>
        <path id="Path_9154" data-name="Path 9154" d="M161.1,310.879l.1-.478h-1.053l-.144.478Z" transform="translate(-156.029 -310.4)" fill="#415a6b"/>
        <path id="Path_9155" data-name="Path 9155" d="M297.6,359.467l.048.622h1.244l-.1-.622Z" transform="translate(-287.456 -357.266)" fill="#415a6b"/>
        <path id="Path_9156" data-name="Path 9156" d="M371.2,359.467l.144.622h1.244l-.191-.622Z" transform="translate(-357.755 -357.266)" fill="#415a6b"/>
        <path id="Path_9157" data-name="Path 9157" d="M94.092,310.4h-1.1l-.191.478h1.1Z" transform="translate(-91.843 -310.4)" fill="#415a6b"/>
        <path id="Path_9158" data-name="Path 9158" d="M72.95,359.467h-1.2l-.287.622h1.244Z" transform="translate(-71.467 -357.266)" fill="#415a6b"/>
        <path id="Path_9159" data-name="Path 9159" d="M147.344,359.467l-.144.622h6.364l-.048-.622Z" transform="translate(-143.803 -357.266)" fill="#415a6b"/>
        <path id="Path_9160" data-name="Path 9160" d="M80.321,341.333H79.172l-.239.622h1.2Z" transform="translate(-78.598 -339.945)" fill="#415a6b"/>
        <path id="Path_9161" data-name="Path 9161" d="M261.367,310.879l-.048-.478h-1.053v.478Z" transform="translate(-251.798 -310.4)" fill="#415a6b"/>
        <path id="Path_9162" data-name="Path 9162" d="M110.058,359.467l-.191.622h1.244l.144-.622Z" transform="translate(-108.145 -357.266)" fill="#415a6b"/>
        <path id="Path_9163" data-name="Path 9163" d="M156.881,325.859l.1-.526h-1.1l-.144.526Z" transform="translate(-151.953 -324.663)" fill="#415a6b"/>
        <path id="Path_9164" data-name="Path 9164" d="M402.324,341.955h1.2l-.239-.622h-1.148Z" transform="translate(-387.3 -339.945)" fill="#415a6b"/>
        <path id="Path_9165" data-name="Path 9165" d="M407.706,360.089h1.244l-.287-.622h-1.2Z" transform="translate(-392.395 -357.266)" fill="#415a6b"/>
        <path id="Path_9166" data-name="Path 9166" d="M225.067,341.333v.622h1.148l.048-.622Z" transform="translate(-218.177 -339.945)" fill="#415a6b"/>
        <path id="Path_9167" data-name="Path 9167" d="M188.848,341.333l-.048.622h1.148l.1-.622Z" transform="translate(-183.537 -339.945)" fill="#415a6b"/>
        <path id="Path_9168" data-name="Path 9168" d="M151.611,341.333l-.144.622h1.2l.1-.622Z" transform="translate(-147.878 -339.945)" fill="#415a6b"/>
        <path id="Path_9169" data-name="Path 9169" d="M295.6,325.859l-.1-.526h-1.1l.048.526Z" transform="translate(-284.4 -324.663)" fill="#415a6b"/>
        <path id="Path_9170" data-name="Path 9170" d="M329.777,325.859l-.144-.526h-1.1l.1.526Z" transform="translate(-317.002 -324.663)" fill="#415a6b"/>
        <path id="Path_9171" data-name="Path 9171" d="M261.415,325.859l-.048-.526h-1.1v.526Z" transform="translate(-251.798 -324.663)" fill="#415a6b"/>
        <path id="Path_9172" data-name="Path 9172" d="M227.281,325.859v-.526h-1.1l-.048.526Z" transform="translate(-219.195 -324.663)" fill="#415a6b"/>
        <path id="Path_9173" data-name="Path 9173" d="M192.081,325.859l.048-.526h-1.1l-.1.526Z" transform="translate(-185.574 -324.663)" fill="#415a6b"/>
        <path id="Path_9174" data-name="Path 9174" d="M116.54,341.333h-1.148l-.191.622h1.2Z" transform="translate(-113.238 -339.945)" fill="#415a6b"/>
        <path id="Path_9175" data-name="Path 9175" d="M260.267,341.333l.048.622h1.148v-.622Z" transform="translate(-251.798 -339.945)" fill="#415a6b"/>
        <path id="Path_9176" data-name="Path 9176" d="M361.744,325.859h1.148l-.144-.526H361.6Z" transform="translate(-348.586 -324.663)" fill="#415a6b"/>
        <path id="Path_9177" data-name="Path 9177" d="M367.077,341.955h1.2l-.191-.622h-1.148Z" transform="translate(-353.679 -339.945)" fill="#415a6b"/>
        <path id="Path_9178" data-name="Path 9178" d="M359.6,310.879l-.144-.478H358.4l.1.478Z" transform="translate(-345.529 -310.4)" fill="#415a6b"/>
        <path id="Path_9179" data-name="Path 9179" d="M295.869,310.4l.1.478h-2.584l-.048-.478Z" transform="translate(-283.381 -310.4)" fill="#415a6b"/>
        <path id="Path_9180" data-name="Path 9180" d="M295.467,341.333l.1.622h1.148l-.048-.622Z" transform="translate(-285.419 -339.945)" fill="#415a6b"/>
        <path id="Path_9181" data-name="Path 9181" d="M331.733,342.4l.239,1.388h1.244l-.335-1.388Z" transform="translate(-320.058 -340.965)" fill="#415a6b"/>
        <path id="Path_9182" data-name="Path 9182" d="M89.271,325.333H86.639l-.239.526h2.727Z" transform="translate(-85.73 -324.663)" fill="#415a6b"/>
      </g>
      <path id="Path_9183" data-name="Path 9183" d="M201.626,387.268h-5.359l1.1-2.2h3.158Z" transform="translate(-187.463 -336.211)" fill="#ced6e0"/>
      <path id="Path_9184" data-name="Path 9184" d="M72.533,34.072V45.029H88.992V34.072a1.011,1.011,0,0,0-1-1H73.538A1.011,1.011,0,0,0,72.533,34.072Z" transform="translate(-69.279)" fill="#415a6b"/>
      <rect id="Rectangle_4108" data-name="Rectangle 4108" width="14.45" height="10" transform="translate(4.258 34.072)" fill="#55c0eb"/>
    </g>
  </g>
</svg>
