<svg xmlns="http://www.w3.org/2000/svg" xmlns:xlink="http://www.w3.org/1999/xlink" width="35" height="35" viewBox="0 0 35 35">
  <defs>
    <linearGradient id="linear-gradient" x1="0.5" y1="0.008" x2="0.5" y2="0.998" gradientUnits="objectBoundingBox">
      <stop offset="0" stop-color="#e09b3d"/>
      <stop offset="0.3" stop-color="#c74c4d"/>
      <stop offset="0.6" stop-color="#c21975"/>
      <stop offset="1" stop-color="#7024c4"/>
    </linearGradient>
    <linearGradient id="linear-gradient-2" y1="-0.451" y2="1.462" xlink:href="#linear-gradient"/>
    <linearGradient id="linear-gradient-3" y1="-1.396" y2="6.586" xlink:href="#linear-gradient"/>
  </defs>
  <g id="Group_4150" data-name="Group 4150" transform="translate(-578 -482)">
    <rect id="Rectangle_1182" data-name="Rectangle 1182" width="35" height="35" transform="translate(578 482)" fill="#fff" opacity="0"/>
    <g id="_002-instagram" data-name="002-instagram" transform="translate(578 482)">
      <path id="Path_7950" data-name="Path 7950" d="M24.573,0H10.427A10.438,10.438,0,0,0,0,10.427V24.573A10.438,10.438,0,0,0,10.427,35H24.573A10.438,10.438,0,0,0,35,24.573V10.427A10.439,10.439,0,0,0,24.573,0Zm6.906,24.573a6.906,6.906,0,0,1-6.906,6.906H10.427a6.906,6.906,0,0,1-6.906-6.906V10.427a6.906,6.906,0,0,1,6.906-6.906H24.573a6.906,6.906,0,0,1,6.906,6.906V24.573Z" fill="url(#linear-gradient)"/>
      <path id="Path_7951" data-name="Path 7951" d="M142.052,133a9.052,9.052,0,1,0,9.052,9.052A9.062,9.062,0,0,0,142.052,133Zm0,14.583a5.531,5.531,0,1,1,5.531-5.531A5.531,5.531,0,0,1,142.052,147.583Z" transform="translate(-124.552 -124.552)" fill="url(#linear-gradient-2)"/>
      <circle id="Ellipse_776" data-name="Ellipse 776" cx="2.169" cy="2.169" r="2.169" transform="translate(24.401 6.347)" fill="url(#linear-gradient-3)"/>
    </g>
  </g>
</svg>
