<svg xmlns="http://www.w3.org/2000/svg" width="35" height="35" viewBox="0 0 35 35">
  <g id="Group_4152" data-name="Group 4152" transform="translate(-401 -482)">
    <rect id="Rectangle_1183" data-name="Rectangle 1183" width="35" height="35" transform="translate(401 482)" fill="#fff" opacity="0"/>
    <path id="_001-facebook" data-name="001-facebook" d="M30.249,0H4.713A4.711,4.711,0,0,0,0,4.711V30.247a4.711,4.711,0,0,0,4.711,4.711H17.307l.021-12.492H14.083a.766.766,0,0,1-.766-.763L13.3,17.676a.766.766,0,0,1,.766-.769h3.24V13.017c0-4.515,2.758-6.974,6.786-6.974H27.4a.766.766,0,0,1,.766.766v3.4a.766.766,0,0,1-.765.766H25.37c-2.19,0-2.615,1.041-2.615,2.568v3.368h4.813a.766.766,0,0,1,.76.856l-.477,4.027a.766.766,0,0,1-.76.676H22.777l-.021,12.492h7.494a4.711,4.711,0,0,0,4.711-4.711V4.711A4.711,4.711,0,0,0,30.249,0Z" transform="translate(400.998 482)" fill="#475993"/>
  </g>
</svg>
