<svg xmlns="http://www.w3.org/2000/svg" width="35" height="35" viewBox="0 0 35 35">
  <g id="Group_4149" data-name="Group 4149" transform="translate(-666 -482)">
    <rect id="Rectangle_1181" data-name="Rectangle 1181" width="35" height="35" transform="translate(666 482)" fill="#fff" opacity="0"/>
    <path id="_004-twitter" data-name="004-twitter" d="M34.4,37.874a13.843,13.843,0,0,1-2.41.813,7.515,7.515,0,0,0,1.984-3.159h0a.394.394,0,0,0-.576-.459h0a13.909,13.909,0,0,1-3.685,1.522.939.939,0,0,1-.23.029.977.977,0,0,1-.645-.246,7.536,7.536,0,0,0-4.987-1.882,8.058,8.058,0,0,0-2.388.369,7.3,7.3,0,0,0-4.921,5.261,8.04,8.04,0,0,0-.179,2.775.27.27,0,0,1-.068.211.279.279,0,0,1-.208.094h-.027A19.762,19.762,0,0,1,2.48,35.943h0a.394.394,0,0,0-.646.051h0A7.545,7.545,0,0,0,3.06,45.155a6.753,6.753,0,0,1-1.719-.665h0a.394.394,0,0,0-.585.34h0a7.546,7.546,0,0,0,4.4,6.952l-.161,0a6.782,6.782,0,0,1-1.27-.121h0a.394.394,0,0,0-.449.507h0a7.553,7.553,0,0,0,5.966,5.138,13.907,13.907,0,0,1-7.789,2.365H.583a.577.577,0,0,0-.564.435.6.6,0,0,0,.286.66,20.685,20.685,0,0,0,10.394,2.8,20.969,20.969,0,0,0,8.883-1.884,19.615,19.615,0,0,0,6.5-4.87,21.352,21.352,0,0,0,3.98-6.665,21.055,21.055,0,0,0,1.353-7.295V42.74a1.282,1.282,0,0,1,.48-1,14.9,14.9,0,0,0,3-3.289h0a.394.394,0,0,0-.487-.579Z" transform="translate(666 450.484)" fill="#76a9ea"/>
  </g>
</svg>
