<svg xmlns="http://www.w3.org/2000/svg" width="35" height="35" viewBox="0 0 35 35">
  <g id="Group_4151" data-name="Group 4151" transform="translate(-489 -482)">
    <rect id="Rectangle_1180" data-name="Rectangle 1180" width="35" height="35" transform="translate(489 482)" fill="#fff" opacity="0"/>
    <path id="_003-youtube" data-name="003-youtube" d="M27.731,67.393H7.269A7.269,7.269,0,0,0,0,74.662V84.891A7.269,7.269,0,0,0,7.269,92.16H27.731A7.269,7.269,0,0,0,35,84.891V74.662A7.269,7.269,0,0,0,27.731,67.393ZM22.815,80.274l-9.571,4.565a.384.384,0,0,1-.55-.347V75.077a.384.384,0,0,1,.558-.343l9.571,4.85A.384.384,0,0,1,22.815,80.274Z" transform="translate(489 419.684)" fill="#f61c0d"/>
  </g>
</svg>
