<svg xmlns="http://www.w3.org/2000/svg" xmlns:xlink="http://www.w3.org/1999/xlink" width="40" height="40" viewBox="0 0 40 40">
  <defs>
    <clipPath id="clip-path">
      <rect id="Rectangle_1263" data-name="Rectangle 1263" width="40" height="40"/>
    </clipPath>
  </defs>
  <g id="a" clip-path="url(#clip-path)">
    <circle id="Ellipse_24" data-name="Ellipse 24" cx="20" cy="20" r="20" fill="#e17000"/>
    <g id="Group_4522" data-name="Group 4522" transform="translate(6.364 6.364)">
      <path id="Path_1722" data-name="Path 1722" d="M2.974,5.9A.977.977,0,0,0,2,6.87V19.533a1.954,1.954,0,0,0,1.948,1.948H16.61a.974.974,0,0,0,0-1.948H4.922a.977.977,0,0,1-.974-.974V6.87A.977.977,0,0,0,2.974,5.9ZM19.533,2H7.845A1.954,1.954,0,0,0,5.9,3.948V15.636a1.954,1.954,0,0,0,1.948,1.948H19.533a1.954,1.954,0,0,0,1.948-1.948V3.948A1.954,1.954,0,0,0,19.533,2Zm-1.948,8.766H9.792a.974.974,0,1,1,0-1.948h7.792a.974.974,0,0,1,0,1.948Zm-3.9,3.9h-3.9a.974.974,0,1,1,0-1.948h3.9a.974.974,0,1,1,0,1.948Zm3.9-7.792H9.792a.974.974,0,0,1,0-1.948h7.792a.974.974,0,0,1,0,1.948Z" transform="translate(1.896 1.896)" fill="#fff"/>
      <rect id="Rectangle_1262" data-name="Rectangle 1262" width="27.273" height="27.273" fill="none"/>
    </g>
  </g>
</svg>
