<?xml version="1.0" encoding="utf-8"?>
<!-- Generator: Adobe Illustrator 24.3.0, SVG Export Plug-In . SVG Version: 6.00 Build 0)  -->
<svg version="1.1" id="request_quote-24px" xmlns="http://www.w3.org/2000/svg" xmlns:xlink="http://www.w3.org/1999/xlink" x="0px"
	 y="0px" viewBox="0 0 30 30" style="enable-background:new 0 0 30 30;" xml:space="preserve">
<style type="text/css">
	.st0{fill:none;}
	.st1{fill:#E17000;}
</style>
<rect id="Rectangle_4024" class="st0" width="30" height="30"/>
<path id="Subtraction_55" class="st1" d="M22.5,27.5h-15C6.1,27.5,5,26.4,5,25V5c0-1.4,1.1-2.5,2.5-2.5h9c0.7,0,1.3,0.3,1.8,0.7l6,6
	C24.7,9.7,25,10.4,25,11v14C25,26.4,23.9,27.5,22.5,27.5z M13.6,20.8V23h2.2v-3.9l1.3-0.9v-1.1L15.8,18v-0.7l1.3-0.9v-1.1l-1.3,0.9
	v-1.7h3v-2h-8.3v2h3v3.4l-1.3,0.9v1.1l1.3-0.9v0.7l-1.3,0.9v1.1L13.6,20.8L13.6,20.8z M16.2,4.4L16.2,4.4v4.4c0,0.7,0.6,1.2,1.2,1.2
	h4.4L16.2,4.4z"/>
</svg>
