<?xml version="1.0" encoding="utf-8"?>
<!-- Generator: Adobe Illustrator 24.3.0, SVG Export Plug-In . SVG Version: 6.00 Build 0)  -->
<svg version="1.1" id="Layer_1" xmlns="http://www.w3.org/2000/svg" xmlns:xlink="http://www.w3.org/1999/xlink" x="0px" y="0px"
	 viewBox="0 0 20 20" style="enable-background:new 0 0 20 20;" xml:space="preserve">
<style type="text/css">
	.st0{opacity:0;fill:#FFFFFF;}
	.st1{fill:#08182E;}
</style>
<g id="Group_3885" transform="translate(24433 20102)">
	<circle id="Ellipse_131" class="st0" cx="-24423" cy="-20092" r="10"/>
	<path id="Icon_ionic-md-map" class="st1" d="M-24415.4-20100c-0.1,0-0.3,0.1-0.4,0.1l-4.5,1.7l-5.3-1.9l-5,1.7
		c-0.2,0.1-0.3,0.2-0.3,0.4v13.4c0,0.2,0.2,0.4,0.4,0.4c0,0,0,0,0,0c0.1,0,0.3-0.1,0.4-0.1l4.5-1.7l5.3,1.9l5-1.7
		c0.2-0.1,0.3-0.2,0.3-0.4v-13.4C-24415-20099.8-24415.2-20100-24415.4-20100C-24415.4-20100-24415.4-20100-24415.4-20100z
		 M-24420.3-20085.8l-5.3-1.9v-10.6l5.3,1.9L-24420.3-20085.8z"/>
</g>
</svg>
