<svg id="Layer_1" data-name="Layer 1" xmlns="http://www.w3.org/2000/svg" viewBox="0 0 425.2 314.18"><defs><style>.cls-1,.cls-2{fill:#ea2227;}.cls-2{fill-rule:evenodd;}</style></defs><polygon class="cls-1" points="130.35 173.22 130.35 141.01 156.77 141.01 156.77 173.22 150.32 173.22 150.32 147.24 136.81 147.24 136.81 173.22 130.35 173.22"/><polygon class="cls-1" points="163.91 173.22 163.91 141.01 185.75 141.01 185.75 147.02 170.41 147.02 170.41 153.95 184.62 153.95 184.62 159.97 170.41 159.97 170.41 167.2 185.75 167.2 185.75 173.22 163.91 173.22"/><polygon class="cls-1" points="197.91 147.24 188.71 147.24 188.71 141 213.64 141 213.64 147.24 204.44 147.24 204.44 173.22 197.91 173.22 197.91 147.24"/><path class="cls-1" d="M229.72,141c3.79,0,6.63,1,8.5,3.09a10.65,10.65,0,0,1,2.88,7.54,10.27,10.27,0,0,1-3,7.5c-2,2-4.92,3-8.89,3h-5v11.12h-6.45V141Zm-.26,15.25c3.31,0,5.06-2.09,5.06-4.71a4.43,4.43,0,0,0-4.71-4.57h-5.54v9.28Z"/><path class="cls-1" d="M248.59,169a16,16,0,0,1-4.79-11.77,16.58,16.58,0,0,1,16.78-16.78,16.65,16.65,0,1,1-.05,33.3A16.23,16.23,0,0,1,248.59,169m19.13-19.22a10.08,10.08,0,0,0-14.29,0,10,10,0,0,0-2.92,7.36,10.12,10.12,0,0,0,2.87,7.33,10.08,10.08,0,0,0,17.27-7.33,9.92,9.92,0,0,0-2.93-7.36"/><path class="cls-1" d="M307.52,163.85a8.82,8.82,0,0,1-2.79,6.66,10.2,10.2,0,0,1-7.41,2.71H282.63V141h14a9,9,0,0,1,6.71,2.39,7.74,7.74,0,0,1,2.45,5.63,7,7,0,0,1-4.41,6.53c4,1,6.11,4.32,6.11,8.29M289,146.63v7h6.32c2.66,0,4.1-1.7,4.1-3.62s-1.44-3.4-3.84-3.4Zm7.06,20.92c3.1,0,4.8-2,4.8-4.23s-1.66-4.27-4.8-4.27H289v8.5Z"/><polygon class="cls-1" points="312.79 173.22 312.79 141.01 319.15 141.01 319.15 162.23 335.75 141.01 339.81 141.01 339.81 173.22 333.44 173.22 333.44 152.16 316.84 173.22 312.79 173.22"/><path class="cls-1" d="M349.87,169.12a15.87,15.87,0,0,1-4.75-11.9,16.09,16.09,0,0,1,4.84-12,16.28,16.28,0,0,1,11.81-4.75c5.8,0,11,2.66,13.86,6.67l-4.31,4.23a11.49,11.49,0,0,0-9.2-4.67,9.8,9.8,0,0,0-7.32,3,10.26,10.26,0,0,0-3,7.54,10,10,0,0,0,10.25,10.29,11.5,11.5,0,0,0,9.37-4.71l4.44,4a17.61,17.61,0,0,1-14.2,6.84,16.47,16.47,0,0,1-11.82-4.57"/><path class="cls-2" d="M76.88,174.81a7.9,7.9,0,1,0,7.9-7.9,7.9,7.9,0,0,0-7.9,7.9"/><path class="cls-2" d="M87.23,121.66v26.42h0v5.54a2.48,2.48,0,0,0,2,2.32c.61.19,1.14.4,1.6.59l.12.06q.51.21,1,.45l.21.11.42.23h0a16.11,16.11,0,0,1-7.77,30.23A16.12,16.12,0,0,1,77,157.38h0l.22-.13.06,0,.2-.1.12-.07.21-.1.17-.08h0a6.35,6.35,0,0,1,.64-.27l.29-.14c.42-.17.9-.35,1.43-.52a2.46,2.46,0,0,0,2-2.32v-32a35.48,35.48,0,1,0,4.91,0"/></svg>