<svg xmlns="http://www.w3.org/2000/svg" width="140" height="66.669" viewBox="0 0 140 66.669">
  <g id="Group_1534" data-name="Group 1534" transform="translate(-530.345 -444.773)">
    <path id="Path_5859" data-name="Path 5859" d="M666.551,465.016v0a17.744,17.744,0,0,0,7.332-12.471.176.176,0,0,0-.164-.138H667.48a.163.163,0,0,0-.118.11,11.236,11.236,0,0,1-10.464,9.252v-.008h-.008a11.237,11.237,0,0,1,9.252-10.465.163.163,0,0,0,.11-.118v-6.239a.176.176,0,0,0-.138-.164,17.744,17.744,0,0,0-12.471,7.332l0,0v0a17.744,17.744,0,0,0-12.471-7.332.176.176,0,0,0-.138.164v6.239a.163.163,0,0,0,.11.118,11.237,11.237,0,0,1,9.252,10.465h-.008l0,.008a11.237,11.237,0,0,1-10.465-9.252.163.163,0,0,0-.118-.11h-6.239a.176.176,0,0,0-.164.138,17.744,17.744,0,0,0,7.332,12.471v0a17.744,17.744,0,0,0-7.332,12.471.175.175,0,0,0,.164.138H639.8a.163.163,0,0,0,.118-.109,11.238,11.238,0,0,1,10.465-9.253l0,.008h.008a11.237,11.237,0,0,1-9.252,10.464.164.164,0,0,0-.11.118v6.239a.177.177,0,0,0,.138.165,17.745,17.745,0,0,0,12.471-7.333v0l0,0a17.745,17.745,0,0,0,12.471,7.333.177.177,0,0,0,.138-.165v-6.239a.164.164,0,0,0-.11-.118,11.237,11.237,0,0,1-9.252-10.464h.008v-.008a11.238,11.238,0,0,1,10.464,9.253.164.164,0,0,0,.118.109h6.239a.175.175,0,0,0,.164-.138A17.744,17.744,0,0,0,666.551,465.016Z" transform="translate(-25.093)" fill="#fff"/>
    <g id="Group_1053" data-name="Group 1053" transform="translate(530.345 490.932)">
      <path id="Path_5860" data-name="Path 5860" d="M678.406,515.331c0,.8,0,2.279.058,3.326h-.058c-.536-.864-1.075-1.631-1.671-2.464l-7.51-10.257h-4.337v20.3h4.305V515.916c0-.865,0-2.218-.083-2.9h.057c.623.9,1.164,1.7,1.76,2.525l7.766,10.69h4.019v-20.3h-4.306Z" transform="translate(-563.105 -505.825)" fill="#fff"/>
      <path id="Path_5861" data-name="Path 5861" d="M626.11,515.339a4.89,4.89,0,0,0,1.336-1.445,5.192,5.192,0,0,0,.764-2.748,5.06,5.06,0,0,0-.623-2.5,5.4,5.4,0,0,0-1.546-1.775,5.13,5.13,0,0,0-2.11-.881,20.886,20.886,0,0,0-3.372-.2h-7.853v20.492h6.75c2.436-.017,3.935-.063,4.584-.138a5.311,5.311,0,0,0,4.456-3.189,6.547,6.547,0,0,0,.63-2.782,5.326,5.326,0,0,0-.993-3.2A5.041,5.041,0,0,0,626.11,515.339Zm-8.838-5.47h1.762c1.748,0,2.815.021,3.167.064a1.713,1.713,0,0,1,1.162.551,1.837,1.837,0,0,1,.384,1.226,1.747,1.747,0,0,1-.444,1.263,2.018,2.018,0,0,1-1.278.583c-.338.042-1.241.064-2.686.064h-2.067ZM624,521.4a1.908,1.908,0,0,1-1.148.653,14.9,14.9,0,0,1-2.5.112h-3.084V517.7h2.64a11.266,11.266,0,0,1,3.2.258,1.908,1.908,0,0,1,.979.744,2.29,2.29,0,0,1,.342,1.284A2.1,2.1,0,0,1,624,521.4Z" transform="translate(-550.399 -505.789)" fill="#fff"/>
      <path id="Path_5862" data-name="Path 5862" d="M596.987,509.941A13.721,13.721,0,0,1,602.148,511l.469.176.5-4.081-.261-.12a14.731,14.731,0,0,0-5.864-1.145c-6.051,0-10.276,4.21-10.276,10.241s4.224,10.239,10.276,10.239a14.763,14.763,0,0,0,5.864-1.145l.261-.122-.5-4.081-.469.176a13.723,13.723,0,0,1-5.161,1.057c-3.432,0-5.479-2.29-5.479-6.126S593.555,509.941,596.987,509.941Z" transform="translate(-544.07 -505.798)" fill="#fff"/>
      <path id="Path_5863" data-name="Path 5863" d="M647.964,506.448c-.06-.1-.12-.214-.18-.325-.051-.1-.1-.191-.155-.283l-.007-.013h-4.36l-.008.011c-.057.1-.111.2-.163.3s-.114.213-.175.314a100.006,100.006,0,0,0-8.182,19.809l-.01.033h4.589l.006-.019c.269-.871.571-1.791.981-2.982.147-.436.329-.955.545-1.54h9.2c.586,1.627,1.089,3.106,1.534,4.522l0,.019h4.581l-.01-.033A99.911,99.911,0,0,0,647.964,506.448ZM642.373,517.7c.989-2.4,2.012-4.641,3.04-6.666,1.01,1.991,2.035,4.233,3.043,6.666Z" transform="translate(-555.76 -505.798)" fill="#fff"/>
      <path id="Path_5864" data-name="Path 5864" d="M700.986,515.794a115.3,115.3,0,0,1,8.571-9.959H704c-2.42,2.523-4.8,5.252-7.116,8.171v-8.179h-4.532v20.457h4.532v-8.658l7.272,8.682h5.639Z" transform="translate(-569.792 -505.798)" fill="#fff"/>
      <path id="Path_5865" data-name="Path 5865" d="M571.841,506.448c-.06-.1-.12-.214-.179-.325-.052-.1-.1-.191-.156-.283l-.007-.013h-4.36l-.007.011c-.057.1-.111.2-.164.3s-.114.213-.175.314a99.955,99.955,0,0,0-8.182,19.809l-.01.033h4.589l.005-.019c.269-.871.571-1.791.982-2.982.147-.436.329-.955.544-1.54h9.2c.587,1.627,1.09,3.106,1.534,4.522l0,.019h4.582l-.011-.033A99.867,99.867,0,0,0,571.841,506.448Zm-5.571,11.23c.992-2.406,2.018-4.653,3.049-6.684,1.013,2,2.04,4.245,3.052,6.684Z" transform="translate(-537.225 -505.798)" fill="#fff"/>
      <path id="Path_5866" data-name="Path 5866" d="M550.684,505.825H544.91L540.8,511.6l-4.159-5.814h-5.769l7,9.931L530.345,526.3h5.941l4.511-6.423,4.506,6.414h5.944l-7.523-10.569Z" transform="translate(-530.345 -505.789)" fill="#fff"/>
    </g>
  </g>
</svg>
