<svg xmlns="http://www.w3.org/2000/svg" xmlns:xlink="http://www.w3.org/1999/xlink" width="40" height="40" viewBox="0 0 40 40">
  <defs>
    <clipPath id="clip-path">
      <rect id="Rectangle_1267" data-name="Rectangle 1267" width="40" height="40"/>
    </clipPath>
    <linearGradient id="linear-gradient" y1="1" x2="1" gradientUnits="objectBoundingBox">
      <stop offset="0" stop-color="#0b043b"/>
      <stop offset="1" stop-color="#0057a7"/>
    </linearGradient>
  </defs>
  <g id="b" clip-path="url(#clip-path)">
    <circle id="Ellipse_28" data-name="Ellipse 28" cx="20" cy="20" r="20" fill="url(#linear-gradient)"/>
    <path id="Path_1729" data-name="Path 1729" d="M62.414,108.918a9.526,9.526,0,0,0,3.818-5.871c.058-.284.1-.569.135-.855a.1.1,0,0,0-.091-.072H62.912a.091.091,0,0,0-.064.059l-.031.174a6.027,6.027,0,0,1-5.581,4.812h-.023a6.015,6.015,0,0,1,5.118-5.642h0a.091.091,0,0,0,.091-.082V98.069a.091.091,0,0,0-.069-.061,9.5,9.5,0,0,0-6.889,4A9.5,9.5,0,0,0,48.571,98a.091.091,0,0,0-.071.061v3.372a.1.1,0,0,0,.091.082h0a6.032,6.032,0,0,1,5,4.758,6.125,6.125,0,0,1,.115.884h-.019a6.03,6.03,0,0,1-5.584-4.812.8.8,0,0,0-.031-.174.085.085,0,0,0-.064-.059H44.645a.091.091,0,0,0-.091.072c.033.285.076.572.135.855a9.526,9.526,0,0,0,3.816,5.87,9.519,9.519,0,0,0-3.818,5.871c-.058.284-.1.572-.135.855a.091.091,0,0,0,.091.074h3.364a.084.084,0,0,0,.064-.059,1.5,1.5,0,0,1,.031-.176,6.032,6.032,0,0,1,5.584-4.812h.025a6.123,6.123,0,0,1-.115.884,6.029,6.029,0,0,1-5,4.758h0a.091.091,0,0,0-.091.079v3.375a.084.084,0,0,0,.071.059,9.5,9.5,0,0,0,6.886-4,9.5,9.5,0,0,0,6.889,4,.084.084,0,0,0,.069-.059v-3.364a.091.091,0,0,0-.091-.079h0a6.029,6.029,0,0,1-5.006-4.758,6.119,6.119,0,0,1-.112-.884h.021a6.03,6.03,0,0,1,5.581,4.812l.031.176a.091.091,0,0,0,.064.059h3.364a.1.1,0,0,0,.091-.074c-.033-.284-.076-.572-.135-.855a9.519,9.519,0,0,0-3.814-5.873Z" transform="translate(-35.459 -88.909)" fill="#fff" fill-rule="evenodd"/>
  </g>
</svg>
