<svg xmlns="http://www.w3.org/2000/svg" xmlns:xlink="http://www.w3.org/1999/xlink" width="40" height="40" viewBox="0 0 40 40">
  <defs>
    <clipPath id="clip-path">
      <rect id="Rectangle_1264" data-name="Rectangle 1264" width="40" height="40"/>
    </clipPath>
  </defs>
  <g id="a" clip-path="url(#clip-path)">
    <circle id="Ellipse_25" data-name="Ellipse 25" cx="20" cy="20" r="20" fill="#ec1c24"/>
    <path id="Path_1723" data-name="Path 1723" d="M9583.587-17584.656a10.357,10.357,0,0,1-3.9-.752,10.145,10.145,0,0,1-3.394-2.232,10.433,10.433,0,0,1-3.049-6.52,10.5,10.5,0,0,1,1.9-6.953,10.857,10.857,0,0,1,6.9-4.221,8.842,8.842,0,0,1,1.182-.068,13.248,13.248,0,0,1,2.91.293,11.4,11.4,0,0,1,3.435,1.6l.74.516.739-.516a11.538,11.538,0,0,1,3.417-1.605,7.366,7.366,0,0,1,2.57-.246,7.561,7.561,0,0,1,2.555.24,10.609,10.609,0,0,1,5.09,3.057,10.465,10.465,0,0,1,2.591,5.316,10.264,10.264,0,0,1-.356,4.887,10.509,10.509,0,0,1-2.59,4.219,10.755,10.755,0,0,1-4.734,2.7,7.629,7.629,0,0,1-2.46.252h-.216a7.724,7.724,0,0,1-3.148-.488,10.7,10.7,0,0,1-3.14-1.7l-.3-.213-.545.4a10.341,10.341,0,0,1-6.2,2.037Zm-.056-18.111a7.94,7.94,0,0,0-.963.084,7.436,7.436,0,0,0-4.353,2.131,7.819,7.819,0,0,0-2.214,3.98,9.9,9.9,0,0,0,0,3.084,7.833,7.833,0,0,0,2.213,3.979,6.872,6.872,0,0,0,2.951,1.8,7.363,7.363,0,0,0,2.363.383,7.994,7.994,0,0,0,2.545-.414,8.671,8.671,0,0,0,2.259-1.191l.217-.182-.253-.363a10.636,10.636,0,0,1-1.623-5.2,3.277,3.277,0,0,0-.852-2.453,3.674,3.674,0,0,0-.926-.684,3.1,3.1,0,0,0-1.346-.273,3.115,3.115,0,0,0-1.249.242,3.291,3.291,0,0,0-1.806,2.531v.281h-2.616v-.4a5.811,5.811,0,0,1,3.083-4.676,5.42,5.42,0,0,1,2.616-.627,5.424,5.424,0,0,1,4.02,1.676,5.463,5.463,0,0,1,1.692,4.027,7.759,7.759,0,0,0,1.272,4.148,7.916,7.916,0,0,0,4.745,3.373,7.839,7.839,0,0,0,1.812.166,7.57,7.57,0,0,0,1.455-.111,7.88,7.88,0,0,0,6.038-6.035,9.958,9.958,0,0,0,0-3.084,7.969,7.969,0,0,0-1.7-3.437,7.568,7.568,0,0,0-3.061-2.2,6.587,6.587,0,0,0-2.745-.51l-.116,0a7.26,7.26,0,0,0-4.261,1.3l-.655.43.2.291a13.76,13.76,0,0,1,1.12,2.3,11.641,11.641,0,0,1,.552,3.051,3.19,3.19,0,0,0,1,2.559,2.6,2.6,0,0,0,2.091.8,2.679,2.679,0,0,0,2.223-.926,3.164,3.164,0,0,0,.859-1.834v-.271h2.617v.391a5.811,5.811,0,0,1-3.082,4.682,5.378,5.378,0,0,1-2.617.627,5.439,5.439,0,0,1-4.019-1.676,5.535,5.535,0,0,1-1.717-4.115,7.688,7.688,0,0,0-2.432-5.492,7.58,7.58,0,0,0-4.353-2.072,8.673,8.673,0,0,0-.98-.08Zm26.754,8.266h0v-1.238c.009.281.013.5.013.7C9610.291-17594.861,9610.291-17594.686,9610.285-17594.5Z" transform="translate(-9570.29 17615.037)" fill="#fff"/>
  </g>
</svg>
