<svg xmlns="http://www.w3.org/2000/svg" width="27.234" height="27.223" viewBox="0 0 27.234 27.223">
  <g id="Group_656" data-name="Group 656" transform="translate(-48.897 -138.047)">
    <path id="Path_221" data-name="Path 221" d="M76.132,144.726l-.006,0a6.8,6.8,0,0,0-6.152-6.649s-.446-.036-.978-.023H48.908L48.9,158.467h0a6.8,6.8,0,0,0,6.807,6.8c.059,0,.117,0,.176,0H76.132Z" fill="#6c0"/>
    <path id="Path_222" data-name="Path 222" d="M64.379,163.627a9.084,9.084,0,0,1,7.807-10.2,12.435,12.435,0,0,1,1.378-.077c2.169.051,4.133,1.046,4.082,3.521a3.418,3.418,0,0,1-2.985,3.266,6.44,6.44,0,0,0-1.2.077A3.363,3.363,0,0,0,74,166.868h.077A6.731,6.731,0,0,0,78.283,154.8a9.076,9.076,0,1,1-13.9,8.827Z" transform="translate(-10.897 -10.825)" fill="#fff" fill-rule="evenodd"/>
  </g>
</svg>
