<?xml version="1.0" encoding="utf-8"?>
<!-- Generator: Adobe Illustrator 24.3.0, SVG Export Plug-In . SVG Version: 6.00 Build 0)  -->
<svg version="1.1" id="Layer_1" xmlns="http://www.w3.org/2000/svg" xmlns:xlink="http://www.w3.org/1999/xlink" x="0px" y="0px"
	 viewBox="0 0 17.2 17.3" style="enable-background:new 0 0 17.2 17.3;" xml:space="preserve">
<style type="text/css">
	.st0{fill:#E17000;}
</style>
<g id="phone">
	<path class="st0" d="M14.7,17.3c-0.1,0-0.2,0-0.2,0c-2.5-0.3-5-1.1-7.1-2.5c-2-1.2-3.7-2.9-4.9-4.9C1.1,7.7,0.3,5.3,0,2.8
		C-0.1,1.4,0.9,0.1,2.3,0c0.1,0,0.1,0,0.2,0h2.3c1.3,0,2.3,0.9,2.5,2.2c0.1,0.7,0.2,1.3,0.5,1.9c0.3,0.9,0.1,2-0.6,2.7L6.8,7.2
		c0.8,1.3,1.9,2.3,3.2,3.2l0.4-0.4c0.7-0.7,1.8-0.9,2.7-0.6c0.6,0.2,1.3,0.4,1.9,0.5c1.3,0.2,2.2,1.3,2.2,2.6v2.3
		c0,0.7-0.3,1.3-0.7,1.8C16,17,15.4,17.3,14.7,17.3z M4.8,2C4.8,2,4.8,2,4.8,2H2.5C2.3,2,2.2,2.1,2.1,2.2S2,2.4,2,2.6
		c0.2,2.2,1,4.3,2.2,6.2c1.1,1.7,2.6,3.2,4.3,4.3c1.9,1.2,4,2,6.2,2.2c0.2,0,0.3-0.1,0.4-0.2s0.2-0.2,0.2-0.4v-2.3c0,0,0,0,0,0
		c0-0.3-0.2-0.5-0.5-0.5c-0.8-0.1-1.6-0.3-2.4-0.6c-0.2-0.1-0.4,0-0.6,0.1l-1,1c-0.3,0.3-0.8,0.4-1.2,0.2c-2.1-1.2-3.8-2.9-5-5
		C4.5,7.2,4.5,6.7,4.9,6.3l1-1C6,5.2,6,5,6,4.8C5.7,4.1,5.5,3.3,5.4,2.4C5.3,2.2,5.1,2,4.8,2z"/>
</g>
</svg>
