<svg xmlns="http://www.w3.org/2000/svg" width="40" height="40" viewBox="0 0 40 40">
  <g id="Group_4252" data-name="Group 4252" transform="translate(22764 16765)">
    <rect id="Rectangle_4094" data-name="Rectangle 4094" width="40" height="40" transform="translate(-22764 -16765)" fill="#e7e8ed"/>
    <path id="user" d="M8.75,10a5,5,0,1,0-5-5A5,5,0,0,0,8.75,10Zm3.5,1.25H11.6a6.8,6.8,0,0,1-5.7,0H5.25A5.251,5.251,0,0,0,0,16.5v1.625A1.875,1.875,0,0,0,1.875,20h13.75A1.875,1.875,0,0,0,17.5,18.125V16.5A5.251,5.251,0,0,0,12.25,11.25Z" transform="translate(-22753 -16755)" fill="#9497af"/>
  </g>
</svg>
