<svg xmlns="http://www.w3.org/2000/svg" width="19.297" height="20" viewBox="0 0 19.297 20">
  <g id="Group_4281" data-name="Group 4281" transform="translate(384.561 -330.397)">
    <path id="Path_8970" data-name="Path 8970" d="M-366,343.691l-1.43-.526-.744,1.341-1.428-.921-.762.842-1.022-1.143.874-1.264,1.5.558.458-1.125,1.649.273.141-1.667-1.734-.012-.271,1.172-1.432-.235c0-.336.008-.675.006-1.014a4.739,4.739,0,0,0-4.032-4.578,4.781,4.781,0,0,0-5.217,3.414,4.7,4.7,0,0,0,2.755,5.64,4.261,4.261,0,0,0,3.37.035c1.154-.462,1.326-.385,2.085.648,1.244,1.692,2.481,3.388,3.622,5.268a19.1,19.1,0,0,1-2.167-.83,3.223,3.223,0,0,0-2.6-.188,9.607,9.607,0,0,1-11.988-11.049,9.685,9.685,0,0,1,8.041-7.826,9.727,9.727,0,0,1,10.038,5.2,9.931,9.931,0,0,1,.566,7.479A2.722,2.722,0,0,1-366,343.691Z" transform="translate(0 0)" fill="#002d5e"/>
    <path id="Path_8971" data-name="Path 8971" d="M-287.585,418.67l1.24.821-1.084,1.347-.973-1.164Z" transform="translate(-80.569 -73.962)" fill="#002d5e"/>
  </g>
</svg>
