<?xml version="1.0" encoding="utf-8"?>
<!-- Generator: Adobe Illustrator 24.1.1, SVG Export Plug-In . SVG Version: 6.00 Build 0)  -->
<svg version="1.1" id="Layer_1" xmlns="http://www.w3.org/2000/svg" xmlns:xlink="http://www.w3.org/1999/xlink" x="0px" y="0px"
	 viewBox="0 0 23.3 22.6" style="enable-background:new 0 0 23.3 22.6;" xml:space="preserve">
<style type="text/css">
	.st0{fill:none;}
	.st1{clip-path:url(#SVGID_2_);}
</style>
<g id="apply_debit_card" transform="translate(-1722.75 -699.461)">
	<g id="Group_4008" transform="translate(214.615 -22)">
		<g id="Path_8282">
			<path d="M1528.9,734.6C1528.9,734.5,1528.9,734.5,1528.9,734.6c0.1-0.1,0.1-0.1,0.2-0.1c0,0,0,0,0,0c0,0,0,0,0,0
				c0.1-0.1,0.1-0.3,0-0.4l-1.7-1.9v-10.4c0-0.2-0.1-0.3-0.2-0.3l-18.9-0.3c-0.1,0-0.2,0.1-0.2,0.1c-0.1,0.1-0.1,0.1-0.1,0.2v10.8
				c0,0.2,0.2,0.3,0.3,0.3h14l1.1,1.5c0,0.1,0.2,0.2,0.3,0.1c0.1,0,0.2-0.2,0.1-0.3l-1.1-1.6c0-0.1-0.1-0.1-0.2-0.1h-13.9v-10.3
				l18.4,0.3v10.3c0,0.1,0.1,0.2,0.1,0.2L1528.9,734.6C1528.9,734.6,1528.9,734.6,1528.9,734.6z"/>
		</g>
		<g id="Path_8283">
			<path d="M1512.7,738.3c-0.1,0-0.2-0.1-0.2-0.1l-2.5-5.6c-0.1-0.1,0-0.3,0.1-0.3c0.1,0,0.3,0,0.3,0.1l2.4,5.4l10.3-4.3
				c0.1,0,0.3,0,0.3,0.1c0.1,0.1,0,0.3-0.1,0.3L1512.7,738.3L1512.7,738.3z"/>
		</g>
		<g id="Path_8284">
			<path d="M1511.2,735c-0.1,0-0.2-0.1-0.2-0.2c-0.1-0.1,0-0.3,0.1-0.3l5.1-2.2c0.1-0.1,0.3,0,0.3,0.1c0,0.1,0,0.3-0.1,0.3
				L1511.2,735C1511.3,735,1511.2,735,1511.2,735z"/>
		</g>
		<g id="Path_8285">
			<path d="M1522.3,732.5c-0.1,0-0.2,0-0.2-0.1l-1.7-2.3V730c-0.2-0.7,0-1.3,0.4-1.9c0.7-0.8,2-0.5,2.1-0.5s0.2,0.2,0.2,0.3
				s-0.2,0.2-0.3,0.2c0,0-1.1-0.3-1.6,0.3c-0.3,0.4-0.4,0.9-0.3,1.4l1.7,2.3c0.1,0.1,0.1,0.3-0.1,0.3
				C1522.4,732.5,1522.4,732.5,1522.3,732.5z"/>
		</g>
		<g id="Path_8286">
			<path d="M1527.2,732.6c-0.1,0-0.1,0-0.2-0.1l-4.3-4.4c-0.1-0.1-0.1-0.3,0-0.4c0.1-0.1,0.3-0.1,0.4,0l4.3,4.4
				c0.1,0.1,0.1,0.3,0,0.4C1527.3,732.6,1527.3,732.6,1527.2,732.6z"/>
		</g>
		<g id="Path_8287">
			<path d="M1531.2,744h-7.2c-0.1,0-0.1,0-0.2-0.1c0,0-0.1-0.1-0.1-0.2v-4.1c0-0.1,0.1-0.2,0.3-0.2l0,0c0.1,0,0.2,0.1,0.2,0.3v3.9
				h6.7l-0.2-13.8c0-0.1,0.1-0.3,0.2-0.3l0,0c0.1,0,0.2,0.1,0.3,0.2l0.3,14c0,0.1,0,0.1-0.1,0.2C1531.3,744,1531.2,744,1531.2,744z"
				/>
		</g>
		<g id="Path_8288">
			<path d="M1527.7,732.6c-0.1,0-0.2-0.1-0.2-0.1c-0.1-0.1,0-0.3,0.1-0.3h0.1c0.5-0.2,1.5-0.9,1.4-1.6c-0.5-1.6-1.1-3.2-1.9-4.8
				c-0.1-0.1,0-0.3,0.1-0.3c0.1-0.1,0.3,0,0.3,0.1c0.7,1.6,1.4,3.2,1.9,4.9c0.2,1-1,1.8-1.5,2.1c0,0,0,0-0.1,0l-0.1,0.1l0,0
				C1527.8,732.6,1527.7,732.6,1527.7,732.6z"/>
		</g>
		<g id="Path_8289">
			<path d="M1531.2,729.7C1531.2,729.7,1531.2,729.7,1531.2,729.7c0,0,0-0.1,0-0.1c0-0.1,0-0.1,0-0.2c-0.4-0.9-0.8-1.6-1.4-2.3
				l-2.2-1.9c-0.1-0.1-0.3-0.1-0.4,0c-0.1,0.1-0.1,0.3,0,0.4l2.1,1.9c0.6,0.7,1.1,1.5,1.4,2.4c0,0.1,0.1,0.2,0.2,0.2
				c0.2-0.1,0.3-0.1,0.3-0.2c0,0,0,0,0,0C1531.2,729.8,1531.2,729.8,1531.2,729.7C1531.2,729.7,1531.2,729.7,1531.2,729.7z"/>
		</g>
		<g id="Path_8290">
			<path d="M1531,739.4h-6.8l-0.3-5.3c0,0,0,0,0,0v0c0,0,0,0,0-0.1c0-0.1,0-0.1,0-0.2h-0.5v0.3l0.3,5.7h7.3c0.1,0,0.3,0,0.3-0.2
				S1531.1,739.4,1531,739.4z"/>
		</g>
		<g id="Rectangle_1290" transform="translate(1525 741)">
			<g id="fill">
				<rect x="0" y="0" class="st0" width="0.5" height="0.5"/>
			</g>
			<g>
				<g>
					<defs>
						<rect id="SVGID_1_" x="0" y="0" width="0.5" height="0.5"/>
					</defs>
					<clipPath id="SVGID_2_">
						<use xlink:href="#SVGID_1_"  style="overflow:visible;"/>
					</clipPath>
					<g class="st1">
						<polygon points="0.5,1 0,1 0,0.5 -0.5,0.5 -0.5,0 0,0 0,-0.5 0.5,-0.5 0.5,0 1,0 1,0.5 0.5,0.5 						"/>
					</g>
				</g>
			</g>
		</g>
		<g id="Path_8291">
			<rect x="1522.9" y="723" width="0.5" height="1"/>
		</g>
		<g id="Path_8292">
			<rect x="1521.9" y="723" width="0.5" height="1"/>
		</g>
		<g id="Path_8293">
			<rect x="1523.9" y="723" width="0.5" height="1"/>
		</g>
		<g id="Path_8294">
			<rect x="1524.9" y="723" width="0.5" height="1"/>
		</g>
		<g id="Path_8295">
			<rect x="1509.5" y="727.8" width="1.7" height="0.5"/>
		</g>
		<g id="Path_8300">
			<rect x="1509.5" y="729.8" width="1.7" height="0.5"/>
		</g>
		<g id="Path_8296">
			<rect x="1512.1" y="727.8" width="1.7" height="0.5"/>
		</g>
		<g id="Path_8297">
			<rect x="1514.7" y="727.8" width="1.7" height="0.5"/>
		</g>
		<g id="Path_8298">
			<rect x="1517.3" y="727.8" width="1.7" height="0.5"/>
		</g>
		<g id="Path_8299">
			<rect x="1517.3" y="729.8" width="1.7" height="0.5"/>
		</g>
		<g id="Group_4007" transform="translate(0 -0.647)">
			<g id="Path_8301">
				<rect x="1509.7" y="723.4" width="2.3" height="0.5"/>
			</g>
			<g id="Path_8302">
				<rect x="1510.6" y="723.6" width="0.5" height="1.2"/>
			</g>
			<g id="Path_8303">
				<rect x="1509.7" y="724.8" width="2.3" height="0.5"/>
			</g>
		</g>
	</g>
</g>
</svg>
