<svg id="Group_2289" data-name="Group 2289" xmlns="http://www.w3.org/2000/svg" width="42.099" height="26.306" viewBox="0 0 42.099 26.306">
  <path id="Path_1823" data-name="Path 1823" d="M1086.154,453.138h10.5a2.048,2.048,0,0,1,2.039,2.667l-4.893,20.979a3.568,3.568,0,0,1-3.278,2.66h-10.509a2.045,2.045,0,0,1-2.038-2.66l4.892-20.979a3.57,3.57,0,0,1,3.283-2.667" transform="translate(-1077.908 -453.138)" fill="#e03a3e"/>
  <path id="Path_1824" data-name="Path 1824" d="M1097.573,453.138h12.081c1.468,0,.806,1.2.461,2.667l-4.893,20.979c-.341,1.465-.234,2.66-1.7,2.66h-12.08a2.041,2.041,0,0,1-2.037-2.66l4.888-20.979a3.575,3.575,0,0,1,3.284-2.667" transform="translate(-1079.693 -453.138)" fill="#004b84"/>
  <path id="Path_1825" data-name="Path 1825" d="M1111.327,453.138h10.5a2.047,2.047,0,0,1,2.039,2.667l-4.893,20.979a3.569,3.569,0,0,1-3.282,2.66h-10.5a2.044,2.044,0,0,1-2.037-2.66l4.893-20.979a3.566,3.566,0,0,1,3.28-2.667" transform="translate(-1081.843 -453.138)" fill="#008185"/>
  <path id="Union_1" data-name="Union 1" d="M30.157,9.772l.25-.824h.168a.432.432,0,0,0,.2-.033.235.235,0,0,0,.113-.1l.3-.48v0c.424-.645.529-.925.976-1.654-.08-.824-.117-1.089-.181-1.629-.038-.319-.091-.649-.131-.974a9.75,9.75,0,0,0-.142-.991L31.7,3.077A.675.675,0,0,0,31.709,3l.055-.044c.658-.082.677-.1,1.39-.243l.06.058.095,1.834a.569.569,0,0,0,.006.1c.38-.846.362-.61.831-1.689l0,.011A.156.156,0,0,0,34.156,3L34.2,2.96c.627-.082.751-.1,1.434-.243l.052.058s-2.746,4.7-3.105,5.477l-.053.065h.006L32,9.235a1.053,1.053,0,0,1-.986.55ZM27.284,6.608c-.862-.334-.72-1.27-.6-1.782a2.712,2.712,0,0,1,.734-1.419,1.866,1.866,0,0,1,1.576-.581.962.962,0,0,1,.488.4l.02-.152.055-.038c.66-.1.841-.125,1.53-.251l.023.059c-.128.517-.255,1.039-.374,1.562-.251,1.1-.346,1.651-.443,2.221l-.061.045c-.669,0-.856,0-1.475.022l-.041-.046.063-.233a1.267,1.267,0,0,1-.73.334h-.075A1.734,1.734,0,0,1,27.284,6.608Zm.846-1.749a2.935,2.935,0,0,0-.087.625c.009.4.278.4.32.4a.763.763,0,0,0,.54-.26,1.367,1.367,0,0,0,.169-.344q.067-.268.129-.537c.031-.134.058-.256.082-.368.027-.433-.121-.68-.4-.68C28.448,3.695,28.278,4.232,28.13,4.859Zm-14.663,1.7c-.862-.35-.721-1.284-.6-1.806A2.76,2.76,0,0,1,13.6,3.323a2.423,2.423,0,0,1,1.662-.579,1.64,1.64,0,0,1,1.325.487c.189.242.337.636.141,1.486a3.008,3.008,0,0,1-.6,1.292,2.333,2.333,0,0,1-1.763.689A2.6,2.6,0,0,1,13.468,6.556Zm.848-1.766a2.409,2.409,0,0,0-.09.629c0,.4.277.4.32.4a.525.525,0,0,0,.415-.27,2.8,2.8,0,0,0,.322-.9c.153-.644.131-1.049-.212-1.049C14.634,3.608,14.458,4.148,14.316,4.79ZM.174,5.9A1.462,1.462,0,0,1,0,5.159l.134-1L.2,3.85l.815-3.6s.044-.2.052-.23A12.353,12.353,0,0,0,2.925.042.117.117,0,0,0,2.91.088C2.766.51,1.971,3.71,1.971,3.71s-.154.959-.154.959l.005.157a.753.753,0,0,0,.843.724,1.229,1.229,0,0,0,.812-.287,2.563,2.563,0,0,0,.689-1.542S4.927.21,4.973.018A12.017,12.017,0,0,0,6.539.042a.08.08,0,0,0-.011.046C6.386.522,5.56,3.844,5.56,3.844l-.095.36A2.924,2.924,0,0,1,4.194,6.185a3.915,3.915,0,0,1-1.984.464C1.609,6.649.55,6.556.174,5.9Zm21.239.73,1.07-4.406L22.907.244s.036-.156.052-.244c.2.025.675.032,1.869.018l.457-.005c.938.005,1.739.012,2.149.579a1.253,1.253,0,0,1,.213.762,2.545,2.545,0,0,1-.075.6A2.91,2.91,0,0,1,26.5,3.665a4.461,4.461,0,0,1-2.711.581H23.7a.626.626,0,0,0-.134.127c-.012.031-.219.891-.219.891S23.1,6.441,23.056,6.64C22.884,6.622,22.452,6.622,21.413,6.633Zm2.438-3.5-.018.095h.247a2.371,2.371,0,0,0,1.058-.165,1.442,1.442,0,0,0,.747-.986.791.791,0,0,0-.417-1c-.024,0-.957-.079-.957-.079L24.329.976l-.009.08-.015.1h0S23.851,3.129,23.851,3.129ZM19.087,6.6c.055-.248.116-.491.177-.742l.076-.332c.122-.522.235-1.129.251-1.314.011-.113.046-.387-.265-.387a1.074,1.074,0,0,0-.42.124c-.077.279-.237,1.059-.313,1.416-.156.751-.169.835-.235,1.2l-.052.049c-.565-.007-.764-.007-1.415.025l-.033-.055c.112-.446.217-.9.323-1.335A20.221,20.221,0,0,0,17.6,2.966l.049-.035c.639-.089.791-.112,1.484-.251l.057.065-.1.387c.113-.072.232-.138.348-.2a2.149,2.149,0,0,1,.888-.21.761.761,0,0,1,.776.434c.128.312.043.695-.135,1.452l-.084.386c-.179.839-.206,1-.3,1.572l-.068.049c-.551-.007-.743-.007-1.392.025Zm-8.809.017-.019-.028a5.253,5.253,0,0,1,.169-.544,3.818,3.818,0,0,0,.157-.549c.1-.421.154-.717.2-.975s.07-.463.1-.711l.023-.019.026-.025c.333-.045.543-.074.759-.108s.433-.075.774-.141l.014.033.009.026c-.061.263-.124.523-.188.791s-.128.522-.186.787c-.124.554-.174.759-.2.91s-.036.219-.085.506l-.03.03-.03.02c-.333,0-.547-.007-.755,0s-.409.012-.718.027ZM8.112,6.6c.056-.248.118-.491.173-.742l.076-.332c.12-.522.24-1.129.252-1.314.01-.113.049-.387-.27-.387a1.1,1.1,0,0,0-.417.124C7.847,4.223,7.692,5,7.621,5.361c-.163.751-.175.835-.243,1.2l-.049.049c-.566-.007-.761-.007-1.422.025l-.029-.055c.109-.446.219-.9.323-1.335A19.767,19.767,0,0,0,6.62,2.966l.051-.035c.636-.089.793-.112,1.483-.251l.056.065-.1.387c.115-.072.229-.138.35-.2a2.147,2.147,0,0,1,.888-.21.749.749,0,0,1,.771.434c.131.312.046.695-.128,1.452L9.9,4.994c-.178.839-.209,1-.308,1.572l-.064.049c-.553-.007-.745-.007-1.389.025Zm3.042-3.236c-.311-.185-.266-.533.1-.784a1.237,1.237,0,0,1,1.221-.127c.311.176.261.529-.1.784a1.374,1.374,0,0,1-.766.235A.9.9,0,0,1,11.154,3.359Z" transform="translate(3.656 8.094)" fill="#fff"/>
</svg>
