<svg xmlns="http://www.w3.org/2000/svg" xmlns:xlink="http://www.w3.org/1999/xlink" width="40" height="40" viewBox="0 0 40 40">
  <defs>
    <clipPath id="clip-path">
      <rect id="Rectangle_1268" data-name="Rectangle 1268" width="40" height="40"/>
    </clipPath>
  </defs>
  <g id="a" clip-path="url(#clip-path)">
    <circle id="Ellipse_29" data-name="Ellipse 29" cx="20" cy="20" r="20" fill="#6c0"/>
    <path id="Path_1730" data-name="Path 1730" d="M9533.758-17582.553a13.634,13.634,0,0,1-8.95-3.355,13.6,13.6,0,0,1-4.569-8.5,13.519,13.519,0,0,1,2.7-10.078,13.536,13.536,0,0,1,9.051-5.225,12.617,12.617,0,0,1,1.8-.115l.256,0a7.541,7.541,0,0,1,4.31,1.256,4.55,4.55,0,0,1,1.818,3.986,5.063,5.063,0,0,1-1.339,3.3,5.087,5.087,0,0,1-3.174,1.6,7.1,7.1,0,0,1-.728.041h-.02a5.961,5.961,0,0,0-1.021.09,5.086,5.086,0,0,0-2.956,1.943,5.077,5.077,0,0,0-.966,3.4,5.061,5.061,0,0,0,1.489,3.2,5.1,5.1,0,0,0,3.22,1.455h.3a10.1,10.1,0,0,0,9.537-6.773,10.038,10.038,0,0,0,.136-6.227,10.074,10.074,0,0,0-3.547-5.121,13.553,13.553,0,0,1,5.25,6.285,13.546,13.546,0,0,1,.7,8.154,13.553,13.553,0,0,1-4.1,7.08,13.611,13.611,0,0,1-7.428,3.455l.028.025a14.071,14.071,0,0,1-1.791.117Z" transform="translate(-9513.755 17616.188)" fill="#fff"/>
  </g>
</svg>
