<svg xmlns="http://www.w3.org/2000/svg" xmlns:xlink="http://www.w3.org/1999/xlink" width="44" height="44" viewBox="0 0 44 44">
  <defs>
    <clipPath id="clip-path">
      <circle id="Ellipse_296" data-name="Ellipse 296" cx="12" cy="12" r="12" transform="translate(-19125.252 -12408.252)" fill="#fff" stroke="#707070" stroke-width="1"/>
    </clipPath>
  </defs>
  <g id="Group_4252" data-name="Group 4252" transform="translate(19147 12483)">
    <circle id="Ellipse_295" data-name="Ellipse 295" cx="22" cy="22" r="22" transform="translate(-19147 -12483)" fill="#6c0"/>
    <g id="Mask_Group_1" data-name="Mask Group 1" transform="translate(-11.748 -64.748)" clip-path="url(#clip-path)">
      <g id="Group_4251" data-name="Group 4251" transform="translate(-19130.406 -12412.488)">
        <path id="Path_221" data-name="Path 221" d="M82.333,146.247l-.008,0a8.354,8.354,0,0,0-7.553-8.163s-.548-.044-1.2-.029H48.91L48.9,163.117h0a8.353,8.353,0,0,0,8.357,8.351c.073,0,.144,0,.217,0H82.333Z" transform="translate(-48.897 -138.047)" fill="#6c0"/>
        <path id="Path_222" data-name="Path 222" d="M64.4,165.969a11.152,11.152,0,0,1,9.584-12.529,15.269,15.269,0,0,1,1.691-.094c2.662.062,5.074,1.284,5.011,4.322a4.2,4.2,0,0,1-3.665,4.009,7.907,7.907,0,0,0-1.472.094,4.129,4.129,0,0,0,.658,8.175H76.3a8.264,8.264,0,0,0,5.168-14.815A11.143,11.143,0,1,1,64.4,165.969Z" transform="translate(-58.768 -147.853)" fill="#fff" fill-rule="evenodd"/>
      </g>
    </g>
  </g>
</svg>
