<svg xmlns="http://www.w3.org/2000/svg" xmlns:xlink="http://www.w3.org/1999/xlink" width="40" height="40" viewBox="0 0 40 40">
  <defs>
    <clipPath id="clip-path">
      <rect id="Rectangle_1269" data-name="Rectangle 1269" width="40" height="40"/>
    </clipPath>
  </defs>
  <g id="a" clip-path="url(#clip-path)">
    <circle id="Ellipse_30" data-name="Ellipse 30" cx="20" cy="20" r="20" fill="#6c0"/>
    <path id="Path_1731" data-name="Path 1731" d="M9308.521-17580.854h0c-.24,0-.454-.006-.677-.016a8.412,8.412,0,0,1-7.394-4.332,8.493,8.493,0,0,1,.621-8.525,14.315,14.315,0,0,0,5.237,4.35,14.89,14.89,0,0,0,6.474,1.482h.335a15.337,15.337,0,0,0,2.652-.3,10.542,10.542,0,0,0,6.043-3.809,6.39,6.39,0,0,0,1.131-2.541,13.926,13.926,0,0,1-.386,2.881h0l-.009.01a13.775,13.775,0,0,1-5.255,7.912,14.813,14.813,0,0,1-8.774,2.891Zm-7.487-2.088a14.53,14.53,0,0,1-2.346-1.756v-.01a14.079,14.079,0,0,1-3.085-4.094,13.563,13.563,0,0,1-1.343-4.633,13.955,13.955,0,0,1,2.217-9.105,9.284,9.284,0,0,1,3.269-3.1,7.843,7.843,0,0,1,3.846-1,8.323,8.323,0,0,1,4.333,1.242,9.49,9.49,0,0,1,3.339,3.561,14.391,14.391,0,0,0-11.188,7.275,13.778,13.778,0,0,0-1.061,2.393,10.063,10.063,0,0,0,.351,7.02,6.584,6.584,0,0,0,1.671,2.215Zm12.674-6.221h-.356a13.82,13.82,0,0,0,1.238-6.662,13.765,13.765,0,0,0-2.09-6.441,14,14,0,0,0-1.584-2.086,10,10,0,0,0-7.046-3.236,6.393,6.393,0,0,0-2.168.338,14.728,14.728,0,0,1,2.751-1.113,14.676,14.676,0,0,1,4.146-.6,14.479,14.479,0,0,1,7.528,2.111,14.3,14.3,0,0,1,5.242,5.535,9.03,9.03,0,0,1,1.113,4.35,7.485,7.485,0,0,1-1.071,3.771,8.068,8.068,0,0,1-3.127,2.93,9.7,9.7,0,0,1-4.578,1.1Z" transform="translate(-9288.563 17614.912)" fill="#fff"/>
  </g>
</svg>
