<svg xmlns="http://www.w3.org/2000/svg" width="40" height="40" viewBox="0 0 40 40">
  <g id="Group_4233" data-name="Group 4233" transform="translate(-947 -215)">
    <circle id="Ocho_profile" data-name="Ocho profile" cx="20" cy="20" r="20" transform="translate(947 215)" fill="#e7e8ed"/>
    <path id="user" d="M8.75,10a5,5,0,1,0-5-5A5,5,0,0,0,8.75,10Zm3.5,1.25H11.6a6.8,6.8,0,0,1-5.7,0H5.25A5.251,5.251,0,0,0,0,16.5v1.625A1.875,1.875,0,0,0,1.875,20h13.75A1.875,1.875,0,0,0,17.5,18.125V16.5A5.251,5.251,0,0,0,12.25,11.25Z" transform="translate(958 225)" fill="#9497af"/>
  </g>
</svg>
