<svg xmlns="http://www.w3.org/2000/svg" width="35" height="35" viewBox="0 0 35 35">
  <path id="Path_103" data-name="Path 103" d="M-906.122,2105.8a15.252,15.252,0,0,0-11.051-6.413h0a.141.141,0,0,0-.112.1h0v5.412a.153.153,0,0,0,.146.128h0l-.01.006a9.673,9.673,0,0,1,8.03,7.631h0a9.951,9.951,0,0,1,.182,1.419h-.041a9.671,9.671,0,0,1-8.955-7.721h0c-.014-.093-.032-.187-.049-.279h0a.136.136,0,0,0-.1-.094h-5.395a.15.15,0,0,0-.142.118h0c.052.455.122.914.215,1.37h0a15.277,15.277,0,0,0,6.125,9.413h0a15.276,15.276,0,0,0-6.125,9.413h0c-.092.455-.163.914-.215,1.37h0a.151.151,0,0,0,.142.118h5.395a.138.138,0,0,0,.1-.095h0c.017-.091.035-.186.049-.279h0a9.669,9.669,0,0,1,8.955-7.72h.041a9.9,9.9,0,0,1-.182,1.416h0a9.672,9.672,0,0,1-8.03,7.633h0l.01.006a.155.155,0,0,0-.146.128h0v5.414a.139.139,0,0,0,.112.095,15.248,15.248,0,0,0,11.051-6.413h0a15.243,15.243,0,0,0,11.051,6.413.14.14,0,0,0,.111-.095h0v-5.414a.154.154,0,0,0-.144-.128h0l.008-.006a9.672,9.672,0,0,1-8.03-7.633h0a9.966,9.966,0,0,1-.182-1.416h.042a9.669,9.669,0,0,1,8.955,7.72h0c.013.093.031.188.048.279h0a.139.139,0,0,0,.1.095h5.394a.152.152,0,0,0,.142-.118c-.051-.456-.122-.916-.214-1.37h0a15.278,15.278,0,0,0-6.125-9.413h0a15.28,15.28,0,0,0,6.125-9.413h0c.092-.456.163-.915.214-1.37a.151.151,0,0,0-.142-.118h-5.394a.137.137,0,0,0-.1.094h0c-.018.091-.036.186-.048.279h0a9.671,9.671,0,0,1-8.955,7.721h-.042a10.013,10.013,0,0,1,.182-1.419h0a9.673,9.673,0,0,1,8.03-7.631h0l-.008-.006a.152.152,0,0,0,.144-.128h0v-5.412a.141.141,0,0,0-.111-.1h0a15.247,15.247,0,0,0-11.051,6.413Z" transform="translate(923.623 -2099.388)" fill="#f47422" fill-rule="evenodd"/>
</svg>
