<svg xmlns="http://www.w3.org/2000/svg" width="144.141" height="32" viewBox="0 0 144.141 32">
  <g id="Group_1043" data-name="Group 1043" transform="translate(-62.267 -519.429)">
    <path id="Path_5833" data-name="Path 5833" d="M88.395,535.382a13.935,13.935,0,0,0,5.585-8.58c.084-.416.148-.834.195-1.25a.138.138,0,0,0-.13-.107H89.127a.127.127,0,0,0-.093.086c-.016.083-.032.169-.045.255a8.816,8.816,0,0,1-8.164,7.038h-.038a9.014,9.014,0,0,1,.166-1.293,8.819,8.819,0,0,1,7.32-6.957l-.008-.005a.14.14,0,0,0,.132-.117v-4.934a.129.129,0,0,0-.1-.088,13.9,13.9,0,0,0-10.075,5.846,13.9,13.9,0,0,0-10.074-5.846.128.128,0,0,0-.1.088v4.934a.14.14,0,0,0,.133.117l-.01.005a8.819,8.819,0,0,1,7.321,6.957,9.015,9.015,0,0,1,.166,1.293h-.038a8.814,8.814,0,0,1-8.163-7.038c-.014-.086-.03-.171-.046-.255a.125.125,0,0,0-.093-.086H62.4a.138.138,0,0,0-.13.107c.048.416.111.834.2,1.25a13.925,13.925,0,0,0,5.584,8.58,13.922,13.922,0,0,0-5.584,8.581c-.085.415-.148.834-.2,1.25a.138.138,0,0,0,.13.107h4.918a.124.124,0,0,0,.093-.087c.016-.083.032-.169.046-.255a8.812,8.812,0,0,1,8.163-7.038h.038a9.008,9.008,0,0,1-.166,1.291,8.819,8.819,0,0,1-7.321,6.959l.01.005a.142.142,0,0,0-.133.117v4.936a.129.129,0,0,0,.1.086,13.9,13.9,0,0,0,10.074-5.845A13.9,13.9,0,0,0,88.3,551.336a.129.129,0,0,0,.1-.086v-4.936a.141.141,0,0,0-.132-.117l.008-.005a8.819,8.819,0,0,1-7.32-6.959,9.006,9.006,0,0,1-.166-1.291h.038a8.815,8.815,0,0,1,8.164,7.038c.013.086.029.172.045.255a.125.125,0,0,0,.093.087h4.918a.138.138,0,0,0,.13-.107c-.047-.416-.111-.835-.195-1.25A13.932,13.932,0,0,0,88.395,535.382Z" fill="#fff" fill-rule="evenodd"/>
    <g id="Group_1042" data-name="Group 1042" transform="translate(96.495 535.045)">
      <path id="Path_5834" data-name="Path 5834" d="M112.616,535.342h-4.522l-3.221,4.526-3.258-4.553H97.1l5.482,7.776-5.894,8.286h4.654l3.533-5.031,3.529,5.024h4.655l-5.892-8.279,5.451-7.749Zm25.678,3.081a10.978,10.978,0,0,1,4.128.846l.375.14.4-3.264-.208-.1a11.786,11.786,0,0,0-4.692-.917,8.192,8.192,0,1,0,0,16.384,11.789,11.789,0,0,0,4.692-.917l.208-.1-.4-3.264-.375.14a10.968,10.968,0,0,1-4.128.845c-2.745,0-4.382-1.832-4.382-4.9s1.638-4.9,4.382-4.9Zm49.054,4.368c0,.63,0,1.793.046,2.616h-.046c-.422-.679-.846-1.283-1.315-1.938l-5.909-8.07h-3.412v15.97H180.1V543.25c0-.68,0-1.745-.066-2.279h.046c.489.7.915,1.336,1.384,1.987l6.11,8.411h3.161V535.4h-3.387v7.392Zm-63.492-6.967a78.2,78.2,0,0,1,6.416,15.522l.008.025h-3.59l0-.014c-.347-1.11-.741-2.269-1.2-3.543h-7.207c-.168.458-.312.864-.427,1.206-.321.934-.559,1.654-.769,2.337l0,.014h-3.595l.007-.025a78.319,78.319,0,0,1,6.412-15.522c.047-.08.092-.164.136-.247s.085-.156.128-.232l.006-.009h3.417l0,.01c.041.073.082.148.122.223s.093.173.14.255Zm32.454,7.007a3.846,3.846,0,0,0,1.048-1.135,4.071,4.071,0,0,0,.6-2.157,3.989,3.989,0,0,0-.489-1.962,4.234,4.234,0,0,0-1.214-1.393,4.014,4.014,0,0,0-1.657-.693,16.445,16.445,0,0,0-2.647-.157h-6.167v16.088h5.3c1.912-.014,3.09-.049,3.6-.108a4.168,4.168,0,0,0,3.5-2.5,5.132,5.132,0,0,0,.494-2.184,4.184,4.184,0,0,0-.779-2.515,3.976,3.976,0,0,0-1.589-1.28Zm43.415.262a90.2,90.2,0,0,1,6.692-7.774h-4.342c-1.888,1.969-3.748,4.1-5.553,6.377v-6.384h-3.537v15.97h3.537v-6.758L202.2,551.3h4.4l-6.875-8.207Zm-30.62-7.268c-.047-.082-.093-.168-.14-.255s-.082-.15-.122-.223l0-.01h-3.417l-.006.009c-.044.076-.087.155-.127.232s-.09.167-.137.247a78.318,78.318,0,0,0-6.412,15.522l-.007.025h3.595l0-.014c.211-.683.447-1.4.77-2.337.114-.342.258-.749.426-1.206h7.207c.46,1.274.854,2.433,1.2,3.543l0,.014h3.59l-.008-.025a78.2,78.2,0,0,0-6.416-15.522Zm-4.365,8.842h0c.777-1.884,1.581-3.647,2.389-5.237.795,1.565,1.6,3.326,2.392,5.237Zm-15.371-6.13h1.384c1.372,0,2.211.017,2.486.05a1.348,1.348,0,0,1,.912.434,1.44,1.44,0,0,1,.3.963,1.374,1.374,0,0,1-.348.991,1.589,1.589,0,0,1-1,.457c-.266.034-.975.051-2.108.051h-1.623v-2.945Zm5.283,9.051h0a1.5,1.5,0,0,1-.9.513,11.716,11.716,0,0,1-1.959.089h-2.422v-3.505h2.073a8.824,8.824,0,0,1,2.513.2,1.493,1.493,0,0,1,.769.584,1.8,1.8,0,0,1,.268,1.008,1.656,1.656,0,0,1-.339,1.109Zm-35.161-2.922h4.78c-.794-1.91-1.6-3.672-2.392-5.237-.808,1.59-1.612,3.352-2.389,5.237Z" transform="translate(-96.686 -535.132)" fill="#fff" fill-rule="evenodd"/>
    </g>
  </g>
</svg>
